<svg xmlns="http://www.w3.org/2000/svg" width="288" height="235" viewBox="0 0 288 235">
    <defs>
        <linearGradient id="mi5bdl70ca" x1="84.743%" x2="60.235%" y1="-56.245%" y2="12.845%">
            <stop offset=".19%" stop-color="#FDE2C2"/>
            <stop offset="100%" stop-color="#F9B260"/>
        </linearGradient>
        <linearGradient id="of35rcyojb" x1="64.074%" x2="42.244%" y1="102.026%" y2="2.393%">
            <stop offset=".023%" stop-color="#0095DA"/>
            <stop offset="100%" stop-color="#0072A7"/>
        </linearGradient>
        <linearGradient id="8p748x9n4c" x1="50%" x2="50%" y1="99.999%" y2="0%">
            <stop offset=".28%" stop-color="#F37021"/>
            <stop offset="100%" stop-color="#D6580C"/>
        </linearGradient>
        <linearGradient id="la09i0e69d" x1=".217%" x2="100.073%" y1="50.285%" y2="49.366%">
            <stop offset=".19%" stop-color="#FDE2C2"/>
            <stop offset="100%" stop-color="#F9B260"/>
        </linearGradient>
        <linearGradient id="vnz6e9esse" x1="55.75%" x2="40.201%" y1="-1.349%" y2="99.909%">
            <stop offset=".19%" stop-color="#FDE2C2"/>
            <stop offset="100%" stop-color="#F9B260"/>
        </linearGradient>
        <linearGradient id="pgefhcdodf" x1="63.521%" x2="26.427%" y1="29.542%" y2="82.027%">
            <stop offset=".19%" stop-color="#FDE2C2"/>
            <stop offset="100%" stop-color="#F9B260"/>
        </linearGradient>
        <linearGradient id="9uqbc1lc7g" x1="92.326%" x2="19.636%" y1="50.564%" y2="49.485%">
            <stop offset=".19%" stop-color="#FDE2C2"/>
            <stop offset="100%" stop-color="#F9B260"/>
        </linearGradient>
    </defs>
    <g fill="none" fill-rule="evenodd">
        <g>
            <g>
                <g>
                    <path d="M0 0H288V235H0z" opacity=".88" transform="translate(-761.000000, -178.000000) translate(394.000000, 132.000000) translate(367.000000, 46.000000)"/>
                    <g fill-rule="nonzero" transform="translate(-761.000000, -178.000000) translate(394.000000, 132.000000) translate(367.000000, 46.000000) translate(24.782971, 23.380801) translate(-0.000000, 0.000000)">
                        <path fill="#DAF3FF" d="M14.12 120.29S1.755 150.103 25.43 171.247c23.675 21.143 185.894 36.56 207.054-33.34 21.16-69.9-19.845-69.946-43.765-97.43C164.798 12.993 149.42-8.18 98.506 3.09c-50.915 11.27-84.385 117.2-84.385 117.2z"/>
                        <path fill="#41C3FF" d="M213.76 164.353c-5.224-2.76-10.437-4.714-10.7-5.011-.636-.718-112.845-5.778-112.845-5.778l-21.002-1.586 14.81 11.314s70.7 6.105 112.518 11.373c6.362-2.917 12.166-6.333 17.218-10.312z"/>
                        <path fill="#A7E3FF" d="M54.052 156.93s72.033 3.93 150.136 13.835c13.736-7.84 23.967-18.562 28.295-32.858 1.919-6.339 3.32-12.097 4.275-17.36-28.748-5.995-64.637-9.557-103.573-9.557-46.978 0-89.527 5.183-120.438 13.573-2.409 8.99-5.551 30.4 12.681 46.684 4.738 4.23 15.031 8.23 28.623 11.365V156.93h.001z"/>
                        <path fill="#0095DA" d="M156.255 108.477s3.934 5.663 3.344 8.908c-.387 2.13-5.427 4.803-8.84 6.386-.753.349-.525 1.471.303 1.507l27.524 1.207c1.75.076 3.483-.494 4.78-1.673 2.494-2.265 5.36-6.669.766-13.045-6.978-9.682-27.877-3.29-27.877-3.29z"/>
                        <path fill="#0095DA" d="M213.92 114.89c-27.832.99-51.168-.966-78.805-3.53-5.838-.54-10.335-5.238-10.672-11.147-1.096-19.24-.03-38.603 3.178-57.72.985-5.87 5.985-10.299 11.863-10.509 27.832-.99 50.445-1.364 78.083 1.2l5.205 1.161c5.928 1.672 9.164 7.664 9.501 13.573 0 0 1.384 34.89-2.94 55.328-2.32 10.962-15.412 11.643-15.412 11.643z"/>
                        <path fill="#41C3FF" d="M212.237 115.07c-28.75 1.024-57.486.21-86.034-2.44-6.03-.559-10.676-5.411-11.023-11.514-1.133-19.874-.032-39.875 3.281-59.623 1.018-6.065 6.182-10.64 12.254-10.856 28.75-1.024 57.486-.21 86.035 2.439 6.03.559 10.675 5.412 11.023 11.515 1.133 19.874.032 39.875-3.282 59.623-1.017 6.064-6.181 10.64-12.254 10.856z"/>
                        <path fill="#A7E3FF" d="M216.104 100.738c2.763.07 5.122-1.945 5.53-4.68 2.424-16.2 3.172-32.558 2.22-48.823-.323-5.533-4.645-9.931-10.256-10.438-26.56-2.4-53.295-3.14-80.043-2.212-5.65.197-10.455 4.343-11.401 9.84-2.778 16.132-3.883 32.449-3.303 48.7.103 2.89 2.418 5.212 5.31 5.284l91.943 2.329z"/>
                        <circle cx="168.841" cy="107.773" r="3.974" fill="#0095DA"/>
                        <path fill="#41C3FF" d="M183.468 133.492l-67.149-4.896-16.304 9.311s68 7.373 68.419 7.162c.419-.212 15.034-11.577 15.034-11.577zM186.567 142.335s3.467 2.773 11.516 0c8.048-2.773 14.19-9.975 7.201-11.88-6.989-1.907-18.717 11.88-18.717 11.88z"/>
                        <path fill="url(#mi5bdl70ca)" d="M33.896 84.028c-11.116 20.498-16.273 42.357-20.865 43.648-4.875 1.372-20.306-15.4-8.948-32.736 5.67-7.087 10.604-13.976 15.752-19.837 3.472 4.595 7.42 6.288 14.061 8.925z"/>
                        <path fill="url(#of35rcyojb)" d="M45.145 114.831s-10.568-7.08-17.623-13.133c-7.668-1.02-25.186 9.596-24.02 21.767 0 0 17.69 27.775 33.474 23.84 7.968-1.987 8.169-32.474 8.169-32.474z"/>
                        <path fill="url(#8p748x9n4c)" d="M75.335 103.458c-18.745-.99-26.648 1.823-33.221 3.754-4.677 1.375-16.162 38.227-20.85 59.813 1.247 1.436 2.627 2.848 4.165 4.223 9.548 8.527 41.635 16.12 77.911 17.562-.48-21.342-.757-51.813-.615-65.298 0-.002-6.365-18.945-27.39-20.054z"/>
                        <path fill="#D55A27" d="M25.429 171.247c7.538 6.732 29.132 12.878 55.737 15.88.556-8.449 1.292-32.355-7.283-41.348-10.497-11.005-41.085-9.973-47.63 0-3.047 4.646-4.584 13.095-5.357 20.799 1.344 1.59 2.836 3.154 4.533 4.669z"/>
                        <path fill="#FFF" d="M75.335 103.458c-12.779-.675-20.515.419-26.23 1.793-.056 4.103 1.364 10.595 9.255 11.155 8.682.615 21.189-6.37 31.855-8.317-3.848-2.453-8.734-4.307-14.88-4.631z"/>
                        <path fill="url(#la09i0e69d)" d="M75.335 103.458c-10.975-.58-18.218.147-23.67 1.235-.337 3.145.04 9.025 7.49 9.554 7.942.563 19.729-6.514 29.112-7.298-3.514-1.872-7.78-3.219-12.932-3.491z"/>
                        <g fill="#860050">
                            <path d="M8.189 15.41c-.38.023-.766.018-1.157-.016C2.796 15.019-.345 11.268.03 7.032S4.147-.346 8.392.031c4.236.374 7.376 4.125 7.001 8.36-.339 3.846-3.462 6.789-7.204 7.019zM7.332 1.587C4.354 1.769 1.87 4.112 1.6 7.17c-.298 3.37 2.201 6.354 5.572 6.653 3.365.298 6.354-2.202 6.653-5.572.144-1.633-.356-3.224-1.408-4.48C11.364 2.516 9.886 1.744 8.253 1.6c-.311-.028-.62-.032-.92-.013zM26.05 16.988c-.38.024-.765.02-1.156-.016-4.236-.374-7.377-4.125-7.002-8.36.375-4.237 4.12-7.374 8.362-7.002 4.236.374 7.376 4.125 7.001 8.36-.34 3.846-3.463 6.789-7.204 7.018zm-.856-13.821c-2.979.182-5.463 2.524-5.733 5.584-.145 1.633.356 3.224 1.408 4.48 1.052 1.256 2.531 2.028 4.164 2.172 3.367.298 6.354-2.203 6.653-5.572.297-3.37-2.202-6.354-5.572-6.653-.31-.026-.618-.03-.92-.011z" transform="translate(72.640808, 58.132465)"/>
                            <path d="M19.058 6.376c-2.284-2.117-4.26-.517-4.343-.448l-1.008-1.21c1.07-.894 3.792-1.939 6.423.504l-1.072 1.154z" transform="translate(72.640808, 58.132465)"/>
                        </g>
                        <path fill="url(#vnz6e9esse)" d="M59.143 66.758c-.099 10.864 1.77 22.172 7.19 24.734 7.152 3.38 27.425 3.834 30.801-10.682 3.376-14.516 5.644-29.16-.031-35.122-3.972-4.174-21.533-4.867-32.147.026-6.773 3.124-5.774 16.812-5.813 21.044z"/>
                        <path fill="#F8A33F" d="M75.593 70.086c.16.094.356.122.546.058l3.787-1.288c.225-.076.391-.267.435-.5.043-.234-.043-.473-.224-.625l-3.202-2.677c-.273-.231-.693-.197-.925.081-.233.28-.196.693.082.925l2.305 1.929-2.68.91c-.344.117-.528.49-.411.833.053.153.157.276.287.354z"/>
                        <path fill="#0072A7" d="M105.107 38.168c5.616-7.242-16.07-14.655-30.611-10.8-14.543 3.857-26.637 13.453-22.281 27.255-5.297-4.228-6.56 4.373-2.16 8.133-8.006 3.937 5.824 26.907 12.355 27.37 18.138 1.286 16.843-7.036 15.398-14.809-2.151-.339-6.017-1.976-5.06-9.475 0 0 1.23-6.61 5.593-4.868.8-.896 2.394-.7 6.086-.6 7.32.195 14.22-1.15 13.394-4.227 0 0 4.148 4.964 16.358-2.588 12.21-7.553-4.251-19.396-9.072-15.39z"/>
                        <path fill="#004F74" d="M100.557 57.538c-.042-5.091-1.008-9.28-3.454-11.85-3.972-4.174-21.533-4.866-32.147.026-6.774 3.123-5.775 16.81-5.813 21.043-.088 9.587 1.361 19.509 5.426 23.474 15.858.48 14.624-7.467 13.239-14.914-2.151-.34-6.017-1.977-5.06-9.476 0 0 1.23-6.61 5.593-4.868.8-.896 2.394-.7 6.086-.6 7.32.195 14.22-1.15 13.394-4.227 0 0 .801.958 2.736 1.392z"/>
                        <path fill="url(#pgefhcdodf)" d="M69.652 52.837c.084-3.584-5.291-9.078-15.227-6.613-9.885 2.45-15.428 10.294-15.428 10.294-5.66 4.588-12.1 10.88-19.16 18.586-1.596 1.741 12.732 11.801 14.06 8.924 4.42-9.577 9.746-19.94 20.366-17.972 5.389.998 9.999-.327 6.51-2.494-3.507-2.178-7.044-2.139-7.044-2.139s15.84-5.002 15.923-8.586z"/>
                        <path fill="url(#9uqbc1lc7g)" d="M117.522 135.157c2.133-.288 4.287.2 6.23 1.128 1.952.932 5.87 2.334 11.988 2.49 9.256.238 51.974-4.508 51.981-4.51.002-.003 5.699-13.217 17.09-7.676 8.545 4.592 5.934 6.965 3.323 7.677-2.61.712-16.855 7.404-16.856 7.404 0 0-31.464 20.389-68.113 17.488-3.977-.315-7.81-1.929-10.633-4.75-7.68-7.676-3.51-18.103 4.99-19.251z"/>
                        <path fill="#0072A7" d="M123.767 163.292l-36.2-10.495c-9.41-2.732-14.832-12.567-12.1-21.977 2.73-9.41 12.567-14.833 21.976-12.101 1.246.362 2.505.89 3.6 1.49l27.115 14.886c1.664 4.462 4.514 16.087-4.391 28.197z"/>
                        <path fill="#A9DD57" d="M74.923 185.729s3.453-33.36-7.043-44.365c-10.497-11.005-41.085-9.973-47.629 0-2.531 3.857-4.018 10.338-4.893 16.836 2.235 4.488 5.464 8.932 10.071 13.047 6.896 6.158 25.554 11.826 49.048 15.046.148-.19.298-.37.446-.564z"/>
                        <path fill="#8CC640" d="M64.772 144.097c-9.16-9.603-33.613-10.04-44.045-3.368-.165.209-.333.416-.477.635-2.531 3.857-4.018 10.338-4.892 16.836 2.234 4.488 5.463 8.932 10.07 13.047 6.655 5.943 24.255 11.433 46.592 14.704.557-7.95 1.508-32.672-7.248-41.854z"/>
                        <path fill="#077C3F" d="M55.962 183.039v-24.487c0-1.893-1.536-3.429-3.43-3.429-1.893 0-3.428 1.536-3.428 3.43v22.84c2.183.574 4.475 1.122 6.858 1.646zM33.953 176.306v-19.048c0-1.894-1.536-3.43-3.43-3.43-1.893 0-3.428 1.536-3.428 3.43v15.292c1.805 1.287 4.11 2.544 6.858 3.756z"/>
                        <path fill="#DAF3FF" d="M125.625 133.705s2.471 21.598-6.924 28.117c3.361 3.897 7.89 2.26 9.441.695 1.55-1.566 7.419-20.196 3.127-27.587-3.1-3.933-5.644-1.225-5.644-1.225zM3.502 123.464s5.341-17.855 25.536-20.211c4.073-2.097-2.26-6.22-7.02-5.823-7.281.606-28.192 11.422-18.516 26.034z"/>
                        <g>
                            <path fill="#A7E3FF" d="M37.599 17.76c1.33 6.523-.714 11.732-4.633 15.97-2.61 2.823-5.937 5.772-10.068 6.358-4.6.651-10.324-1.36-14.173-3.791C3.925 33.265 1.399 29.1.169 23.07c-.804-3.942 1.454-8.04 2.725-11.387C5.127 5.806 11.303 1.251 17.888.316 24.348-.6 28.271.324 32.701 5.08c2.66 2.852 4.066 8.607 4.898 12.68z" transform="translate(13.714516, 28.537354)"/>
                            <g fill="#004F74" transform="translate(13.714516, 28.537354) translate(13.338973, 6.949262)">
                                <path d="M16.071 6.44c-.112-.873-.398-1.686-.86-2.438-.462-.753-1.084-1.428-1.868-2.025-.782-.596-1.7-1.068-2.75-1.412C8.469-.132 6.578-.185 4.923.41c-.98.35-1.809.914-2.52 1.643-.296.412-1.076 1.741.251 2.801 1.588 1.27 3.402-.25 3.402-.25l.006.006c.25-.212.513-.395.802-.521.714-.316 1.518-.326 2.415-.032.923.302 1.569.796 1.941 1.48.372.684.432 1.403.185 2.16-.155.473-.409.898-.76 1.28-.353.381-.851.778-1.499 1.194L4.855 13c-.507.332-.905.684-1.198 1.058-.293.374-.556.915-.789 1.624 0 0-.447 1.73 1.748 2.45 2.194.72 2.613-1.019 2.62-1.018.134-.327.274-.61.427-.801.215-.27.518-.522.909-.762l4.29-2.828c1.468-.93 2.446-2.14 2.933-3.627.294-.897.386-1.781.276-2.655z"/>
                                <ellipse cx="3.134" cy="22.757" rx="2.334" ry="2.532" transform="translate(3.133639, 22.756602) rotate(-71.838637) translate(-3.133639, -22.756602)"/>
                            </g>
                        </g>
                        <g>
                            <path fill="#0095DA" d="M57.498 22.473l-24.801-1.316c-3.037-.162-5.472 2.461-5.438 5.86l.098 9.953c.034 3.397 2.523 6.281 5.56 6.443l7.21.382.01.514c7.689-5.955 13.692-13.17 17.36-21.836z" transform="translate(173.187861, 120.381512)"/>
                            <g>
                                <path fill="#41C3FF" d="M45.557 3.084L23.092 1.918c-2.444-.126-4.422 1.808-4.498 4.399l-.79 27.15 28.29-.717c1.297-1.75 2.485-3.572 3.548-5.475l.594-18.81c.087-2.788-2.048-5.244-4.679-5.38z" transform="translate(173.187861, 120.381512) translate(5.504759, 0.000000)"/>
                                <path fill="#A7E3FF" d="M46.727 30.751l.764-24.2c.088-2.787-2.048-5.243-4.677-5.38L20.348.007c-2.444-.127-4.422 1.807-4.498 4.398l-.79 27.152 31.667-.805z" transform="translate(173.187861, 120.381512) translate(5.504759, 0.000000)"/>
                                <path fill="#FFF" d="M42.825 31.58l.763-24.2c.088-2.788-2.047-5.243-4.677-5.38L16.446.836C14 .708 12.024 2.642 11.948 5.233l-.79 27.152 31.667-.805z" transform="translate(173.187861, 120.381512) translate(5.504759, 0.000000)"/>
                                <path fill="#41C3FF" d="M38.315 34.556l.763-24.2c.088-2.787-2.047-5.243-4.677-5.38L11.936 3.812C9.49 3.684 7.514 5.618 7.438 8.209l-.79 27.152 31.667-.805z" transform="translate(173.187861, 120.381512) translate(5.504759, 0.000000)"/>
                                <path fill="#A7E3FF" d="M35.571 32.643l.763-24.2c.088-2.788-2.047-5.243-4.677-5.38L9.192 1.899C6.747 1.77 4.77 3.705 4.694 6.296l-.79 27.152 31.667-.805z" transform="translate(173.187861, 120.381512) translate(5.504759, 0.000000)"/>
                                <path fill="#FFF" d="M31.668 33.472l.763-24.2c.088-2.788-2.047-5.244-4.677-5.38L5.289 2.726C2.844 2.6.866 4.534.79 7.125L0 34.277l31.668-.805z" transform="translate(173.187861, 120.381512) translate(5.504759, 0.000000)"/>
                                <g fill="#A7E3FF">
                                    <path d="M20.083 16.467l-.037-.001-18.353-1.23c-.993-.068-1.75-1.033-1.69-2.152L.687.521c.016-.302.276-.552.578-.518.302.016.535.275.518.578L1.1 13.145c-.029.512.277.968.667.994l18.352 1.23c.303.022.532.282.511.586-.019.29-.26.512-.547.512z" transform="translate(173.187861, 120.381512) translate(5.504759, 0.000000) translate(6.120295, 6.174731)"/>
                                    <path d="M18.374 12.977c-.173 0-.337-.081-.441-.222l-4.386-5.921-2.06 2.267c-.099.11-.238.175-.386.18-.145.015-.29-.048-.399-.15L8.103 6.665l-4.376 4.1c-.22.205-.569.197-.775-.026-.208-.221-.197-.569.025-.777L7.731 5.51c.211-.2.541-.198.753.003l2.568 2.437 2.132-2.347c.11-.121.27-.194.433-.18.165.008.316.089.414.221l4.274 5.771 1.839-3.335c.146-.265.48-.365.745-.215.266.145.363.48.217.745l-2.252 4.085c-.09.164-.258.27-.444.283h-.036z" transform="translate(173.187861, 120.381512) translate(5.504759, 0.000000) translate(6.120295, 6.174731)"/>
                                </g>
                            </g>
                            <path fill="#0095DA" d="M55.675 26.282l-17.375.985s6.15 9.932 7.716 11.898c3.883-3.843 7.142-8.126 9.66-12.883z" transform="translate(173.187861, 120.381512)"/>
                            <path fill="#41C3FF" d="M44.322 30.64c-.036-3.63-2.695-6.712-5.94-6.884l-2.666-.141c-.922-.05-1.76.486-2.169 1.385l-.82 1.806c-.574 1.263-1.753 2.015-3.05 1.946l-15.361-1.098c-1.298-.069-2.493-.947-3.092-2.272l-.857-1.895c-.426-.943-1.276-1.567-2.199-1.617l-2.665-.141c-3.245-.172-5.538 1.4-5.503 5.03l.107 10.634c.036 3.63 2.695 6.711 5.94 6.883l29.774 3.11.054-.026c3.079-2.052 5.937-4.274 8.546-6.676l-.099-10.044z" transform="translate(173.187861, 120.381512)"/>
                            <path fill="#0095DA" d="M29.497 37.776l-17.067-1.49c-1.282-.111-2.236-1.245-2.129-2.53.107-1.287 1.233-2.238 2.515-2.127l17.068 1.49c1.282.11 2.235 1.245 2.128 2.53-.106 1.287-1.233 2.24-2.515 2.127z" transform="translate(173.187861, 120.381512)"/>
                        </g>
                        <path fill="#FFF" d="M148.117 60.113l-.717-2.495c-.398-1.385-1.603-2.319-3.008-2.331l-8.34-.071c-1.405-.012-2.704.9-3.244 2.277l-1.653 4.221c-.145.37-.229.759-.25 1.152l-.952 18.575c-.098 1.91 1.307 3.47 3.139 3.486l24.976.214c1.83.016 3.395-1.52 3.493-3.43L162.366 66c.098-1.91-1.308-3.47-3.139-3.486l-8.102-.069c-1.404-.012-2.61-.945-3.008-2.33z"/>
                        <path fill="#41C3FF" d="M151.125 62.444c-1.405-.012-2.61-.945-3.008-2.33l-.717-2.496c-.398-1.385-1.603-2.319-3.008-2.331l-8.34-.071c-1.405-.012-2.704.9-3.244 2.277l-1.653 4.22c-.093.236-.152.482-.193.73h20.163v.001z"/>
                        <path fill="#0095DA" d="M137.202 54.753c.26.002.47.216.468.477-.002.26-.215.47-.476.468l-1.146-.01c-.26-.002-.47-.215-.468-.476.002-.261.215-.47.476-.468l1.146.01zm4.01.034c.262.003.472.216.47.477-.003.26-.216.47-.477.468l-1.146-.01c-.261-.002-.47-.215-.469-.476.003-.26.216-.47.477-.468l1.146.01zm4.127.16c.251.071.398.332.328.583-.07.251-.331.398-.583.327-.224-.062-.457-.096-.696-.098l-.318-.002c-.261-.003-.47-.216-.469-.477.003-.26.216-.47.477-.468l.319.002c.321.003.638.048.942.134zm2.743 3.333c.072.25-.073.513-.324.585-.25.072-.512-.073-.584-.324l-.232-.805c-.026-.09-.056-.177-.09-.262-.096-.243.022-.517.265-.614.242-.096.517.023.613.265.045.113.085.228.12.348l.232.807zm1.584 3.237c.216.147.272.44.125.656-.147.216-.44.272-.656.125-.364-.247-.682-.56-.937-.926-.15-.214-.097-.509.117-.658.214-.15.509-.097.658.117.19.271.424.503.693.686zm3.7.474c.26.002.47.216.468.476-.002.261-.216.471-.476.469l-1.146-.01c-.261-.002-.471-.215-.469-.476.002-.261.216-.471.477-.469l1.146.01zm4.01.034c.261.002.471.216.469.477-.002.26-.216.47-.477.468l-1.146-.01c-.26-.002-.47-.215-.468-.476.002-.261.216-.47.476-.469l1.146.01zm4.148.867c.199.17.223.467.054.666-.17.199-.467.223-.666.054-.25-.212-.535-.376-.843-.482-.247-.085-.378-.354-.293-.601.085-.247.354-.378.601-.292.42.145.808.367 1.147.655zm1.26 4.187c-.014.261-.236.461-.496.448-.26-.013-.461-.235-.448-.496l.057-1.14c.007-.26.224-.466.485-.46.26.007.467.224.46.485l-.058 1.163zm-.206 4.006c-.013.26-.235.461-.496.448-.26-.014-.46-.236-.447-.496l.058-1.145c.014-.26.236-.46.496-.447.261.013.461.235.448.496l-.059 1.144zm-.205 4.006c-.013.26-.235.461-.496.448-.26-.014-.46-.236-.447-.496l.058-1.145c.014-.26.236-.46.496-.448.26.014.461.236.448.496l-.059 1.145zm-.205 4.006c-.013.26-.235.46-.496.447-.26-.013-.461-.235-.448-.496l.059-1.144c.013-.26.235-.461.496-.448.26.014.461.236.448.496l-.059 1.145zm-.499 4.136c-.107.238-.387.344-.625.236-.238-.108-.343-.387-.236-.625.138-.304.228-.629.265-.963.03-.26.263-.446.523-.417.259.029.445.263.416.522-.048.434-.165.854-.343 1.247zm-3.717 2.38c-.26-.001-.471-.214-.47-.475.001-.26.214-.471.475-.47l.168.001c.297-.003.59-.054.871-.15.247-.084.515.047.6.294.084.247-.048.516-.295.6-.375.128-.767.196-1.173.2h-.176zm-4.012-.034c-.261-.003-.47-.216-.469-.477.003-.26.216-.47.477-.468l1.146.01c.26.002.47.215.468.476-.002.261-.215.47-.476.468l-1.146-.01zm-4.011-.035c-.261-.002-.47-.215-.469-.476.003-.261.216-.47.477-.468l1.146.01c.26.002.47.215.468.476-.002.26-.215.47-.476.468l-1.146-.01zm-4.011-.034c-.261-.002-.47-.216-.468-.476.002-.261.215-.471.476-.469l1.146.01c.26.002.47.216.468.476-.002.261-.215.471-.476.469l-1.146-.01zm-4.01-.034c-.262-.003-.472-.216-.47-.477.003-.26.216-.47.477-.468l1.146.01c.261.002.47.215.469.476-.003.261-.216.47-.477.469l-1.146-.01zm-4.012-.035c-.26-.002-.47-.215-.468-.476.002-.261.215-.47.476-.468l1.146.01c.261.002.47.215.469.476-.003.26-.216.47-.477.468l-1.146-.01zm-4.01-.034c-.262-.002-.471-.215-.47-.476.003-.261.216-.471.477-.469l1.146.01c.261.002.471.216.469.477-.002.26-.216.47-.477.468l-1.146-.01zm-3.89-1.815c-.13-.226-.054-.515.171-.646.226-.131.515-.055.646.17.167.288.381.54.633.746.202.165.232.463.066.665-.165.202-.463.231-.664.066-.34-.278-.628-.617-.852-1.001zm-.407-4.286c.014-.26.236-.46.496-.447.26.013.461.235.448.496l-.059 1.144c-.013.26-.235.461-.496.448-.26-.014-.46-.236-.447-.496l.058-1.145zm.206-4.006c.013-.26.235-.46.496-.447.26.013.46.235.447.496l-.058 1.144c-.014.26-.236.461-.496.448-.261-.013-.461-.236-.448-.496l.059-1.145zm.205-4.005c.013-.261.235-.461.496-.448.26.013.461.235.448.496l-.059 1.145c-.013.26-.235.46-.496.447-.26-.013-.461-.235-.448-.496l.059-1.144zm.205-4.006c.014-.26.236-.461.496-.448.261.014.461.236.448.496l-.059 1.145c-.013.26-.235.46-.496.447-.26-.013-.46-.235-.447-.496l.058-1.144zm.206-4.006c.013-.26.235-.46.496-.448.26.014.46.236.447.496l-.058 1.145c-.014.26-.236.461-.496.448-.26-.014-.461-.236-.448-.496l.059-1.145zm1.176-3.967c.095-.243.369-.363.612-.268.243.096.363.37.268.613l-.419 1.067c-.095.243-.369.362-.612.267-.243-.095-.362-.37-.267-.612l.418-1.067zm2.01-3.69c.202-.165.5-.135.665.067.165.202.136.5-.066.665-.257.21-.48.462-.662.746-.14.22-.433.284-.653.144-.22-.14-.284-.433-.143-.653.235-.368.526-.695.86-.968z"/>
                        <g>
                            <path fill="#FFF" d="M30.131 20.277l-25.769-.556c-2.316-.05-4.091-1.985-3.965-4.323l.58-10.782C1.104 2.278 3.085.423 5.4.473L25.332 1l9.782 9.377-.562 5.759c-.126 2.337-2.105 4.192-4.42 4.142z" transform="translate(174.171640, 45.168384)"/>
                            <path fill="#41C3FF" d="M25.332.999l-.78 7.209c-.163 1.497 1.063 2.777 2.566 2.68l7.996-.512L25.332.999z" transform="translate(174.171640, 45.168384)"/>
                            <path fill="#0095DA" d="M6.546.03c.26.008.466.225.46.485-.007.261-.224.467-.485.46L5.387.945c-.26-.006-.466-.223-.46-.484.007-.261.224-.467.485-.46l1.134.03zm3.967.105c.26.007.466.224.46.485-.007.26-.224.467-.485.46l-1.134-.03c-.26-.007-.466-.224-.46-.485.007-.26.224-.466.485-.46l1.134.03zM14.48.24c.26.007.467.224.46.485-.007.26-.224.466-.485.46l-1.133-.03c-.261-.007-.467-.224-.46-.485.007-.261.224-.467.484-.46l1.134.03zm3.967.104c.26.007.467.224.46.485-.007.261-.224.467-.485.46l-1.133-.03c-.261-.007-.467-.224-.46-.485.007-.26.224-.466.485-.46l1.133.03zm3.967.105c.261.007.467.224.46.485-.007.26-.224.466-.485.46l-1.133-.03c-.261-.007-.467-.224-.46-.485.007-.26.224-.467.485-.46l1.133.03zm3.994.926c.188.18.194.48.014.668-.18.189-.48.195-.668.014l-.749-.717.327-.341-.012.472-.097-.003c-.26-.007-.467-.224-.46-.484.007-.261.224-.467.485-.46l.096.002c.118.003.23.05.315.131l.749.718zm2.865 2.746c.188.18.194.48.014.668-.18.189-.48.195-.668.014L27.8 4.02c-.188-.18-.195-.48-.014-.668.18-.188.48-.195.668-.014l.819.784zm2.864 2.747c.189.18.195.48.015.668-.181.188-.48.194-.668.014l-.819-.785c-.188-.18-.195-.48-.014-.668.18-.188.48-.195.668-.014l.818.785zm2.865 2.746c.189.18.195.48.014.668-.18.188-.48.194-.668.014l-.818-.785c-.188-.18-.195-.48-.014-.668.18-.188.48-.194.668-.014l.818.785zm.256 4.152c-.025.26-.256.45-.516.424-.26-.025-.45-.256-.424-.516l.11-1.128c.025-.26.256-.45.516-.425.26.026.45.257.424.516l-.11 1.129zm-.625 4.053c-.104.24-.382.35-.621.246-.24-.104-.35-.382-.246-.622.134-.31.228-.635.278-.971.038-.258.278-.436.537-.398.258.038.436.279.397.537-.062.418-.178.823-.345 1.208zm-3.266 2.79c-.253.063-.51-.09-.574-.343-.063-.253.09-.51.343-.574.327-.082.642-.208.938-.374.227-.127.515-.046.643.181.127.228.046.516-.181.643-.368.207-.76.364-1.17.467zm-4.197.077c-.261-.006-.468-.222-.462-.483.005-.26.221-.468.482-.462l1.134.024c.26.006.467.222.462.483-.006.26-.222.468-.483.462l-1.133-.024zm-3.968-.086c-.26-.006-.468-.222-.462-.482.006-.261.222-.468.482-.463l1.134.025c.26.006.468.222.462.482-.005.261-.221.468-.482.463l-1.134-.025zm-3.967-.085c-.261-.006-.468-.222-.463-.483.006-.26.222-.468.483-.462l1.133.024c.261.006.468.222.463.483-.006.26-.222.468-.483.462l-1.133-.024zm-3.968-.086c-.26-.006-.468-.222-.462-.482.005-.261.221-.468.482-.463l1.134.025c.26.005.468.221.462.482-.006.261-.222.468-.482.462l-1.134-.024zm-3.968-.086c-.26-.005-.467-.221-.462-.482.006-.26.222-.468.483-.462l1.133.024c.261.006.468.222.462.483-.005.26-.221.468-.482.462l-1.134-.025zm-3.967-.085c-.261-.006-.468-.222-.462-.483.005-.26.221-.467.482-.462l1.134.025c.26.005.468.221.462.482-.006.261-.222.468-.483.462l-1.133-.024zm-4.07-.219c-.253-.067-.402-.327-.335-.579.068-.252.327-.401.58-.334.278.075.568.117.865.123l.146.003c.261.006.468.222.462.483-.005.26-.221.467-.482.462l-.146-.003c-.373-.008-.738-.06-1.09-.155zM.147 17.083c-.081-.248.054-.515.302-.596.248-.082.515.053.596.301.105.32.254.623.442.9.146.216.09.51-.126.656-.216.147-.51.09-.656-.125-.237-.35-.425-.732-.558-1.136zm-.086-4.251c.014-.26.236-.46.497-.446.26.014.46.236.446.497l-.06 1.132c-.015.26-.237.46-.498.446-.26-.014-.46-.236-.446-.497l.06-1.132zm.213-3.963c.014-.26.237-.46.497-.446.261.014.46.237.447.497l-.061 1.132c-.014.26-.237.46-.497.447C.4 10.485.2 10.262.214 10L.275 8.87zM.49 4.906c.014-.26.237-.46.497-.446.26.014.46.237.446.497l-.06 1.133c-.015.26-.237.46-.498.446-.26-.014-.46-.237-.446-.497l.06-1.133zm1.834-3.844c.203-.164.5-.131.664.072.164.203.132.5-.072.664-.263.213-.5.458-.702.731-.155.21-.45.254-.66.098-.21-.155-.254-.451-.099-.66.25-.338.543-.642.87-.905zM5.87.483c-.005.232-.176.421-.397.457l-.123.005C5.09.942 4.88.728 4.882.467c.003-.26.217-.47.478-.467h.046c.261.006.468.222.463.483z" transform="translate(174.171640, 45.168384)"/>
                        </g>
                        <g>
                            <path fill="#FFF" d="M30.131 20.277l-25.769-.556c-2.316-.05-4.091-1.985-3.965-4.323l.58-10.782C1.104 2.278 3.085.423 5.4.473L25.332 1l9.782 9.377-.562 5.759c-.126 2.337-2.105 4.192-4.42 4.142z" transform="translate(172.788333, 71.578778)"/>
                            <path fill="#41C3FF" d="M25.332.999l-.78 7.209c-.162 1.497 1.063 2.777 2.566 2.68l7.996-.512L25.332.999z" transform="translate(172.788333, 71.578778)"/>
                            <path fill="#0095DA" d="M6.546.03c.26.008.466.225.46.485-.007.261-.224.467-.485.46L5.387.945c-.26-.006-.466-.223-.46-.484.007-.261.224-.467.485-.46l1.134.03zm3.967.105c.26.007.466.224.46.485-.007.26-.224.467-.485.46l-1.134-.03c-.26-.007-.466-.224-.46-.485.007-.26.224-.466.485-.46l1.134.03zM14.48.24c.26.007.467.224.46.485-.007.26-.224.466-.485.46l-1.133-.03c-.261-.007-.467-.224-.46-.485.007-.261.224-.467.484-.46l1.134.03zm3.967.104c.26.007.467.224.46.485-.007.261-.224.467-.485.46l-1.133-.03c-.261-.007-.467-.224-.46-.485.007-.26.224-.466.485-.46l1.133.03zm3.967.105c.261.007.467.224.46.485-.007.26-.224.466-.485.46l-1.133-.03c-.261-.007-.467-.224-.46-.485.007-.26.224-.467.485-.46l1.133.03zm3.994.926c.188.18.194.48.014.668-.18.189-.48.195-.668.014l-.749-.717.327-.341-.012.472-.097-.003c-.26-.007-.467-.224-.46-.484.007-.261.224-.467.485-.46l.096.002c.118.003.23.05.315.131l.749.718zm2.865 2.746c.188.18.194.48.014.668-.18.189-.48.195-.668.014L27.8 4.02c-.188-.18-.195-.48-.014-.668.18-.188.48-.195.668-.014l.819.784zm2.864 2.747c.189.18.195.48.015.668-.181.188-.48.194-.668.014l-.819-.785c-.188-.18-.195-.48-.014-.668.18-.188.48-.195.668-.014l.818.785zm2.865 2.746c.189.18.195.48.014.668-.18.188-.48.194-.668.014l-.818-.785c-.188-.18-.195-.48-.014-.668.18-.188.48-.194.668-.014l.818.785zm.256 4.152c-.025.26-.256.45-.516.424-.26-.025-.45-.256-.424-.516l.11-1.128c.025-.26.256-.45.516-.425.26.026.45.257.424.516l-.11 1.129zm-.625 4.053c-.104.24-.382.35-.621.246-.24-.104-.35-.382-.246-.622.134-.31.228-.635.278-.971.038-.258.278-.436.537-.398.258.038.436.279.397.537-.062.418-.178.823-.345 1.208zm-3.266 2.79c-.253.063-.51-.09-.574-.343-.063-.253.09-.51.343-.574.327-.082.642-.208.938-.374.227-.127.515-.046.643.181.127.228.046.516-.181.643-.368.207-.76.364-1.17.467zm-4.197.077c-.261-.006-.468-.222-.462-.483.005-.26.221-.468.482-.462l1.134.024c.26.006.467.222.462.483-.006.26-.222.468-.483.462l-1.133-.024zm-3.968-.086c-.26-.006-.468-.222-.462-.482.006-.261.222-.468.482-.463l1.134.025c.26.006.468.222.462.482-.005.261-.221.468-.482.463l-1.134-.025zm-3.967-.085c-.261-.006-.468-.222-.463-.483.006-.26.222-.468.483-.462l1.133.024c.261.006.468.222.463.483-.006.26-.222.468-.483.462l-1.133-.024zm-3.968-.086c-.26-.006-.468-.222-.462-.482.005-.261.221-.468.482-.463l1.134.025c.26.005.468.221.462.482-.006.261-.222.468-.482.462l-1.134-.024zm-3.968-.086c-.26-.005-.467-.221-.462-.482.006-.26.222-.468.483-.462l1.133.024c.261.006.468.222.462.483-.005.26-.221.468-.482.462l-1.134-.025zm-3.967-.085c-.261-.006-.468-.222-.462-.483.005-.26.221-.467.482-.462l1.134.025c.26.005.468.221.462.482-.006.261-.222.468-.483.462l-1.133-.024zm-4.07-.219c-.253-.067-.402-.327-.335-.579.068-.252.327-.401.58-.334.278.075.568.117.865.123l.146.003c.261.006.468.222.462.483-.005.26-.221.467-.482.462l-.146-.003c-.373-.008-.738-.06-1.09-.155zM.147 17.083c-.081-.248.054-.515.302-.596.248-.082.515.053.596.301.105.32.254.623.442.9.146.216.09.51-.126.656-.216.147-.51.09-.656-.125-.237-.35-.425-.732-.558-1.136zm-.086-4.251c.014-.26.236-.46.497-.446.26.014.46.236.446.497l-.06 1.132c-.015.26-.237.46-.498.446-.26-.014-.46-.236-.446-.497l.06-1.132zm.213-3.963c.014-.26.237-.46.497-.446.261.014.46.237.447.497l-.061 1.132c-.014.26-.237.46-.497.447C.4 10.485.2 10.262.214 10L.275 8.87zM.49 4.906c.014-.26.237-.46.497-.446.26.014.46.237.446.497l-.06 1.133c-.015.26-.237.46-.498.446-.26-.014-.46-.237-.446-.497l.06-1.133zm1.834-3.844c.203-.164.5-.131.664.072.164.203.132.5-.072.664-.263.213-.5.458-.702.731-.155.21-.45.254-.66.098-.21-.155-.254-.451-.099-.66.25-.338.543-.642.87-.905zM5.87.483c-.005.232-.176.421-.397.457l-.123.005C5.09.942 4.88.728 4.882.467c.003-.26.217-.47.478-.467h.046c.261.006.468.222.463.483z" transform="translate(172.788333, 71.578778)"/>
                        </g>
                    </g>
                </g>
            </g>
        </g>
    </g>
</svg>
