<?xml version="1.0" encoding="utf-8"?>
<!-- Generator: Adobe Illustrator 24.1.2, SVG Export Plug-In . SVG Version: 6.00 Build 0)  -->
<svg version="1.1" id="Warstwa_3" xmlns="http://www.w3.org/2000/svg" xmlns:xlink="http://www.w3.org/1999/xlink" x="0px" y="0px"
	 viewBox="0 0 430 430" style="enable-background:new 0 0 430 430;" xml:space="preserve">
<style type="text/css">
	.st0{fill:#121331;}
	.st1{fill:#08A789;}
	.st2{fill:none;stroke:#121331;stroke-width:12;stroke-linecap:round;stroke-linejoin:round;stroke-miterlimit:10;}
	.st3{fill:#08A88A;}
</style>
<g>
	<g>
		<path class="st1" d="M339.68,272.16c-1.29,0-2.6-0.42-3.69-1.28c-2.61-2.04-3.07-5.81-1.03-8.42
			c10.03-12.82,15.33-28.22,15.33-44.55s-5.3-31.73-15.33-44.55c-2.04-2.61-1.58-6.38,1.03-8.42c2.61-2.04,6.38-1.58,8.42,1.03
			c11.7,14.95,17.89,32.91,17.89,51.95s-6.18,37-17.89,51.95C343.22,271.36,341.46,272.16,339.68,272.16z"/>
		<path class="st1" d="M376.9,296.27c-1.29,0-2.6-0.42-3.69-1.27c-2.61-2.04-3.07-5.81-1.03-8.42
			c15.46-19.76,23.63-43.51,23.63-68.67s-8.17-48.91-23.63-68.67c-2.04-2.61-1.58-6.38,1.03-8.42c2.61-2.04,6.38-1.58,8.42,1.03
			c17.13,21.89,26.18,48.19,26.18,76.06s-9.05,54.17-26.18,76.06C380.45,295.48,378.68,296.27,376.9,296.27z"/>
	</g>
	<path class="st0" d="M294.76,124.98c-2.51-0.78-5.23,0.16-6.72,2.32c-11.88,17.21-47.89,61.89-71.48,61.89H61.72v-9.37
		c0-3.31-2.69-6-6-6H28.19c-3.31,0-6,2.69-6,6v70.36c0,3.31,2.69,6,6,6h27.53c3.31,0,6-2.69,6-6v-9.37h31.74
		c-6.44,6.83-10.4,16.03-10.4,26.14c0,21.04,17.12,38.16,38.16,38.16h58.63c21.04,0,38.16-17.12,38.16-38.16
		c0-10.11-3.96-19.31-10.4-26.14h8.96c23.49,0,59.56,44.68,71.48,61.9c1.14,1.65,3,2.59,4.93,2.59c0.59,0,1.2-0.09,1.79-0.27
		c2.51-0.78,4.21-3.1,4.21-5.73V130.71C298.98,128.08,297.27,125.76,294.76,124.98z M206,266.95c0,14.42-11.73,26.16-26.16,26.16
		h-58.63c-14.42,0-26.16-11.73-26.16-26.16c0-14.21,11.39-25.8,25.52-26.14h59.9C194.61,241.15,206,252.74,206,266.95z
		 M286.98,281.37c-4.36-5.46-9.8-11.92-15.9-18.42c-21.25-22.65-39.6-34.14-54.51-34.14h-36.08c-0.21,0-0.42-0.02-0.64-0.02h-58.63
		c-0.21,0-0.42,0.01-0.64,0.02H55.72c-3.31,0-6,2.69-6,6v9.37H34.19v-58.36h15.53v9.37c0,3.31,2.69,6,6,6h160.84
		c14.97,0,33.33-11.49,54.56-34.14c6.08-6.49,11.51-12.94,15.85-18.39V281.37z"/>
</g>
</svg>
