<svg xmlns="http://www.w3.org/2000/svg" width="288" height="235" viewBox="0 0 288 235">
    <defs>
        <linearGradient id="cpw8upp7ga" x1=".63%" x2="99.152%" y1="51.874%" y2="48.138%">
            <stop offset="0%" stop-color="#04AE59"/>
            <stop offset="100%" stop-color="#047B35"/>
        </linearGradient>
        <linearGradient id="rgs896ersb" x1="-2.08%" x2="102.036%" y1="52.833%" y2="47.16%">
            <stop offset="0%" stop-color="#E90089"/>
            <stop offset="100%" stop-color="#C4007C"/>
        </linearGradient>
        <linearGradient id="oyzjb1lofc" x1="51.925%" x2="49.794%" y1="-31.552%" y2="58.484%">
            <stop offset="0%" stop-color="#F4901E"/>
            <stop offset="100%" stop-color="#EA5F01"/>
        </linearGradient>
        <linearGradient id="436q18lrwd" x1="50.728%" x2="47.335%" y1="39.366%" y2="81.63%">
            <stop offset="0%" stop-color="#F4901E"/>
            <stop offset="100%" stop-color="#EA5F01"/>
        </linearGradient>
        <linearGradient id="2njyf8hloe" x1=".926%" x2="99.042%" y1="52.673%" y2="47.327%">
            <stop offset="0%" stop-color="#F4901E"/>
            <stop offset="100%" stop-color="#EA5F01"/>
        </linearGradient>
        <linearGradient id="43e4v22fvf" x1="26.42%" x2="56.296%" y1="-17.802%" y2="68.147%">
            <stop offset="0%" stop-color="#EA1D25"/>
            <stop offset="100%" stop-color="#A80000"/>
        </linearGradient>
        <linearGradient id="8cuk77xueg" x1="37.824%" x2="112.325%" y1="37.999%" y2="113.67%">
            <stop offset="0%" stop-color="#EA1D25"/>
            <stop offset="100%" stop-color="#A80000"/>
        </linearGradient>
        <linearGradient id="92pfu4kauh" x1="56.427%" x2="45.377%" y1="17.683%" y2="87.594%">
            <stop offset=".023%" stop-color="#0EB3FF"/>
            <stop offset="100%" stop-color="#0095DA"/>
        </linearGradient>
        <linearGradient id="b7a4bti39i" x1="63.039%" x2="36.673%" y1="8.337%" y2="94.058%">
            <stop offset="0%" stop-color="#74D3FF"/>
            <stop offset="100%" stop-color="#0EB3FF"/>
        </linearGradient>
        <linearGradient id="cqinan82zj" x1="50.732%" x2="47.932%" y1="29.892%" y2="57.744%">
            <stop offset="0%" stop-color="#3EBDFF"/>
            <stop offset="100%" stop-color="#0B75C4"/>
        </linearGradient>
        <linearGradient id="tthv3zomjk" x1="96.167%" x2="-3.059%" y1="48.225%" y2="52.725%">
            <stop offset="0%" stop-color="#EA1D25"/>
            <stop offset="100%" stop-color="#A80000"/>
        </linearGradient>
        <linearGradient id="uoxodqw6nl" x1="51.955%" x2="45.209%" y1="14.193%" y2="99.208%">
            <stop offset=".19%" stop-color="#FDE2C2"/>
            <stop offset="100%" stop-color="#F9B260"/>
        </linearGradient>
        <linearGradient id="jfdhss6lvm" x1="66.604%" x2="34.107%" y1="-109.141%" y2="195.764%">
            <stop offset=".19%" stop-color="#FDE2C2"/>
            <stop offset="100%" stop-color="#F9B260"/>
        </linearGradient>
        <linearGradient id="uf7k07huxn" x1="23.001%" x2="63.944%" y1="74.217%" y2="24.34%">
            <stop offset=".023%" stop-color="#0095DA"/>
            <stop offset="100%" stop-color="#0072A7"/>
        </linearGradient>
        <linearGradient id="k2trjrdkeo" x1="49.359%" x2="53.419%" y1="99.346%" y2=".001%">
            <stop offset=".28%" stop-color="#F37021"/>
            <stop offset="100%" stop-color="#D6580C"/>
        </linearGradient>
        <linearGradient id="n6fzbi9epp" x1="-.002%" x2="100%" y1="49.999%" y2="49.999%">
            <stop offset=".023%" stop-color="#0095DA"/>
            <stop offset="100%" stop-color="#0072A7"/>
        </linearGradient>
        <linearGradient id="abfht33wfq" x1="48.235%" x2="50.589%" y1="66.814%" y2="37.765%">
            <stop offset=".19%" stop-color="#FDE2C2"/>
            <stop offset="100%" stop-color="#F9B260"/>
        </linearGradient>
        <linearGradient id="8g1rlmpevr" x1="0%" x2="100%" y1="50.001%" y2="50.001%">
            <stop offset=".19%" stop-color="#FDE2C2"/>
            <stop offset="100%" stop-color="#F9B260"/>
        </linearGradient>
        <linearGradient id="vgsikfo7ds" x1="55.387%" x2="45.674%" y1="-4.728%" y2="74.8%">
            <stop offset=".19%" stop-color="#FDE2C2"/>
            <stop offset="100%" stop-color="#F9B260"/>
        </linearGradient>
    </defs>
    <g fill="none" fill-rule="evenodd">
        <g>
            <g>
                <g>
                    <path d="M0 0H288V235H0z" opacity=".88" transform="translate(-761.000000, -178.000000) translate(394.000000, 132.000000) translate(367.000000, 46.000000)"/>
                    <g>
                        <path fill="#DAF3FF" fill-rule="nonzero" d="M216.742 63.922c4.548 21.611 1.258 64.192-12.389 80.663-20.143 24.31-68.158 33.118-104.554 33.118-61.053 0-89.99-38.831-89.99-93.517C9.808 29.5 54.692 0 115.744 0c61.053 0 89.123 7.483 100.997 63.922z" transform="translate(-761.000000, -178.000000) translate(394.000000, 132.000000) translate(367.000000, 46.000000) translate(34.515726, 32.366667) translate(0.000000, 0.000000)"/>
                        <path fill="#DAF3FF" fill-rule="nonzero" d="M216.742 63.922c4.548 21.611 1.258 64.192-12.389 80.663-20.143 24.31-68.158 33.118-104.554 33.118-61.053 0-89.99-38.831-89.99-93.517C9.808 29.5 54.692 0 115.744 0c61.053 0 89.123 7.483 100.997 63.922z" transform="translate(-761.000000, -178.000000) translate(394.000000, 132.000000) translate(367.000000, 46.000000) translate(34.515726, 32.366667) translate(0.000000, 0.000000)"/>
                        <g fill-rule="nonzero">
                            <path fill="#41C3FF" d="M12.21 27.482l2.537-13.772c.259-1.403-.67-2.748-2.071-3.007-1.404-.26-2.75.668-3.007 2.071l-1.566 8.499c1.277 2.146 2.643 4.22 4.106 6.21z" transform="translate(-761.000000, -178.000000) translate(394.000000, 132.000000) translate(367.000000, 46.000000) translate(34.515726, 32.366667) translate(0.000000, 0.000000) translate(15.166876, 118.357317)"/>
                            <path fill="#A7E3FF" d="M33.81 0H7.425C4.515 0 1.889 1.197 0 3.12c1.81 5.67 4.082 11.004 6.822 15.96H38.48c3.169 0 5.738-2.57 5.738-5.739V10.41C44.22 4.66 39.558 0 33.81 0z" transform="translate(-761.000000, -178.000000) translate(394.000000, 132.000000) translate(367.000000, 46.000000) translate(34.515726, 32.366667) translate(0.000000, 0.000000) translate(15.166876, 118.357317)"/>
                            <path fill="#41C3FF" d="M2.103 8.995c1.382 3.51 2.947 6.88 4.719 10.084H38.48c3.169 0 5.738-2.57 5.738-5.738v-.176C19.584 15.37 7.755 12.22 2.103 8.995z" transform="translate(-761.000000, -178.000000) translate(394.000000, 132.000000) translate(367.000000, 46.000000) translate(34.515726, 32.366667) translate(0.000000, 0.000000) translate(15.166876, 118.357317)"/>
                        </g>
                        <g transform="translate(-761.000000, -178.000000) translate(394.000000, 132.000000) translate(367.000000, 46.000000) translate(34.515726, 32.366667) translate(0.000000, 0.000000) translate(-0.000000, 47.260984)">
                            <g fill-rule="nonzero">
                                <g>
                                    <path fill="#90BC3F" d="M6.578 1.003C6.243.443 5.566.15 4.905.326c-.66.176-1.097.77-1.109 1.422l-.003.006s-2.526-.773-1.713.46c.547.832 1.486 1.637 2.045 2.106 0 0 2.788-.471 3.532-.945.25-.704.567-1.9.625-2.82.083-1.414-1.568.302-1.704.448M16.526 30.726L10.65 32.37c-1.611.45-3.283-.49-3.734-2.101l-5.136-18.37c-.267-.954-.051-1.977.577-2.742l2.364-2.872c.808-.981 2.142-1.355 3.341-.935l3.511 1.231c.934.327 1.65 1.09 1.916 2.043l5.137 18.37c.451 1.611-.49 3.283-2.101 3.733z" transform="translate(7.011181, 0.000000) translate(11.334960, 0.000000)"/>
                                    <path fill="url(#cpw8upp7ga)" d="M11.956 3.388c-.34-1.339-1.065-2.83-1.065-2.83L7.233 3.403c-.389-.257-.868-.378-1.364-.3-.611.094-1.109.463-1.391.961L0 3.336s-.004 1.828.337 3.166C.686 7.865 1.49 9.176 1.49 9.176l3.415-2.683c.416.356.977.535 1.56.445.732-.114 1.302-.624 1.532-1.275l4.384.736s-.077-1.65-.425-3.01" transform="translate(7.011181, 0.000000) translate(11.334960, 0.000000)"/>
                                </g>
                                <g>
                                    <path fill="url(#rgs896ersb)" d="M18.98 25.823l-17.132-.155C.818 25.659-.01 24.817 0 23.786L.155 6.655c.009-1.03.851-1.857 1.882-1.848l17.13.155c1.031.01 1.858.851 1.849 1.882l-.155 17.131c-.01 1.03-.852 1.857-1.882 1.848z" transform="translate(7.011181, 0.000000) translate(21.418125, 6.578614)"/>
                                    <path fill="url(#oyzjb1lofc)" d="M13.111 25.769L7.716 25.721 7.904 4.859 13.299 4.908z" transform="translate(7.011181, 0.000000) translate(21.418125, 6.578614)"/>
                                    <path fill="url(#436q18lrwd)" d="M18.103 1.124c-.226-.258-.476-.466-.744-.618-2.351-1.335-4.933 1.944-5.79 3.174-.252-.282-.61-.469-1.019-.49-.4-.022-.772.116-1.051.36C8.619 2.206 6.25-.932 3.92.267c-.273.141-.53.34-.768.587-.731.774-.689 1.445-.525 1.872.674 1.752 4.961 2.264 6.433 2.387.183.566.693.99 1.321 1.024.676.04 1.27-.384 1.48-.993l.056-.001c1.364-.053 5.87-.36 6.635-2.13.181-.42.25-1.089-.45-1.89M4.366 2.59c-.266-.128-.303-.512-.196-.732.07-.138.25-.295.388-.354.933-.478 2.288.81 3.243 2.06C6.183 3.32 5.004 2.9 4.366 2.59m12.908-.128c-.26.599-1.895.956-3.924 1.178 1.006-1.209 2.411-2.443 3.325-1.923.48.176.68.553.599.745" transform="translate(7.011181, 0.000000) translate(21.418125, 6.578614)"/>
                                </g>
                                <g>
                                    <path fill="url(#2njyf8hloe)" d="M26.564 22.769L10.58 30.564c-.96.469-2.12.07-2.588-.891L.196 13.689c-.468-.96-.07-2.12.892-2.588l15.984-7.796c.96-.469 2.12-.07 2.588.891l7.796 15.984c.468.96.069 2.12-.892 2.589z" transform="translate(7.011181, 0.000000) translate(0.000000, 10.340202)"/>
                                    <path fill="url(#43e4v22fvf)" d="M21.088 25.439L16.055 27.894 6.562 8.43 11.595 5.975z" transform="translate(7.011181, 0.000000) translate(0.000000, 10.340202)"/>
                                    <path fill="url(#8cuk77xueg)" d="M14.303.233c-.329-.135-.658-.212-.977-.23-2.803-.15-3.681 4.093-3.906 5.632-.366-.144-.785-.153-1.174.016-.381.165-.664.466-.811.821-1.44-.84-5.092-2.656-6.702-.463-.188.258-.335.562-.442.903-.32 1.057.03 1.66.38 1.981C2.11 10.21 6.33 8.697 7.753 8.13c.431.44 1.102.598 1.702.339.646-.277 1.002-.946.914-1.608l.05-.027c1.243-.682 5.286-3.056 5.176-5.053-.024-.475-.27-1.128-1.292-1.548M2.225 7.963c-.307.004-.52-.336-.522-.59 0-.16.095-.39.196-.509.646-.875 2.5-.307 3.966.41-1.616.524-2.905.68-3.64.688m11.929-6.1c.036.676-1.317 1.766-3.099 2.913.375-1.59 1.108-3.387 2.197-3.327.529-.06.888.197.902.413" transform="translate(7.011181, 0.000000) translate(0.000000, 10.340202)"/>
                                </g>
                            </g>
                            <path fill="url(#92pfu4kauh)" fill-rule="nonzero" d="M12.044 24.847s-7.478 6.71-6.794 12.356c.636 5.242 5.713 18.996 5.065 27.783-.123 1.672.661 3.301 2.014 4.29 1.931 1.412 5.012 3.024 5.012 3.024l7.638-2.246-12.935-45.207z"/>
                            <path fill="url(#b7a4bti39i)" fill-rule="nonzero" d="M56.745 68.514c1.842-.47 1.889-12.467 1.862-14.368-.1-7.235-.745-24.856-4.528-34.954-.487-1.302-1.634-2.249-2.995-2.53-14.472-2.993-30.773 3.65-37.452 6.833-1.79.853-2.685 2.86-2.178 4.776 1.338 5.05 8.094 34.79 5.886 44.03 16.195 5.972 39.405-3.787 39.405-3.787z"/>
                            <path fill="#FFF" fill-rule="nonzero" d="M37.862 106.523c-.197.002-.394.005-.59.009-.791-.186-1.199-1.165-.816-1.957 4.166-11.479 4.632-20.147 1.212-25.217-2.818-4.29-7.547-4.616-7.547-4.616-.787.011-1.39-.768-1.401-1.556-.011-.787.767-1.389 1.555-1.4.197-.003 6.304.303 9.93 5.96 4.024 6.044 3.567 15.304-.979 27.772-.19.593-.774.996-1.364 1.005zM56.4 102.74l-.59.01c-.79-.186-1.199-1.165-.816-1.957 4.168-11.282 4.634-19.95 1.215-25.02-2.818-4.291-7.35-4.62-7.548-4.617-.787.012-1.388-.767-1.4-1.555-.012-.787.767-1.389 1.555-1.4.197-.003 6.304.303 9.93 5.96 4.024 6.044 3.567 15.304-.979 27.772-.389.4-.777.8-1.367.808z"/>
                            <path fill="#0095DA" fill-rule="nonzero" d="M54.024 101.79s-1.749 1.6-2.303 4.168c2.612 3.703 9.515 4.588 10.491 3.984 1.172-.608 1.697-5.144-1.066-5.695-2.568-.553-7.122-2.456-7.122-2.456z"/>
                            <path fill="#41C3FF" fill-rule="nonzero" d="M56.804 103.522s1.364-1.004 1.34-2.578c-1.198-1.164-2.972-1.335-2.972-1.335s-1.167 1-1.34 2.578c.413 1.372 2.972 1.335 2.972 1.335z"/>
                            <path fill="#0095DA" fill-rule="nonzero" d="M35.682 105.57s-1.748 1.6-2.303 4.167c2.613 3.702 9.516 4.588 10.492 3.983 1.172-.607 1.697-5.143-1.066-5.694-2.567-.554-7.123-2.457-7.123-2.457z"/>
                            <path fill="#41C3FF" fill-rule="nonzero" d="M38.464 107.3s1.363-1.004 1.34-2.578c-1.198-1.164-2.972-1.335-2.972-1.335s-1.168 1-1.341 2.578c.414 1.373 2.973 1.336 2.973 1.336z"/>
                            <g fill-rule="nonzero" transform="translate(13.376036, 22.324530)">
                                <path fill="url(#cqinan82zj)" d="M40.541 23.286c.677 2.093-5.887 8.287-16.126 9.476-10.239 1.19-10.21-5.4-9.205-7.584 2.072-4.509 9.98-.663 14.424-1.251 3.992-.528 10-3.448 10.907-.641z"/>
                                <path fill="#FFF" d="M29.634 23.927c2.514-.333 5.824-1.61 8.16-1.813.26.723.495 1.777.075 2.644-1.94 1.915-14.972 4.167-19.457 1.754-.508-1.013-.392-2.376-.169-3.444 3.32-.537 8.228 1.278 11.391.859z"/>
                                <circle cx="14.856" cy="14.05" r="5.423" fill="#004F74"/>
                                <circle cx="35.965" cy="11.351" r="2.248" fill="#004F74"/>
                                <circle cx="36.799" cy="11.658" r="1" fill="#FFF"/>
                                <circle cx="16.681" cy="14.599" r="2.471" fill="#FFF"/>
                                <path fill="#FFF" d="M19.92 25.641L1.688 11.171 2.62 9.166 21.695 24.787zM1.357 13.224l17.287 13.273s-6.017 1.997-12.027-1.947c-6.008-3.943-5.26-11.326-5.26-11.326z" opacity=".4"/>
                                <path fill="#004F74" d="M1.972 21.604C-2.033 14.784.257 5.978 7.077 1.973c6.82-4.006 15.626-1.717 19.631 5.103 4.005 6.82 1.716 15.627-5.104 19.632-6.819 4.006-15.626 1.716-19.632-5.104zm2.629-1.543c3.154 5.37 10.09 7.174 15.46 4.02 5.37-3.154 7.174-10.09 4.02-15.46C20.926 3.25 13.99 1.448 8.62 4.6c-5.37 3.154-7.174 10.089-4.02 15.46z"/>
                                <path fill="#004F74" d="M6.442 46.012c.336-.198.598-.523.703-.931l4.724-18.166c.212-.815-.277-1.647-1.091-1.858-.815-.212-1.647.276-1.859 1.09L4.196 44.315c-.212.814.276 1.646 1.09 1.858.408.106.82.038 1.156-.16z"/>
                                <path fill="#860050" d="M6.474 46.648c.422-.248.75-.657.884-1.17l3.22-12.33c.267-1.024-.348-2.07-1.372-2.335-1.024-.265-2.069.348-2.335 1.372l-3.22 12.33c-.267 1.024.348 2.07 1.372 2.335.511.132 1.028.046 1.451-.202z"/>
                                <path fill="#004F74" d="M38.9 6.413c.047-.006.093-.019.138-.04.238-.109.343-.39.235-.627-.027-.06-.662-1.426-1.958-1.762-.792-.203-1.625.012-2.48.647-.647.478-1.254.645-1.81.497-.869-.232-1.451-1.183-1.548-1.407-.104-.24-.381-.355-.627-.245-.24.105-.35.386-.245.627.007.015.716 1.555 2.175 1.943.85.227 1.732.007 2.62-.65.613-.455 1.179-.619 1.67-.492.858.218 1.333 1.226 1.337 1.237.09.191.293.298.493.272zM9.508 8.286c-.073.008-.148.008-.225-.006-.403-.072-.673-.455-.602-.858.017-.1.44-2.42 2.271-3.439 1.118-.619 2.465-.62 4.01.004 1.166.468 2.151.482 2.934.039 1.224-.693 1.732-2.362 1.792-2.738.062-.405.436-.688.852-.617.406.063.683.446.617.852-.004.026-.472 2.635-2.528 3.798-1.198.679-2.62.693-4.223.046-1.107-.448-2.027-.472-2.722-.085-1.212.668-1.534 2.38-1.537 2.397-.06.326-.325.566-.64.607z" opacity=".3"/>
                                <path fill="url(#tthv3zomjk)" d="M24.416 32.762c-2.58.3-4.506.105-5.931-.388.805-1.745 2.713-3.114 5.083-3.417 2.69-.344 5.15.79 6.216 2.661-1.644.519-3.44.92-5.368 1.144z"/>
                            </g>
                            <path stroke="#FFF" stroke-linecap="round" stroke-linejoin="round" stroke-width="3" d="M10.795 47.331S-1.288 55.67.113 61.973c1.4 6.303 19.502-.604 19.502-.604"/>
                            <ellipse cx="20.494" cy="61.157" fill="#FFF" fill-rule="nonzero" rx="5.447" ry="4.242" transform="translate(20.493527, 61.157320) rotate(-10.107549) translate(-20.493527, -61.157320)"/>
                        </g>
                        <g fill-rule="nonzero">
                            <g transform="translate(-761.000000, -178.000000) translate(394.000000, 132.000000) translate(367.000000, 46.000000) translate(34.515726, 32.366667) translate(0.000000, 0.000000) translate(27.389804, 21.439147) translate(28.213048, 0.000000)">
                                <path fill="url(#uoxodqw6nl)" d="M6.772 42.328c.886 11.08 3.377 20.425 9.133 22.544 7.596 2.794 28.164 5.934 30.285-9.165 2.122-15.1 3.672-32.738-2.652-38.298-4.427-3.892-22.385-3.003-32.755 2.947-6.618 3.799-4.356 17.655-4.011 21.972z"/>
                                <ellipse cx="34.451" cy="55.462" fill="#D6580C" rx="2.401" ry="3.825"/>
                                <path fill="#0072A7" d="M43.847 22.428s-.086 10.225 11.117 7.466c11.203-2.759-.935-15.189-5.61-13.317C55.437 12.427 43.162.707 31.088.062 19.015-.583 7.394 3.767 7.316 15.397c-3.007-4.54-6.097 1.724-3.662 5.686-7.094 1.032-2.569 23.728 2.686 23.983 5.255.256-.069-12.78 2.737-18.9 2.808-6.12 18.435-4.643 18.435-4.643s-2.533 4.273 3.015 6.231c5.549 1.958 13.191-2.77 13.32-5.326z"/>
                                <path fill="#004F74" d="M43.539 17.409c-4.427-3.892-22.385-3.003-32.755 2.947-6.619 3.798-4.357 17.655-4.012 21.97.071.892.157 1.786.256 2.677 4.062-.943-.62-13.014 2.05-18.837 2.808-6.12 18.435-4.643 18.435-4.643s-2.533 4.273 3.015 6.231c5.549 1.958 13.191-2.77 13.32-5.326 0 0-.041 5.486 4.343 7.335-.458-5.46-1.823-9.866-4.652-12.354z"/>
                                <path fill="url(#jfdhss6lvm)" d="M14.04 43.811S7.825 33.805 2.227 38.918C-3.37 44.03 6.615 57.824 14.04 43.81z"/>
                                <path fill="#F8A33F" d="M4.973 45.993c-.193-.025-.369-.139-.465-.323-.154-.299-.04-.666.259-.82l2.325-1.211-2.379-1.44c-.288-.173-.379-.546-.205-.834.174-.288.551-.378.835-.206l3.304 1.999c.188.113.3.32.293.54-.007.22-.132.418-.327.52L5.328 45.93c-.113.06-.237.079-.355.064z"/>
                                <g fill="#860050">
                                    <path d="M7.799 17.898C3.426 17.344.025 13.614 0 9.088c-.012-2.384.904-4.63 2.581-6.327C4.26 1.066 6.497.126 8.881.112c2.381-.009 4.631.903 6.328 2.581 1.695 1.677 2.636 3.914 2.648 6.298h.001c.026 4.923-3.957 8.95-8.88 8.976-.4.005-.794-.02-1.18-.069zm2.04-15.904c-.312-.04-.628-.058-.948-.057-1.899.01-3.679.759-5.013 2.107-1.334 1.35-2.063 3.137-2.053 5.035.01 1.898.759 3.678 2.108 5.011 1.35 1.335 3.139 2.06 5.035 2.055 1.897-.011 3.677-.76 5.01-2.108 1.336-1.35 2.065-3.138 2.054-5.036-.01-1.896-.759-3.676-2.107-5.011-1.122-1.109-2.547-1.8-4.086-1.996zM28.558 17.786c-4.372-.554-7.774-4.284-7.798-8.81C20.733 4.057 24.716.029 29.639 0c4.924-.026 8.952 3.957 8.977 8.88.027 4.921-3.958 8.948-8.879 8.976-.399.003-.792-.021-1.179-.07zm2.038-15.904c-.312-.04-.627-.059-.947-.057-3.918.021-7.085 3.225-7.065 7.142.02 3.915 3.204 7.085 7.143 7.067 3.915-.023 7.087-3.226 7.066-7.144-.01-1.898-.76-3.678-2.108-5.011-1.123-1.11-2.549-1.802-4.089-1.997z" transform="translate(14.081618, 28.060453)"/>
                                    <path d="M16.804 6.231l-1.29-1.29c1.138-1.147 4.162-2.645 7.46-.115l-1.11 1.448c-2.784-2.136-4.836-.263-5.06-.043z" transform="translate(14.081618, 28.060453)"/>
                                </g>
                            </g>
                            <g>
                                <g>
                                    <path fill="url(#uf7k07huxn)" d="M5.785 9.482C11.995 6.358 27.192 13.77 36.025 40c-3.072 7.313-22.222 14.447-22.222 14.447s-24.7-36.57-8.018-44.964z" transform="translate(-761.000000, -178.000000) translate(394.000000, 132.000000) translate(367.000000, 46.000000) translate(34.515726, 32.366667) translate(0.000000, 0.000000) translate(27.389804, 21.439147) translate(0.000000, 68.429065) translate(64.205653, 0.000000)"/>
                                    <path fill="#A7E3FF" d="M11.733 51.18s13.577-3.345 23.308-13.957c2.757.168 4.424 5.485 4.528 8.974.121 4.087-17.09 18.252-24.567 13.249-5.478-3.664-3.269-8.266-3.269-8.266z" transform="translate(-761.000000, -178.000000) translate(394.000000, 132.000000) translate(367.000000, 46.000000) translate(34.515726, 32.366667) translate(0.000000, 0.000000) translate(27.389804, 21.439147) translate(0.000000, 68.429065) translate(64.205653, 0.000000)"/>
                                    <path fill="#F8B260" d="M28.918 68.376s13.82 5.55 21.262-1.854C57.622 59.12 41.352 0 41.352 0L31.313 3.906l-2.395 64.47z" transform="translate(-761.000000, -178.000000) translate(394.000000, 132.000000) translate(367.000000, 46.000000) translate(34.515726, 32.366667) translate(0.000000, 0.000000) translate(27.389804, 21.439147) translate(0.000000, 68.429065) translate(64.205653, 0.000000)"/>
                                </g>
                                <path fill="url(#k2trjrdkeo)" d="M96.135 86.637c-.386-14.316-.287-31.93.078-37.76C96.98 36.602 83.939 9.774 76.267 7.28c-7.671-2.494-41.7-3.273-47.235 4.411-7.923 13.214-10.35 38.815-10.12 62.145 13.792 8.96 31.56 13.997 53.497 13.997 7.528 0 15.554-.384 23.726-1.197z" transform="translate(-761.000000, -178.000000) translate(394.000000, 132.000000) translate(367.000000, 46.000000) translate(34.515726, 32.366667) translate(0.000000, 0.000000) translate(27.389804, 21.439147) translate(0.000000, 68.429065)"/>
                                <path fill="#D6580C" d="M53.317 54.65S50.32 74.828 56.9 86.858c5.068.638 10.244.975 15.508.975 4.857 0 9.639-.283 14.33-.828 5.334-9.206 4.78-23.908 2.805-34.47-17.794 4.536-36.227 2.113-36.227 2.113z" transform="translate(-761.000000, -178.000000) translate(394.000000, 132.000000) translate(367.000000, 46.000000) translate(34.515726, 32.366667) translate(0.000000, 0.000000) translate(27.389804, 21.439147) translate(0.000000, 68.429065)"/>
                                <path fill="#FFF" d="M72.749 24.914c8.332-1.658 7.323-9.99 4.827-16.998-.45-.277-.89-.499-1.31-.635-5.226-1.699-22.682-2.6-35.03-.573 2.174 1.786 4.31 3.907 5.591 6.16 3.432 6.039 11.055 15.004 25.922 12.046z" transform="translate(-761.000000, -178.000000) translate(394.000000, 132.000000) translate(367.000000, 46.000000) translate(34.515726, 32.366667) translate(0.000000, 0.000000) translate(27.389804, 21.439147) translate(0.000000, 68.429065)"/>
                                <path fill="url(#n6fzbi9epp)" d="M33.483 15.051c7.31 2.26 13.711 19.733.707 47.28-8.017 3.457-28.651-5.494-28.651-5.494S13.846 8.982 33.483 15.05z" transform="translate(-761.000000, -178.000000) translate(394.000000, 132.000000) translate(367.000000, 46.000000) translate(34.515726, 32.366667) translate(0.000000, 0.000000) translate(27.389804, 21.439147) translate(0.000000, 68.429065)"/>
                                <path fill="url(#abfht33wfq)" d="M71.449 23.015c7.75-1.543 5.612-10.151 3.048-16.187-6.25-1.301-20.157-1.88-31.097-.437 2.412 1.696 5.358 4.132 6.862 6.779 2.805 4.934 9.036 12.263 21.187 9.845z" transform="translate(-761.000000, -178.000000) translate(394.000000, 132.000000) translate(367.000000, 46.000000) translate(34.515726, 32.366667) translate(0.000000, 0.000000) translate(27.389804, 21.439147) translate(0.000000, 68.429065)"/>
                                <path fill="#004F74" d="M87.013 63.182h-8.42c-2.983 0-5.216-2.42-4.987-5.402l1.543-20.097c.23-2.983 2.834-5.402 5.818-5.402h8.42c2.983 0 5.216 2.42 4.987 5.402L92.831 57.78c-.23 2.984-2.834 5.402-5.818 5.402z" transform="translate(-761.000000, -178.000000) translate(394.000000, 132.000000) translate(367.000000, 46.000000) translate(34.515726, 32.366667) translate(0.000000, 0.000000) translate(27.389804, 21.439147) translate(0.000000, 68.429065)"/>
                                <path fill="url(#8g1rlmpevr)" d="M4.993 62.024C2.146 68.562-1.72 79.399.834 85.36c0 0 3.717 8.79 18.794 5.305 15.077-3.484 54.418-18.598 54.418-18.598s9.462-.423 12.376-1.76c2.914-1.335 11.872-10.623 11.308-13.172-.565-2.55-2.203-7.648-4.389-7.284-2.184.364-14.888 7.466-14.888 7.466s4.327-4.953 3.598-7.484c-.728-2.531-6.362 1.657-8.006 4.207-1.646 2.55-6.016 6.994-6.016 6.994l-41.503 9.232c1.735-3.753-.268-8.17-4.233-9.34l-9.171-2.702c-3.283-.968-6.762.663-8.129 3.8z" transform="translate(-761.000000, -178.000000) translate(394.000000, 132.000000) translate(367.000000, 46.000000) translate(34.515726, 32.366667) translate(0.000000, 0.000000) translate(27.389804, 21.439147) translate(0.000000, 68.429065)"/>
                                <path fill="#A7E3FF" d="M6.389 52.667s13.322 7.704 29.137 6.71c2.06 2.237-.675 7.727-3.255 10.574-3.022 3.335-27.482 1.44-29.597-8.233-1.548-7.086 3.715-9.051 3.715-9.051z" transform="translate(-761.000000, -178.000000) translate(394.000000, 132.000000) translate(367.000000, 46.000000) translate(34.515726, 32.366667) translate(0.000000, 0.000000) translate(27.389804, 21.439147) translate(0.000000, 68.429065)"/>
                                <path fill="#0072A7" d="M85.622 47.914c-1.202-.015-2.1-1.116-2.005-2.457l.379-5.363c.095-1.342 1.145-2.417 2.347-2.4 1.202.015 2.1 1.115 2.005 2.457l-.379 5.363c-.094 1.342-1.145 2.416-2.347 2.4z" transform="translate(-761.000000, -178.000000) translate(394.000000, 132.000000) translate(367.000000, 46.000000) translate(34.515726, 32.366667) translate(0.000000, 0.000000) translate(27.389804, 21.439147) translate(0.000000, 68.429065)"/>
                            </g>
                            <g>
                                <g fill="#FFF" opacity=".4">
                                    <path d="M10.235.041c-.777.17-1.554.42-2.318.767C1.59 3.672-1.598 11.683.795 18.7c1.022 2.995 2.898 5.317 5.202 6.781L10.235.042zM14.631 0l-5.28 26.924c1.429.35 2.927.402 4.43.145L17.157.809C16.348.435 15.5.168 14.63 0z" transform="translate(-761.000000, -178.000000) translate(394.000000, 132.000000) translate(367.000000, 46.000000) translate(34.515726, 32.366667) translate(0.000000, 0.000000) translate(27.389804, 21.439147) translate(75.671824, 20.699348) translate(1.668093, 2.272888)"/>
                                </g>
                                <path fill="#004F74" d="M1.781 23.69c-.318-.642-.6-1.318-.842-2.026-1.352-3.965-1.24-8.302.315-12.21 1.517-3.812 4.24-6.767 7.667-8.32 7.156-3.24 15.216.7 17.974 8.774 2.755 8.08-.826 17.29-7.982 20.53C12.384 33.393 5.1 30.376 1.78 23.69zM23.253 9.86c-2.452-4.94-7.99-7.105-13.005-4.834-2.692 1.219-4.822 3.513-5.994 6.46-1.135 2.85-1.23 5.975-.267 8.797 2.023 5.93 8.123 8.743 13.598 6.264 5.475-2.48 8.284-9.324 6.261-15.258-.169-.499-.368-.976-.593-1.43z" transform="translate(-761.000000, -178.000000) translate(394.000000, 132.000000) translate(367.000000, 46.000000) translate(34.515726, 32.366667) translate(0.000000, 0.000000) translate(27.389804, 21.439147) translate(75.671824, 20.699348)"/>
                                <path fill="#004F74" d="M14.645 45.831c-.124-.251-.21-.535-.246-.839l-1.773-15.349c-.132-1.137.498-2.127 1.407-2.211.91-.085 1.75.769 1.884 1.905l1.773 15.35c.132 1.137-.498 2.127-1.408 2.211-.666.062-1.296-.38-1.637-1.067z" transform="translate(-761.000000, -178.000000) translate(394.000000, 132.000000) translate(367.000000, 46.000000) translate(34.515726, 32.366667) translate(0.000000, 0.000000) translate(27.389804, 21.439147) translate(75.671824, 20.699348)"/>
                                <path fill="#860050" d="M14.085 46.227c-.174-.351-.295-.748-.344-1.174l-.886-7.675c-.184-1.592.698-2.978 1.97-3.096 1.272-.117 2.451 1.08 2.637 2.669l.886 7.675c.184 1.591-.698 2.978-1.97 3.096-.933.086-1.815-.532-2.293-1.495z" transform="translate(-761.000000, -178.000000) translate(394.000000, 132.000000) translate(367.000000, 46.000000) translate(34.515726, 32.366667) translate(0.000000, 0.000000) translate(27.389804, 21.439147) translate(75.671824, 20.699348)"/>
                            </g>
                            <path fill="url(#vgsikfo7ds)" d="M105.579 70.038s1.939-7.896-8.914-13.443c-10.942-5.592-19.529-.235-6.148 17.016 5.643 7.077 12.044 5.557 15.062-3.573z" transform="translate(-761.000000, -178.000000) translate(394.000000, 132.000000) translate(367.000000, 46.000000) translate(34.515726, 32.366667) translate(0.000000, 0.000000) translate(27.389804, 21.439147)"/>
                        </g>
                        <path fill="#FFF" fill-rule="nonzero" d="M68.216 94.92c-2.59-2.231-6.423-2.283-9.278-.404-2.253 1.483-4.006 3.585-1.414 5.87 4.2 3.703 16.332-.608 10.692-5.466z" transform="translate(-761.000000, -178.000000) translate(394.000000, 132.000000) translate(367.000000, 46.000000) translate(34.515726, 32.366667) translate(0.000000, 0.000000)"/>
                        <path fill="#A7E3FF" fill-rule="nonzero" d="M140.478 174.193c2.046-.358 4.085-.747 6.113-1.166V1.052c-1.987-.171-4.027-.315-6.113-.44v173.581z" transform="translate(-761.000000, -178.000000) translate(394.000000, 132.000000) translate(367.000000, 46.000000) translate(34.515726, 32.366667) translate(0.000000, 0.000000)"/>
                        <path fill="#41C3FF" fill-rule="nonzero" d="M143.724 86.656l74.853 4.14c.181-5.72.054-11.247-.364-16.279-8.465-2.11-16.006-3.886-16.006-3.886l-58.483 16.025z" transform="translate(-761.000000, -178.000000) translate(394.000000, 132.000000) translate(367.000000, 46.000000) translate(34.515726, 32.366667) translate(0.000000, 0.000000)"/>
                        <g fill-rule="nonzero">
                            <path fill="#0095DA" d="M61.064 31.86c-.331-1.578-.678-3.113-1.036-4.616l-20.305-1.078c-3.69-.196-6.648 2.99-6.607 7.119l.12 12.092c.041 4.127 3.065 7.63 6.755 7.827l8.76.465 2.834 3.67c3.608-1.823 7.603-3.144 11.392-4.599-.05-7.854-.7-15.116-1.913-20.88z" transform="translate(-761.000000, -178.000000) translate(394.000000, 132.000000) translate(367.000000, 46.000000) translate(34.515726, 32.366667) translate(0.000000, 0.000000) translate(155.678016, 32.061516)"/>
                            <path fill="#41C3FF" d="M39.982 7.12l-1.043-3.627C38.36 1.48 36.61.122 34.567.104L22.442 0c-2.043-.018-3.932 1.31-4.716 3.311l-2.404 6.135c-.21.537-.332 1.104-.362 1.675l-1.384 27.003c-.143 2.776 1.9 5.045 4.562 5.068l36.308.31c2.662.023 4.935-2.209 5.077-4.985l1.171-22.84c.142-2.775-1.9-5.044-4.563-5.067l-11.779-.102c-2.04-.017-3.792-1.374-4.37-3.387z" transform="translate(-761.000000, -178.000000) translate(394.000000, 132.000000) translate(367.000000, 46.000000) translate(34.515726, 32.366667) translate(0.000000, 0.000000) translate(155.678016, 32.061516)"/>
                            <path fill="#A7E3FF" d="M35.961 7.818L34.918 4.19C34.34 2.177 32.588.82 30.546.802L18.421.698c-2.043-.018-3.931 1.31-4.716 3.31l-2.404 6.136c-.21.536-.332 1.103-.362 1.675L9.555 38.82c-.142 2.776 1.9 5.045 4.563 5.068l36.307.311c2.662.022 4.935-2.21 5.078-4.985l1.17-22.84c.142-2.776-1.9-5.045-4.563-5.068l-11.778-.101c-2.04-.017-3.792-1.375-4.37-3.388z" transform="translate(-761.000000, -178.000000) translate(394.000000, 132.000000) translate(367.000000, 46.000000) translate(34.515726, 32.366667) translate(0.000000, 0.000000) translate(155.678016, 32.061516)"/>
                            <path fill="#FFF" d="M30.863 9.197L29.82 5.57c-.579-2.013-2.33-3.37-4.372-3.388l-12.125-.104c-2.042-.018-3.932 1.31-4.716 3.31l-2.404 6.136c-.21.536-.333 1.103-.362 1.675L4.456 40.2c-.142 2.776 1.9 5.045 4.563 5.068l36.307.311c2.663.022 4.936-2.21 5.078-4.985l1.17-22.84c.143-2.776-1.9-5.045-4.562-5.068l-11.779-.1c-2.04-.018-3.792-1.375-4.37-3.389z" transform="translate(-761.000000, -178.000000) translate(394.000000, 132.000000) translate(367.000000, 46.000000) translate(34.515726, 32.366667) translate(0.000000, 0.000000) translate(155.678016, 32.061516)"/>
                            <path fill="#0095DA" d="M61.238 32.755l-14.709.834s9.194 14.848 9.783 14.866c.207.006 2.564-.47 5.521-1.09.33-.4.64-.802.956-1.204-.26-4.936-.784-9.483-1.551-13.406z" transform="translate(-761.000000, -178.000000) translate(394.000000, 132.000000) translate(367.000000, 46.000000) translate(34.515726, 32.366667) translate(0.000000, 0.000000) translate(155.678016, 32.061516)"/>
                            <path fill="#41C3FF" d="M46.63 29.324l-3.239-.172c-1.12-.06-2.14.59-2.636 1.682l-.996 2.194c-.696 1.535-2.13 2.449-3.705 2.366l-18.289-.972c-1.575-.083-3.027-1.15-3.756-2.76l-1.04-2.302c-.518-1.146-1.551-1.904-2.672-1.964l-3.238-.172C3.117 27.014-.043 30.419 0 34.829l.13 12.92c.043 4.408 3.275 8.153 7.216 8.362l36.172 1.92c9.487.327 9.917-.455 10.454-7.424l-.128-12.92c-.042-4.41-3.274-8.154-7.215-8.363z" transform="translate(-761.000000, -178.000000) translate(394.000000, 132.000000) translate(367.000000, 46.000000) translate(34.515726, 32.366667) translate(0.000000, 0.000000) translate(155.678016, 32.061516)"/>
                            <path fill="#0095DA" d="M35.954 46.013L15.17 44.902c-1.561-.083-2.765-1.42-2.688-2.986.077-1.566 1.406-2.768 2.967-2.684l20.784 1.112c1.561.083 2.765 1.42 2.688 2.986-.077 1.565-1.406 2.767-2.967 2.683z" transform="translate(-761.000000, -178.000000) translate(394.000000, 132.000000) translate(367.000000, 46.000000) translate(34.515726, 32.366667) translate(0.000000, 0.000000) translate(155.678016, 32.061516)"/>
                        </g>
                        <path fill="#41C3FF" fill-rule="nonzero" d="M204.252 141.15l-58.483 16.026 39.986 2.211c7.419-4.12 13.804-9.018 18.598-14.803.738-.89 1.44-1.871 2.117-2.906l-2.218-.527z" transform="translate(-761.000000, -178.000000) translate(394.000000, 132.000000) translate(367.000000, 46.000000) translate(34.515726, 32.366667) translate(0.000000, 0.000000)"/>
                        <path fill="#A7E3FF" fill-rule="nonzero" d="M143.724 157.008l-.19 6.516 30.532 1.403c4.143-1.674 8.088-3.535 11.777-5.589l-42.12-2.33z" transform="translate(-761.000000, -178.000000) translate(394.000000, 132.000000) translate(367.000000, 46.000000) translate(34.515726, 32.366667) translate(0.000000, 0.000000)"/>
                        <g fill-rule="nonzero">
                            <path fill="#41C3FF" d="M60.047 28.314l.647-12.636c.142-2.776-1.9-5.045-4.563-5.068l-11.779-.1c-2.041-.019-3.793-1.376-4.372-3.39l-1.043-3.627C38.36 1.48 36.607.122 34.565.104L22.44 0c-2.042-.018-3.931 1.309-4.716 3.311L15.32 9.446c-.21.537-.332 1.104-.362 1.674l-1.384 27.003c-.142 2.776 1.9 5.045 4.563 5.067l34.211.293c3.105-3.884 5.66-9.13 7.699-15.169z" transform="translate(-761.000000, -178.000000) translate(394.000000, 132.000000) translate(367.000000, 46.000000) translate(34.515726, 32.366667) translate(0.000000, 0.000000) translate(152.320780, 100.687208)"/>
                            <path fill="#A7E3FF" d="M56.674 16.375c.142-2.776-1.9-5.045-4.563-5.067l-11.779-.101c-2.042-.018-3.793-1.376-4.372-3.389L34.917 4.19C34.34 2.177 32.587.82 30.545.802L18.42.698c-2.043-.018-3.931 1.308-4.716 3.31L11.3 10.145c-.21.536-.332 1.103-.362 1.675L9.554 38.82c-.142 2.776 1.9 5.045 4.563 5.068l36.307.31c.554.004 1.085-.108 1.59-.284l.017-.02c1.252-1.512 2.415-3.247 3.496-5.162l1.147-22.358z" transform="translate(-761.000000, -178.000000) translate(394.000000, 132.000000) translate(367.000000, 46.000000) translate(34.515726, 32.366667) translate(0.000000, 0.000000) translate(152.320780, 100.687208)"/>
                            <path fill="#FFF" d="M30.863 9.197L29.82 5.57c-.579-2.013-2.33-3.37-4.372-3.388l-12.125-.104c-2.043-.018-3.932 1.31-4.716 3.31l-2.404 6.136c-.21.536-.333 1.103-.362 1.675L4.456 40.2c-.142 2.776 1.9 5.045 4.563 5.068l36.307.311c2.663.022 4.936-2.21 5.078-4.985l1.17-22.84c.143-2.776-1.9-5.045-4.562-5.068l-11.779-.1c-2.04-.018-3.793-1.375-4.37-3.389z" transform="translate(-761.000000, -178.000000) translate(394.000000, 132.000000) translate(367.000000, 46.000000) translate(34.515726, 32.366667) translate(0.000000, 0.000000) translate(152.320780, 100.687208)"/>
                            <path fill="#0095DA" d="M58.324 32.92l-11.795.669s3.29 5.313 6.06 9.587c2.183-2.81 4.091-6.292 5.735-10.255z" transform="translate(-761.000000, -178.000000) translate(394.000000, 132.000000) translate(367.000000, 46.000000) translate(34.515726, 32.366667) translate(0.000000, 0.000000) translate(152.320780, 100.687208)"/>
                            <path fill="#41C3FF" d="M53.845 37.687c-.043-4.41-3.275-8.154-7.216-8.363l-3.238-.172c-1.12-.06-2.14.59-2.636 1.682l-.996 2.194c-.696 1.535-2.13 2.449-3.705 2.366l-18.289-.972c-1.575-.083-3.027-1.15-3.756-2.76l-1.04-2.302c-.518-1.146-1.551-1.904-2.672-1.964l-3.238-.172C3.117 27.014-.043 30.419 0 34.829l.13 12.92c.043 4.408 3.275 8.153 7.216 8.362L35.382 57.6c6.592-3.884 12.28-8.426 16.65-13.701.642-.775 1.253-1.625 1.85-2.51l-.037-3.701z" transform="translate(-761.000000, -178.000000) translate(394.000000, 132.000000) translate(367.000000, 46.000000) translate(34.515726, 32.366667) translate(0.000000, 0.000000) translate(152.320780, 100.687208)"/>
                            <path fill="#0095DA" d="M35.954 46.013L15.17 44.902c-1.561-.083-2.765-1.42-2.688-2.986.077-1.566 1.406-2.768 2.967-2.684l20.784 1.112c1.561.083 2.765 1.42 2.688 2.986-.078 1.566-1.406 2.767-2.967 2.683z" transform="translate(-761.000000, -178.000000) translate(394.000000, 132.000000) translate(367.000000, 46.000000) translate(34.515726, 32.366667) translate(0.000000, 0.000000) translate(152.320780, 100.687208)"/>
                        </g>
                        <path fill="#A7E3FF" fill-rule="nonzero" d="M218.577 90.797l-74.853-4.141-.19 6.516 74.757 3.433c.13-1.95.226-3.888.286-5.808z" transform="translate(-761.000000, -178.000000) translate(394.000000, 132.000000) translate(367.000000, 46.000000) translate(34.515726, 32.366667) translate(0.000000, 0.000000)"/>
                    </g>
                </g>
            </g>
        </g>
    </g>
</svg>
