<svg xmlns="http://www.w3.org/2000/svg" width="342" height="279" viewBox="0 0 342 279">
    <defs>
        <linearGradient id="idqxr2n2wa" x1="7.72%" x2="45.985%" y1="34.213%" y2="48.502%">
            <stop offset="0%" stop-color="#43D1FF"/>
            <stop offset="100%" stop-color="#3EBDFF"/>
        </linearGradient>
        <linearGradient id="tngye9jzlb" x1=".929%" x2="44.748%" y1="16.593%" y2="46.424%">
            <stop offset="0%" stop-color="#43D1FF"/>
            <stop offset="100%" stop-color="#3EBDFF"/>
        </linearGradient>
        <linearGradient id="3t6gdlo3yc" x1="-1.637%" x2="100.484%" y1="48.09%" y2="51.846%">
            <stop offset="0%" stop-color="#04AE59"/>
            <stop offset="100%" stop-color="#047B35"/>
        </linearGradient>
        <linearGradient id="dvzbyy0jld" x1="1.732%" x2="97.033%" y1="47.23%" y2="52.746%">
            <stop offset="0%" stop-color="#E90089"/>
            <stop offset="100%" stop-color="#C4007C"/>
        </linearGradient>
        <linearGradient id="zopazmzs3e" x1="55.842%" x2="49.239%" y1="-28.837%" y2="58.259%">
            <stop offset="0%" stop-color="#F4901E"/>
            <stop offset="100%" stop-color="#EA5F01"/>
        </linearGradient>
        <linearGradient id="748mhktmxf" x1="54.961%" x2="31.453%" y1="38.639%" y2="87.328%">
            <stop offset="0%" stop-color="#F4901E"/>
            <stop offset="100%" stop-color="#EA5F01"/>
        </linearGradient>
        <linearGradient id="xlxo0tpv1g" x1="-1.127%" x2="100.913%" y1="47.033%" y2="52.945%">
            <stop offset="0%" stop-color="#F4901E"/>
            <stop offset="100%" stop-color="#EA5F01"/>
        </linearGradient>
        <linearGradient id="mt0wewvbkh" x1="34.643%" x2="54.156%" y1="-20.186%" y2="68.91%">
            <stop offset="0%" stop-color="#EA1D25"/>
            <stop offset="100%" stop-color="#A80000"/>
        </linearGradient>
        <linearGradient id="zho7qxywai" x1="42.283%" x2="90.216%" y1="40.56%" y2="103.728%">
            <stop offset="0%" stop-color="#EA1D25"/>
            <stop offset="100%" stop-color="#A80000"/>
        </linearGradient>
        <linearGradient id="5lm1lid88j" x1="39.63%" x2="54.445%" y1="18.862%" y2="97.399%">
            <stop offset=".023%" stop-color="#0EB3FF"/>
            <stop offset="100%" stop-color="#0095DA"/>
        </linearGradient>
        <linearGradient id="kc6h3uckyk" x1="45.768%" x2="61.704%" y1="-1.082%" y2="100.664%">
            <stop offset="0%" stop-color="#74D3FF"/>
            <stop offset="100%" stop-color="#0EB3FF"/>
        </linearGradient>
        <linearGradient id="su2294khyl" x1="48.34%" x2="50.354%" y1="38.229%" y2="58.21%">
            <stop offset=".023%" stop-color="#0095DA"/>
            <stop offset="100%" stop-color="#0072A7"/>
        </linearGradient>
        <linearGradient id="0vwob8h56m" x1="68.541%" x2="39.672%" y1="41.196%" y2="63.278%">
            <stop offset="0%" stop-color="#EA1D25"/>
            <stop offset="100%" stop-color="#A80000"/>
        </linearGradient>
    </defs>
    <g fill="none" fill-rule="evenodd">
        <g>
            <g>
                <path d="M0 0H342V279H0z" opacity=".88" transform="translate(-549 -82) translate(549 82)"/>
                <g fill-rule="nonzero">
                    <path fill="#DAF3FF" d="M31.323 219.396h243.861c16.624-11.57 31.17-26.554 37.403-45.839 2.375-7.417 3.265-15.725.742-23.142-4.602-13.944-19.147-21.51-31.912-28.779-12.913-7.268-25.232-15.576-36.809-24.625-5.492-4.302-10.983-9.049-14.99-14.835-6.976-10.235-8.609-23.141-12.32-35.009-6.678-20.47-21.67-39.311-42.45-45.245-20.63-5.935-46.308 4.747-52.393 25.366-2.82 9.791-1.781 21.065-8.163 29.076-7.569 9.346-21.818 9.197-33.396 6.38-11.578-2.818-23.748-7.269-35.325-3.858-2.82.89-5.64 2.226-7.272 4.748-4.156 6.231 1.336 14.39 1.485 21.806.148 8.9-7.57 15.873-15.14 20.471-7.569 4.6-16.178 8.9-20.482 16.615-5.492 9.94-2.078 22.252 2.672 32.489 4.75 10.235 10.835 20.619 10.39 31.894-.149 6.825-2.672 13.5-1.93 20.176 1.038 6.675 7.122 12.756 16.029 12.311z" transform="translate(-549 -82) translate(549 82) translate(12.563 26.56)"/>
                    <g>
                        <g>
                            <path fill="#C1EBFF" d="M76.292 109.914H14.547c-7.57 0-13.804-6.232-13.804-13.797v-81.59C.743 6.962 6.978.731 14.547.731H76.29c7.57 0 13.803 6.231 13.803 13.796v81.59c.002 7.715-6.233 13.797-13.802 13.797z" transform="translate(-549 -82) translate(549 82) translate(12.563 26.56) translate(33.25 30.859) translate(0 13.056)"/>
                            <path fill="#A7E3FF" d="M76.292 60.07H14.547C6.977 60.07.743 66.3.743 73.866v22.251c0 7.565 6.235 13.797 13.804 13.797H76.29c7.57 0 13.803-6.232 13.803-13.797V73.866c.002-7.713-6.233-13.796-13.802-13.796z" transform="translate(-549 -82) translate(549 82) translate(12.563 26.56) translate(33.25 30.859) translate(0 13.056)"/>
                            <path fill="#41C3FF" d="M46.013 70.75H18.11c-1.484 0-2.672-1.186-2.672-2.67s1.188-2.67 2.672-2.67h27.904c1.485 0 2.672 1.186 2.672 2.67s-1.187 2.67-2.672 2.67zM48.834 102.052H19c-1.93 0-3.563-1.632-3.563-3.56v-4.303c0-1.929 1.633-3.56 3.563-3.56h29.834c1.93 0 3.562 1.631 3.562 3.56v4.302c-.148 1.929-1.633 3.56-3.562 3.56z" transform="translate(-549 -82) translate(549 82) translate(12.563 26.56) translate(33.25 30.859) translate(0 13.056)"/>
                            <path fill="#FFF" d="M39.632 80.986H18.109c-1.484 0-2.672-1.187-2.672-2.67 0-1.484 1.188-2.67 2.672-2.67H39.63c1.485 0 2.672 1.186 2.672 2.67s-1.187 2.67-2.67 2.67zM58.48 80.986h-8.162c-1.484 0-2.672-1.187-2.672-2.67 0-1.484 1.188-2.67 2.672-2.67h8.163c1.484 0 2.672 1.186 2.672 2.67s-1.188 2.67-2.672 2.67z" transform="translate(-549 -82) translate(549 82) translate(12.563 26.56) translate(33.25 30.859) translate(0 13.056)"/>
                        </g>
                        <path fill="#A7E3FF" d="M205.866 188.836H84.455V19.424c0-10.235 8.311-18.395 18.405-18.395h84.305c10.241 0 18.406 8.307 18.406 18.395v169.412h.295z" transform="translate(-549 -82) translate(549 82) translate(12.563 26.56) translate(33.25 30.859)"/>
                        <path fill="#4CD3FF" d="M205.866 62.89c-.742-.445-1.484-.742-2.226-.89-1.633-.149-3.118.296-4.453 1.187l-5.79 4.599c-1.187 1.038-2.078 2.522-2.226 4.154-.149 1.038 0 2.077.297 2.967-.594.445-1.336.89-1.93 1.187-1.633-2.226-4.453-3.116-6.975-1.929l-6.828 2.967c-1.485.594-2.672 1.78-3.266 3.412-.445 1.187-.594 2.523-.297 3.858-.594.148-1.039.445-1.633.593-1.187-2.67-4.008-4.154-6.827-3.56l-7.123 1.78c-1.485.445-2.82 1.335-3.711 2.819-.446.742-.743 1.632-.891 2.67-4.75.445-9.647.445-14.546 0-.445-2.374-2.078-4.45-4.453-5.044l-7.124-1.78c-1.484-.445-3.117-.149-4.453.741-.89.594-1.633 1.336-2.078 2.374-.594-.148-1.187-.445-1.781-.593.445-2.819-.89-5.638-3.563-6.676l-6.827-2.968c-1.484-.593-3.117-.593-4.601 0-.89.297-1.485.89-2.078 1.632-.743-.445-1.336-.89-2.078-1.335.593-2.374-.149-4.896-2.079-6.528l-5.789-4.599c-1.78-1.483-4.156-1.632-6.086-.741v4.154c0-.149.149-.297.149-.297.594-.742 1.484-1.187 2.226-1.187.594 0 1.188.148 1.782.593l5.789 4.6c.593.445 1.039 1.186 1.039 2.077-.89-.742-1.93-1.336-2.82-2.077-.743-.594-1.633-.446-2.227.296-.445.742-.445 1.632.297 2.226 1.039.89 2.226 1.632 3.265 2.373-.296.149-.742.297-1.039.445-.742.149-1.484-.148-2.078-.593l-5.789-4.6c-.297-.296-.594-.593-.742-.89v4.303l4.602 3.71c1.039.89 2.375 1.334 3.562 1.334h.742c1.336-.148 2.524-.741 3.414-1.78.742.445 1.485.89 2.227 1.484-.297 1.186-.149 2.522.297 3.709.593 1.483 1.781 2.67 3.265 3.412l6.827 2.967c.742.297 1.485.445 2.227.445.742 0 1.484-.148 2.226-.445.891-.445 1.633-1.039 2.227-1.78.742.296 1.633.593 2.375.741 0 1.039.297 2.077.89 2.968.891 1.335 2.079 2.373 3.712 2.818l7.123 1.78c.446.15.891.15 1.336.15 1.04 0 2.227-.298 3.118-.891 1.187-.742 1.93-1.78 2.374-3.116 2.672.297 5.196.297 7.867.297 2.523 0 4.898-.148 7.42-.297.89 2.226 3.117 3.71 5.492 3.71.446 0 .891 0 1.336-.149l7.124-1.78c2.524-.594 4.305-2.82 4.453-5.341l2.672-.89c1.188 1.187 2.672 1.78 4.305 1.78.742 0 1.484-.148 2.226-.445l6.827-2.967c1.485-.594 2.672-1.78 3.266-3.413.445-1.038.445-2.077.445-3.115.89-.593 1.781-1.039 2.524-1.632 1.039.89 2.375 1.335 3.71 1.335 1.337 0 2.524-.445 3.563-1.335l5.195-4.154V62.891h.594v-.001zm-94.398 18.839c-.742-.297-1.633 0-2.078.89-.297.742 0 1.78.89 2.077.891.445 1.782.742 2.673 1.039h-.149c-.742.296-1.484.296-2.226 0l-6.827-2.968c-.89-.445-1.633-1.335-1.782-2.225.743.445 1.336.742 2.079 1.187.296.148.445.148.742.148.593 0 1.039-.296 1.336-.89.445-.742.148-1.78-.743-2.077-.742-.445-1.484-.742-2.226-1.187.148-.148.297-.296.445-.296.297-.149.742-.297 1.04-.297.445 0 .742.148 1.038.297l6.827 2.967c1.04.445 1.782 1.483 1.782 2.67-.743-.445-1.782-.89-2.82-1.335zm20.632 9.198c.594.149 1.336.149 1.93.297-.149.297-.446.445-.743.742-.593.445-1.484.593-2.226.296l-7.124-1.78c-.742-.148-1.336-.593-1.781-1.335-.149-.148-.149-.297-.149-.445.446.148.89.297 1.188.297h.445c.742 0 1.336-.446 1.484-1.187.149-.89-.296-1.78-1.187-1.929-.445-.148-1.04-.297-1.484-.445l.593-.594c.446-.296 1.04-.445 1.485-.445.148 0 .445 0 .593.149l7.124 1.78c.89.148 1.485.742 1.93 1.484-.594-.149-1.188-.149-1.781-.297-.89-.148-1.633.445-1.781 1.335 0 1.187.593 1.929 1.484 2.077zm32.059-2.67c.148.742.742 1.187 1.484 1.187h.297c.445-.149.89-.297 1.336-.297-.445.593-1.04 1.038-1.633 1.187l-7.124 1.78c-1.039.297-1.93-.148-2.672-.742.297 0 .594 0 1.04-.148.89-.148 1.484-.89 1.335-1.78-.148-.89-.89-1.484-1.78-1.336-.446 0-.891.149-1.337.149 0-.149.149-.445.297-.594.446-.741 1.04-1.187 1.781-1.335l7.124-1.78c1.188-.297 2.375.296 3.117 1.335-.742.148-1.484.445-2.078.593-.89 0-1.336.89-1.187 1.78zm21.67-5.638l-6.828 2.967c-.445.297-1.039.297-1.632.149.742-.297 1.187-1.187.89-2.077-.297-.89-1.187-1.187-1.93-.89-.445.148-.89.296-1.187.445 0-.446 0-1.039.148-1.484.297-.742.891-1.335 1.485-1.632l6.827-2.967c.297-.149.742-.297 1.039-.297.742 0 1.484.297 2.078.89-.89.445-1.633.89-2.523 1.336-.743.445-1.04 1.335-.743 2.077.297.593.743.89 1.336.89.297 0 .446 0 .742-.149l1.782-.89c-.296.742-.741 1.335-1.483 1.632zm18.701-12.164l-5.789 4.599c-.742.593-1.781.742-2.672.445.89-.593 1.93-1.335 2.82-2.077.743-.593.891-1.484.297-2.225-.445-.742-1.484-.89-2.226-.297-.89.742-1.93 1.484-2.82 2.077v-.742c.148-.742.445-1.483 1.039-1.928l5.789-4.6c1.187-1.038 3.117-.741 4.008.594 1.039 1.335.742 3.264-.446 4.154z" opacity=".3" transform="translate(-549 -82) translate(549 82) translate(12.563 26.56) translate(33.25 30.859)"/>
                        <g fill="#41C3FF">
                            <path d="M41.552 4.736H2.665c-1.188 0-2.078-.89-2.078-2.077 0-1.187.89-2.077 2.078-2.077h38.887c1.187 0 2.078.89 2.078 2.077 0 1.186-.89 2.077-2.078 2.077zM61.441 4.736h-7.42c-1.188 0-2.079-.89-2.079-2.077 0-1.187.891-2.077 2.079-2.077h7.42c1.188 0 2.078.89 2.078 2.077-.148 1.186-1.039 2.077-2.078 2.077zM23.89 14.674H2.666c-1.188 0-2.078-.89-2.078-2.077 0-1.186.89-2.077 2.078-2.077H23.89c1.188 0 2.078.89 2.078 2.077 0 1.187-.89 2.077-2.078 2.077zM56.988 14.674H35.764c-1.188 0-2.078-.89-2.078-2.077 0-1.186.89-2.077 2.078-2.077h21.224c1.188 0 2.078.89 2.078 2.077 0 1.187-.89 2.077-2.078 2.077z" transform="translate(-549 -82) translate(549 82) translate(12.563 26.56) translate(33.25 30.859) translate(96.188 30.859)"/>
                        </g>
                        <path fill="#0095DA" d="M187.314.88h-84.305c-10.242 0-18.406 8.308-18.406 18.396v5.934h121.263v-5.934c0-10.087-8.311-18.395-18.552-18.395z" transform="translate(-549 -82) translate(549 82) translate(12.563 26.56) translate(33.25 30.859)"/>
                        <path fill="#FFF" d="M167.128 18.683h-66.791c-2.227 0-4.008-1.78-4.008-4.006V11.56c0-2.225 1.781-4.005 4.008-4.005h66.79c2.227 0 4.008 1.78 4.008 4.005v3.116c0 2.225-1.78 4.006-4.007 4.006z" transform="translate(-549 -82) translate(549 82) translate(12.563 26.56) translate(33.25 30.859)"/>
                        <path fill="#DAF3FF" d="M167.128 7.557h-9.35v11.126h9.35c2.226 0 4.007-1.78 4.007-4.006V11.56c0-2.224-1.78-4.004-4.007-4.004z" transform="translate(-549 -82) translate(549 82) translate(12.563 26.56) translate(33.25 30.859)"/>
                        <g fill="#DAF3FF">
                            <path d="M5.33 10.078c-.149-.149-.446 0-.446.296-.148.742.297 1.336.89 1.632.595.297 1.337.149 1.782-.445.149-.148.149-.445-.148-.445l-2.079-1.038zM10.672 10.671l-.594-2.374v-.296l.89-2.077c.743-1.484.15-3.264-1.187-4.303l.297-.742c.149-.296 0-.593-.297-.741-.296-.149-.593 0-.742.296l-.297.742C7.11.88 5.477 1.621 4.735 3.105l-.891 2.077c0 .148-.148.148-.297.297L1.32 6.517c-.148.148-.296.445-.296.594 0 .148.148.445.445.593l8.163 3.709c.297.148.445 0 .742-.148.298-.149.446-.446.298-.594z" transform="translate(-549 -82) translate(549 82) translate(12.563 26.56) translate(33.25 30.859) translate(180.5 7.121)"/>
                        </g>
                        <path fill="#FFF" d="M154.66 169.55h-32.357c-1.188 0-2.078-.89-2.078-2.077 0-1.187.89-2.077 2.078-2.077h32.357c1.188 0 2.078.89 2.078 2.077 0 1.187-.89 2.077-2.078 2.077zm15.288-1.929c0-1.186-.89-2.077-2.078-2.077h-5.64c-1.188 0-2.079.89-2.079 2.077 0 1.187.89 2.077 2.078 2.077h5.64c1.188-.148 2.079-1.038 2.079-2.077zm25.826-10.383v-6.232c0-2.67-2.227-4.895-4.899-4.895H99.298c-2.672 0-4.899 2.225-4.899 4.895v6.232c0 2.67 2.227 4.895 4.899 4.895h91.577c2.82 0 4.899-2.225 4.899-4.895z" transform="translate(-549 -82) translate(549 82) translate(12.563 26.56) translate(33.25 30.859)"/>
                    </g>
                    <g fill="#41C3FF">
                        <path d="M12.463 17.49c-1.336 0-2.672-.444-3.711-1.334l-5.938-4.6C.143 9.48-.45 5.623 1.627 2.954 3.705.283 7.564-.311 10.235 1.766l5.938 4.6c2.671 2.076 3.265 5.934 1.187 8.603-1.039 1.335-2.523 2.077-4.156 2.374-.147.148-.444.148-.741.148zM6.525 3.844c-.89 0-1.78.445-2.375 1.187-1.039 1.335-.742 3.115.594 4.154l5.938 4.6c.593.444 1.484.74 2.226.593.742-.149 1.485-.446 1.93-1.187 1.039-1.336.742-3.116-.594-4.154l-5.937-4.6c-.446-.445-1.188-.593-1.782-.593zM32.203 27.578c-.743 0-1.633-.148-2.375-.445l-6.976-2.967c-1.484-.594-2.672-1.78-3.265-3.412-.594-1.484-.594-3.264 0-4.748.593-1.483 1.78-2.67 3.414-3.264 1.484-.593 3.265-.593 4.75 0l6.975 2.967c3.117 1.336 4.602 4.896 3.266 8.01-.594 1.484-1.782 2.671-3.414 3.264-.743.447-1.633.595-2.375.595zm-6.976-12.164c-.445 0-.742.148-1.187.297-.742.296-1.336.89-1.633 1.632-.594 1.483.148 3.263 1.633 3.857l6.975 2.967c.742.297 1.484.297 2.227 0 .742-.297 1.336-.89 1.633-1.632.593-1.484-.149-3.264-1.633-3.857l-6.976-2.967c-.297-.149-.742-.297-1.039-.297zM52.834 33.81c-.445 0-.89 0-1.484-.15l-7.42-1.78c-1.634-.445-2.97-1.335-3.86-2.818-.89-1.336-1.188-3.116-.742-4.6.445-1.631 1.336-2.967 2.82-3.857 1.336-.89 3.117-1.187 4.601-.742l7.421 1.78c3.266.743 5.344 4.155 4.602 7.417-.446 1.632-1.336 2.968-2.82 3.858-.743.594-1.93.891-3.118.891zm-7.273-10.98c-.594 0-1.04.149-1.633.446-.742.445-1.188 1.038-1.336 1.78-.148.742 0 1.632.297 2.225.445.742 1.039 1.187 1.781 1.336l7.42 1.78c.743.148 1.634 0 2.227-.297.743-.445 1.188-1.038 1.336-1.78.446-1.632-.593-3.264-2.226-3.56l-7.42-1.781s-.298-.148-.446-.148zM120.367 17.194c-1.78 0-3.71-.89-4.898-2.374-1.04-1.335-1.484-2.967-1.188-4.599.149-1.632 1.04-3.115 2.375-4.154l5.938-4.599C123.93.43 125.563-.015 127.196.281c1.632.149 3.117 1.039 4.156 2.374 2.078 2.67 1.633 6.528-1.188 8.604l-5.937 4.599c-1.188.891-2.524 1.336-3.86 1.336zm-2.226-4.302c1.039 1.335 2.82 1.483 4.156.593l5.938-4.599c1.335-1.038 1.484-2.819.593-4.154-1.039-1.335-2.82-1.484-4.156-.593l-5.937 4.599c-.594.445-1.04 1.187-1.188 1.928-.148.742 0 1.632.594 2.226zM100.775 27.281c-2.375 0-4.75-1.483-5.64-3.857-.595-1.484-.595-3.264 0-4.747.593-1.484 1.78-2.67 3.265-3.413l6.975-2.967c3.117-1.335 6.828.149 8.015 3.264.593 1.484.593 3.264 0 4.748-.594 1.483-1.782 2.67-3.266 3.412l-6.975 2.967c-.741.445-1.632.593-2.374.593zm6.976-12.164c-.445 0-.742 0-1.187.297l-6.975 2.967c-.743.297-1.336.89-1.633 1.632-.297.742-.297 1.484 0 2.225.593 1.484 2.375 2.226 3.86 1.632l6.974-2.967c.743-.297 1.336-.89 1.633-1.632.297-.742.297-1.483 0-2.225-.445-1.187-1.484-1.929-2.672-1.929zM80.144 33.512c-2.82 0-5.343-1.928-5.937-4.747-.445-1.632-.149-3.264.742-4.6.89-1.334 2.227-2.373 3.86-2.818l7.42-1.78c3.266-.742 6.68 1.335 7.42 4.599.743 3.264-1.335 6.676-4.6 7.417l-7.421 1.78c-.593.001-1.038.15-1.484.15zm-2.968-5.489c.445 1.632 1.93 2.522 3.562 2.226l7.42-1.78c.743-.15 1.485-.594 1.782-1.336.445-.742.594-1.484.297-2.225-.445-1.632-1.93-2.522-3.563-2.226l-7.42 1.78c-.742.149-1.485.594-1.782 1.336-.296.593-.445 1.483-.296 2.225z" transform="translate(-549 -82) translate(549 82) translate(12.563 26.56) translate(111.625 90.202)"/>
                        <path d="M25.079 20.161c-.297 0-.445 0-.742-.148-4.75-2.374-9.35-5.34-13.655-8.604-.743-.593-.891-1.483-.297-2.225.593-.742 1.484-.89 2.226-.297 4.156 3.116 8.608 5.935 13.21 8.307.742.445 1.04 1.335.742 2.077-.297.594-.89.89-1.484.89zM44.522 27.43h-.446c-4.601-1.187-9.053-2.67-13.358-4.451-.742-.297-1.187-1.335-.89-2.077.297-.742 1.336-1.187 2.078-.89 4.156 1.78 8.608 3.264 12.913 4.302.89.149 1.336 1.039 1.187 1.929-.148.742-.89 1.187-1.484 1.187zM66.786 30.1c-4.601 0-9.053-.297-13.506-1.038-.891-.149-1.485-.89-1.336-1.78.148-.89.89-1.484 1.78-1.336 8.164 1.187 16.773 1.187 24.936.148.89-.148 1.633.446 1.781 1.336.149.89-.445 1.632-1.336 1.78-4.156.742-8.164.89-12.319.89zM88.01 27.726c-.742 0-1.336-.445-1.484-1.186-.148-.89.297-1.78 1.188-1.93 3.859-.89 7.717-2.076 11.428-3.56.89-.296 1.781.149 2.078.89.297.89-.148 1.78-.89 2.077-3.86 1.484-7.867 2.67-11.874 3.71h-.446zM108.048 20.457c-.594 0-1.187-.297-1.484-.89-.445-.742-.149-1.78.742-2.077 4.602-2.374 9.054-5.044 13.21-8.159.742-.593 1.633-.445 2.226.297.594.742.446 1.632-.297 2.225-4.304 3.116-8.905 5.935-13.655 8.456-.296 0-.593.148-.742.148z" transform="translate(-549 -82) translate(549 82) translate(12.563 26.56) translate(111.625 90.202)"/>
                    </g>
                    <path fill="#4CD3FF" d="M185.33 130.382v-1.767c0-4.594-3.711-8.304-8.308-8.304-4.597 0-8.31 3.71-8.31 8.304v1.767c-2.12 1.06-3.535 3.181-3.535 5.655v10.777c0 3.535 2.828 6.362 6.365 6.362h10.783c3.537 0 6.365-2.827 6.365-6.362v-10.777c.176-2.65-1.238-4.772-3.36-5.655zm-8.131-6.361c2.474 0 4.42 1.944 4.42 4.417v1.237h-8.84v-1.06c-.177-2.473 1.944-4.594 4.42-4.594z" opacity=".3" transform="translate(-549 -82) translate(549 82) translate(12.563 26.56)"/>
                    <g>
                        <path fill="#0072A7" d="M12.54 22.197c-4.597 0-8.309-3.71-8.309-8.305V9.475c0-4.595 3.712-8.305 8.309-8.305 4.597 0 8.309 3.71 8.309 8.305v4.417c0 4.595-3.713 8.305-8.309 8.305zm0-17.14c-2.475 0-4.42 1.944-4.42 4.418v4.417c0 2.474 1.945 4.418 4.42 4.418 2.475 0 4.42-1.944 4.42-4.418V9.475c-.001-2.297-1.945-4.418-4.42-4.418z" transform="translate(-549 -82) translate(549 82) translate(12.563 26.56) translate(166.25 116.313)"/>
                        <path fill="#41C3FF" d="M17.843 34.036H7.06c-3.537 0-6.365-2.827-6.365-6.362V16.896c0-3.534 2.828-6.361 6.365-6.361h10.783c3.537 0 6.365 2.827 6.365 6.361v10.778c0 3.535-2.83 6.362-6.365 6.362z" transform="translate(-549 -82) translate(549 82) translate(12.563 26.56) translate(166.25 116.313)"/>
                    </g>
                    <g fill="#0072A7" transform="translate(-549 -82) translate(549 82) translate(12.563 26.56) translate(174.563 130.556)">
                        <ellipse cx="4.228" cy="5.127" rx="4.066" ry="4.064"/>
                        <path d="M2.636 6.187H5.995V13.785H2.636z"/>
                    </g>
                    <g>
                        <path fill="#A7E3FF" d="M29.096 69.11s.742-31.45.742-42.427C29.69 15.706 29.69.574 39.486 1.168c9.795.593-1.04 11.867-1.04 11.867s9.054-6.527 12.468.297c3.414 6.825-9.944 11.126-9.944 11.126s5.789.593 3.86 5.786c-1.93 5.192-7.124 2.819-8.906 9.345-1.782 6.231-6.828 29.521-6.828 29.521z" transform="translate(-549 -82) translate(549 82) translate(12.563 26.56) translate(0 144.798)"/>
                        <path fill="#41C3FF" d="M40.97 18.08c.148 0 .148-.297.148-.446 0-.148-.297-.148-.445-.148-4.453 1.929-7.124 5.341-8.311 7.12.89-7.862 2.078-14.39 3.71-17.357.15-.148 0-.296-.148-.445-.148-.148-.297 0-.445.149-5.938 10.087-5.938 62.453-5.938 64.53 0 .148.149.296.297.296.149 0 .297-.148.297-.296 0-.297 0-18.544 1.188-35.751.148-.445 1.78-4.154 5.047-5.934.148-.149.148-.297.148-.446-.148-.148-.297-.148-.445-.148-2.375 1.335-3.86 3.412-4.75 4.896.148-2.819.445-5.638.742-8.307.444-.297 3.264-5.34 8.905-7.713z" transform="translate(-549 -82) translate(549 82) translate(12.563 26.56) translate(0 144.798)"/>
                        <path fill="#A7E3FF" d="M29.838 74.598s9.054-40.646-16.772-57.41C1.044 9.92-9.049 26.237 14.7 25.347c-10.093 1.038-11.28 13.796 6.975 15.576-11.28 1.484-10.39 9.79-2.968 12.906 7.42 3.116 11.132 20.77 11.132 20.77z" transform="translate(-549 -82) translate(549 82) translate(12.563 26.56) translate(0 144.798)"/>
                        <path fill="#41C3FF" d="M30.135 55.76v-.446c-1.039-12.313-5.195-28.186-18.553-35.602-.149-.149-.297 0-.446.148-.148.148 0 .297.149.445 5.789 3.264 9.796 8.01 12.616 13.5-1.633-1.633-4.75-3.71-8.905-3.264-.149 0-.297.148-.297.296 0 .149.148.297.297.297 6.086-.593 9.647 4.45 9.647 4.6 2.375 5.34 3.71 11.125 4.453 16.317-.89-2.077-2.672-4.45-5.937-5.192-.149 0-.297 0-.297.296 0 .149 0 .297.297.297 5.047 1.187 6.234 6.676 6.382 8.01.743 8.9-.148 15.874-.148 16.022 0 .148.148.297.297.297.148 0 .297-.149.297-.297s.89-6.825.148-15.725z" transform="translate(-549 -82) translate(549 82) translate(12.563 26.56) translate(0 144.798)"/>
                    </g>
                    <path fill="#41C3FF" d="M13.066 209.902c.594-.89 1.633-1.038 2.672-1.038 2.523 0 5.047 1.632 6.234 3.857 1.336-2.077 2.375-4.302 3.86-6.082 1.633-1.93 4.008-3.264 6.383-2.82 1.632.297 3.117 1.633 3.859 3.116.742 1.484 1.187 3.264 1.336 4.896.445-2.522 3.86-3.709 6.086-2.522 2.226 1.187 3.117 4.154 2.523 6.675 1.04-1.187 2.078-2.225 3.117-3.264 1.633-1.483 3.414-2.819 5.493-3.115 1.484-.149 2.968.296 4.304 1.186 3.266 1.78 5.344 5.193 5.79 8.9 0-.89-45.567 1.04-49.722-.444-2.974-1.185-3.42-6.97-1.935-9.345z" transform="translate(-549 -82) translate(549 82) translate(12.563 26.56)"/>
                    <g>
                        <g>
                            <path fill="#A7E3FF" d="M77.767 51.158H5.335c-2.375 0-4.304-1.93-4.304-4.303V5.318c0-2.373 1.93-4.302 4.304-4.302h72.432c2.375 0 4.305 1.929 4.305 4.302v41.537c-.002 2.375-1.931 4.303-4.305 4.303z" transform="translate(-549 -82) translate(549 82) translate(12.563 26.56) translate(48.688 84.268) translate(0 84.268)"/>
                            <g>
                                <path fill="#C8F1FF" d="M25.22 13.179H4.441c-1.781 0-3.265-1.484-3.265-3.264V3.387C1.176 1.607 2.66.123 4.44.123h20.78c1.78 0 3.265 1.484 3.265 3.264v6.528c-.149 1.929-1.633 3.264-3.266 3.264z" transform="translate(-549 -82) translate(549 82) translate(12.563 26.56) translate(48.688 84.268) translate(0 84.268) translate(47.5 30.859)"/>
                                <path fill="url(#idqxr2n2wa)" d="M13.198 4.872H6.074c-.594 0-1.039-.445-1.039-1.038 0-.594.445-1.039 1.04-1.039h7.123c.594 0 1.039.445 1.039 1.039 0 .593-.445 1.038-1.04 1.038z" transform="translate(-549 -82) translate(549 82) translate(12.563 26.56) translate(48.688 84.268) translate(0 84.268) translate(47.5 30.859)"/>
                                <path fill="url(#tngye9jzlb)" d="M9.042 8.58h-2.97c-.593 0-1.038-.445-1.038-1.039 0-.593.445-1.038 1.039-1.038h2.969c.593 0 1.039.445 1.039 1.038 0 .594-.446 1.039-1.04 1.039z" transform="translate(-549 -82) translate(549 82) translate(12.563 26.56) translate(48.688 84.268) translate(0 84.268) translate(47.5 30.859)"/>
                            </g>
                            <path fill="#41C3FF" d="M29.38 46.856V5.32c0-2.374-1.93-4.303-4.305-4.303H5.335c-2.375 0-4.304 1.929-4.304 4.303v41.536c0 2.374 1.93 4.303 4.304 4.303h19.741c2.374-.001 4.304-1.929 4.304-4.303z" transform="translate(-549 -82) translate(549 82) translate(12.563 26.56) translate(48.688 84.268) translate(0 84.268)"/>
                        </g>
                        <g transform="translate(-549 -82) translate(549 82) translate(12.563 26.56) translate(48.688 84.268) translate(17.813)">
                            <path fill="#FFF" d="M69.187 65.965c-10.166 0-16.568-7.527-16.755-7.715-.566-.565-.377-1.505.188-2.07.566-.565 1.506-.376 2.072.19.376.375 8.849 10.16 21.274 5.456.752-.188 1.505 0 1.882.753.189.752 0 1.505-.753 1.881-2.824 1.129-5.46 1.505-7.908 1.505z"/>
                            <g fill="#4CD3FF" opacity=".3">
                                <path d="M23.163 2.02c.19 0 4.519 1.129 6.401 5.834 2.071 5.268.376 12.983-5.084 22.392h-.189s-1.129.753-1.505 1.881c0 0-1.882 1.13-2.824 3.575 1.694 3.951 8.095 6.021 9.226 5.645 1.13-.376 2.636-4.516 0-5.645-1.13-.376-2.448-1.129-3.577-1.881.376-.376.941-.941 1.13-1.881 6.212-10.537 7.907-19.006 5.46-25.026-1.13-2.823-3.013-4.517-4.708-5.645h-5.271c.188.186.376.562.941.751zM9.608 37.583c1.13-.376 2.636-4.516 0-5.644-1.13-.377-2.447-1.13-3.577-1.882.377-.376.942-.94 1.13-1.88l-.19-.19c6.025-10.536 7.908-18.816 5.272-25.026L11.113.703H7.538c.753.752 1.695 1.88 2.26 3.198 2.26 5.269.376 12.983-5.271 22.58-.377.19-.942.942-1.319 1.694 0 0-1.882 1.129-2.823 3.575 1.882 4.14 8.095 6.21 9.224 5.833z" transform="translate(24.938 84.268)"/>
                            </g>
                            <g>
                                <g>
                                    <path fill="#90BC3F" d="M8.261 1.61C7.885.859 7.132.483 6.38.67c-.753.188-1.318.752-1.505 1.504 0 0-2.824-1.128-2.071.377.565.94 1.505 2.07 2.07 2.634 0 0 3.2-.188 4.142-.565.377-.752.942-2.07 1.13-3.198.375-1.693-1.696.001-1.884.189M15.791 36.61L8.825 37.74c-1.882.376-3.576-.941-3.953-2.823L1.483 13.465c-.189-1.129.189-2.259.942-3.011l3.013-3.011c1.129-.941 2.636-1.318 3.953-.565l3.765 1.881c.942.565 1.695 1.505 1.883 2.635l3.389 21.451c.564 1.695-.753 3.389-2.637 3.765z" transform="translate(2.375) translate(15.438)"/>
                                    <path fill="url(#3t6gdlo3yc)" d="M14.097 4.998c-.189-1.505-.753-3.387-.753-3.387L8.826 4.433c-.377-.376-.942-.565-1.506-.565-.753 0-1.318.376-1.695.941L.73 3.492s-.189 2.07 0 3.575c.19 1.505.942 3.198.942 3.198L5.814 7.63c.376.377 1.13.753 1.695.753.752 0 1.505-.565 1.882-1.318l4.895 1.318c0 .19 0-1.691-.19-3.385" transform="translate(2.375) translate(15.438)"/>
                                </g>
                                <g>
                                    <path fill="url(#dvzbyy0jld)" d="M21.6 31.878L2.207 29.432c-1.13-.189-2.071-1.129-1.883-2.446L2.773 7.604c.189-1.128 1.13-2.07 2.447-1.88l19.392 2.445c1.13.189 2.071 1.129 1.882 2.446l-2.636 19.382c-.188 1.129-1.13 1.881-2.259 1.881z" transform="translate(2.375) translate(23.75 8.308)"/>
                                    <path fill="url(#zopazmzs3e)" d="M14.821 30.937L8.797 30.184 11.621 6.663 17.834 7.416z" transform="translate(2.375) translate(23.75 8.308)"/>
                                    <path fill="url(#748mhktmxf)" d="M23.67 3.652c-.188-.376-.565-.565-.752-.752-2.448-1.882-5.837 1.504-6.966 2.822-.19-.376-.566-.565-1.13-.753-.376 0-.941 0-1.318.19-.753-1.695-3.2-5.458-5.836-4.517-.377.189-.566.376-.942.565-.942.753-.942 1.505-.753 2.07.565 2.07 5.271 3.199 6.966 3.575.189.752.753 1.129 1.318 1.317.753.189 1.506-.188 1.882-.941 1.506.189 6.779.376 7.72-1.505.377-.189.564-.941-.189-2.071m-15.815 0c-.376-.189-.189-.565-.189-.941.19-.189.377-.376.566-.376 1.13-.377 2.447 1.128 3.389 2.822-1.695-.564-3.012-1.129-3.766-1.505m14.686 1.506c-.376.565-2.26.753-4.518.753 1.318-1.318 3.012-2.447 3.953-1.694.565.187.753.752.565.941" transform="translate(2.375) translate(23.75 8.308)"/>
                                </g>
                                <g>
                                    <path fill="url(#xlxo0tpv1g)" d="M29.534 28.563l-19.203 6.775c-1.13.376-2.447-.189-2.824-1.318L.73 14.828c-.376-1.13.189-2.447 1.318-2.823L21.25 5.231c1.13-.377 2.448.188 2.824 1.317l6.778 19.193c.377 1.129-.187 2.257-1.318 2.822z" transform="translate(2.375) translate(0 10.682)"/>
                                    <path fill="url(#mt0wewvbkh)" d="M22.945 30.822L16.921 32.892 8.637 9.747 14.661 7.488z" transform="translate(2.375) translate(0 10.682)"/>
                                    <path fill="url(#zho7qxywai)" d="M18.426 1.278c-.376-.188-.752-.376-1.129-.376-3.2-.565-4.707 4.14-5.084 5.833-.376 0-.941-.188-1.318 0-.376.19-.753.377-.941.753-1.506-1.129-5.46-3.575-7.532-1.317-.188.188-.376.564-.565.94-.565 1.13-.189 1.882.19 2.26 1.505 1.693 6.4.564 8.094 0 .377.564 1.13.752 1.882.564.753-.188 1.319-.94 1.319-1.693 1.505-.565 6.4-2.823 6.589-5.081-.186-.377-.374-1.13-1.505-1.883M3.742 8.617c-.377 0-.565-.377-.565-.753 0-.189.188-.376.376-.565.753-.94 2.824 0 4.518.941-2.07.377-3.576.377-4.33.377M18.05 3.16c0 .752-1.695 1.88-3.953 2.822.565-1.694 1.694-3.764 3.013-3.575.564.188.94.564.94.753" transform="translate(2.375) translate(0 10.682)"/>
                                </g>
                            </g>
                            <path fill="url(#5lm1lid88j)" d="M15.907 26.45L4.61 31.53C1.033 33.035-.661 37.175.468 40.751c2.447 8.091 6.4 22.769 7.155 38.198.188 3.575 3.2 6.398 6.778 6.398h19.957L15.907 26.449z"/>
                            <path fill="url(#kc6h3uckyk)" d="M12.141 32.848c1.882 8.09 4.895 23.521 5.837 46.854.188 3.01 2.636 5.457 5.647 5.457h28.806c3.389 0 5.836-2.822 5.647-6.21-1.13-10.537-2.824-32.364-.189-47.042.566-3.388-2.07-6.586-5.647-6.586l-34.642.565c-3.576.187-6.212 3.574-5.459 6.962z"/>
                            <ellipse cx="29.838" cy="44.137" fill="#004F74" rx="2.071" ry="2.07"/>
                            <ellipse cx="48.854" cy="43.385" fill="#004F74" rx="2.071" ry="2.07"/>
                            <g>
                                <path fill="#FFF" d="M8.739 33.314h-.565c-.753-.188-1.13-1.128-.753-1.881 4.142-10.914 4.707-19.193 1.505-24.086C6.29 3.207 1.772 2.83 1.772 2.83c-.753 0-1.318-.753-1.318-1.505 0-.753.752-1.318 1.505-1.318.19 0 6.025.377 9.414 5.834 3.765 5.833 3.2 14.677-1.318 26.532-.186.564-.75.94-1.316.94zM28.696 33.314h-.565c-.753-.188-1.13-1.128-.753-1.881 4.142-10.726 4.707-19.005 1.506-23.898-2.637-4.14-6.966-4.516-7.155-4.516-.753 0-1.318-.752-1.318-1.505 0-.752.753-1.317 1.505-1.317.19 0 6.025.376 9.414 5.833 3.765 5.834 3.2 14.677-1.318 26.533-.374.375-.75.751-1.316.751z" transform="translate(27.313 83.08)"/>
                                <path fill="#0095DA" d="M26.436 32.373s-1.694 1.505-2.26 3.951c2.448 3.575 9.037 4.516 9.979 3.951 1.13-.565 1.694-4.892-.942-5.457-2.446-.564-6.777-2.445-6.777-2.445z" transform="translate(27.313 83.08)"/>
                                <path fill="#41C3FF" d="M29.072 34.067s1.319-.941 1.319-2.446c-1.13-1.13-2.824-1.318-2.824-1.318s-1.13.941-1.319 2.446c.377 1.318 2.824 1.318 2.824 1.318z" transform="translate(27.313 83.08)"/>
                                <path fill="#0095DA" d="M6.668 32.373s-1.695 1.505-2.26 3.951c2.447 3.575 9.037 4.516 9.979 3.951 1.129-.565 1.694-4.892-.942-5.457-2.446-.564-6.777-2.445-6.777-2.445z" transform="translate(27.313 83.08)"/>
                                <path fill="#41C3FF" d="M9.304 34.067s1.318-.941 1.318-2.446c-1.13-1.13-2.824-1.318-2.824-1.318s-1.129.941-1.318 2.446c.377 1.318 2.824 1.318 2.824 1.318z" transform="translate(27.313 83.08)"/>
                            </g>
                            <path fill="url(#su2294khyl)" d="M38.499 54.487c-4.895.188-12.614 3.95-11.485 8.28 1.13 4.515 6.59-.942 11.674-.566 4.894.377 9.978 3.199 11.296 1.318 1.317-1.694-.941-9.597-11.485-9.032z"/>
                            <path fill="#004F74" d="M.817 3.32c-.189 0-.376 0-.565-.188-.19-.189-.19-.565.189-.941.188-.189 4.518-3.199 8.284-.565.188.189.376.565.188.941-.188.189-.565.376-.941.189-3.013-2.259-6.59.376-6.779.565H.817z" opacity=".3" transform="translate(23.75 34.42)"/>
                            <path fill="#004F74" d="M1.209 3.567c-.189 0-.377 0-.565-.19-.19-.188-.19-.564 0-.94 3.2-3.388 7.907-1.13 8.284-.942.376.19.376.565.188.753-.188.376-.565.376-.752.189-.19 0-4.142-2.07-6.779.752 0 .189-.187.378-.376.378z" opacity=".3" transform="translate(42.75 33.232)"/>
                            <path fill="#FFF" d="M38.499 54.487c-3.013.188-7.155 1.693-9.602 3.763.376.565 1.129 1.129 2.07.942 2.26-.377 6.401-5.081 15.627-.565 0 0 .753.565 1.694-.942-1.882-1.88-4.894-3.387-9.79-3.198z"/>
                            <path fill="url(#0vwob8h56m)" d="M38.499 62.201c1.694.19 3.389.565 5.083.942-.376-2.259-2.823-3.951-5.647-3.951-3.2 0-5.648 2.07-5.648 4.516 1.882-.754 4.14-1.694 6.212-1.507z"/>
                            <path fill="#004F74" d="M36.051 70.481s2.824-2.822 4.33-1.881c1.507.94-.375 4.327-4.33 1.881z" opacity=".3"/>
                            <path fill="#FFF" d="M49.043 76.69c-6.401 0-13.18-1.317-20.145-3.95-10.355-3.951-17.51-9.409-17.886-9.597-.566-.565-.753-1.318-.19-2.07.566-.565 1.319-.753 2.072-.189.189.189 28.052 21.451 53.092 9.22.753-.375 1.506 0 1.882.566.376.752 0 1.505-.565 1.88-5.647 2.823-11.86 4.14-18.26 4.14z"/>
                            <g fill="#4CD3FF" transform="translate(68.875 77.146)">
                                <ellipse cx="4.831" cy="5.378" rx="4.33" ry="4.327"/>
                                <path d="M4.266 17.797l-.377-10.16c0-.566.377-.942.942-.942s.941.376.941.941l.377 10.161c0 .565-.377.941-.942.941s-.941-.377-.941-.94z"/>
                                <path d="M4.83 13.845c0-.376.377-.753.754-.753h1.129c.376 0 .753.377.753.753s-.377.752-.753.752h-1.13c-.376.001-.752-.376-.752-.752zM5.018 16.48c0-.565.377-1.129.942-1.129h1.506c.565 0 1.13.376 1.13.941s-.377 1.129-.943 1.129H6.148c-.564 0-1.13-.376-1.13-.941z"/>
                            </g>
                            <g fill="#00B3FF">
                                <path d="M6.177 8.62L2.412 6.927C1.094 6.362.717 4.857 1.47 3.728l1.695-2.635C3.918-.036 5.612-.224 6.554.717l3.012 3.011c.753.752.942 1.881.19 2.822l-.942 1.318c-.377.752-1.506 1.128-2.637.752z" transform="translate(76 72.399)"/>
                                <path d="M16.156 9.373l-.753-.377c-.565.565-1.506.753-2.26.19-.754-.565-.941-1.318-.565-2.07L9.942 5.421c-.566-.377-1.13-.19-1.506.376l-.565.941c-.377.565-.19 1.129.376 1.505l6.213 4.14c.565.376 1.13.188 1.506-.376l.565-.942c.19-.565.001-1.317-.375-1.693z" transform="translate(76 72.399)"/>
                            </g>
                            <path fill="#0073AA" d="M73.14 80.454c-4.894 0-8.66-5.644-8.66-12.607 0-6.962 3.953-12.607 8.66-12.607 4.895 0 8.66 5.645 8.66 12.607.19 6.963-3.765 12.607-8.66 12.607zm0-22.956c-3.576 0-6.589 4.705-6.589 10.35 0 5.833 3.013 10.349 6.59 10.349 3.576 0 6.589-4.705 6.589-10.35 0-5.644-2.824-10.35-6.59-10.35z"/>
                            <ellipse cx="79.535" cy="63.138" fill="#FFF" rx="5.271" ry="4.14" transform="rotate(-15.593 79.535 63.138)"/>
                            <ellipse cx="66.155" cy="73.32" fill="#FFF" rx="5.271" ry="4.14" transform="rotate(-15.593 66.155 73.32)"/>
                            <g fill="#0073AA" transform="translate(78.375 65.278)">
                                <ellipse cx="5.497" cy="5.392" rx="4.33" ry="4.327"/>
                                <path d="M15.664 12.542L7.004 7.46c-.377-.19-.565-.942-.377-1.318.19-.376.942-.565 1.319-.376l8.66 5.081c.376.189.565.941.376 1.317-.188.377-.941.565-1.318.377z"/>
                                <path d="M12.652 9.72c-.377-.19-.566-.753-.19-1.13l.566-.94c.189-.377.753-.566 1.13-.19.376.19.565.753.188 1.13l-.565.94c-.188.378-.753.378-1.13.19zM14.91 11.037c-.565-.377-.753-.941-.376-1.505l.753-1.318c.376-.565.941-.752 1.505-.376.566.376.753.941.377 1.505l-.753 1.317c-.375.565-.94.753-1.506.377z"/>
                            </g>
                            <g fill="#0073AA">
                                <path d="M5.41 8.822L2.021 6.376C.891 5.623.891 3.93 1.832 2.989L4.28.729c.941-.94 2.636-.752 3.389.566l2.26 3.575c.565.94.376 2.07-.377 2.822l-1.13 1.129c-.94.566-2.07.566-3.012.001z" transform="translate(72.438 75.96)"/>
                                <path d="M14.824 12.022l-.566-.565c-.753.376-1.694.376-2.26-.376-.565-.565-.565-1.505-.188-2.259L9.739 6.563c-.377-.376-1.13-.565-1.506 0l-.753.753c-.376.376-.565 1.129 0 1.505l4.895 5.457c.376.376 1.13.565 1.506 0l.753-.752c.566-.375.566-.94.19-1.504z" transform="translate(72.438 75.96)"/>
                            </g>
                        </g>
                    </g>
                    <path fill="#4CD3FF" d="M239.116 136.027H217.15c-5.047 0-9.202 4.154-9.202 9.197v25.515c0 5.045 4.156 9.197 9.202 9.197h21.966v-43.909z" opacity=".3" transform="translate(-549 -82) translate(549 82) translate(12.563 26.56)"/>
                    <g>
                        <path fill="#A7E3FF" d="M88.893 44.19H9.486c-5.047 0-9.202-4.155-9.202-9.198V9.33C.284 4.285 4.44.132 9.486.132h79.407c5.047 0 9.202 4.154 9.202 9.197v25.663c-.149 5.043-4.157 9.197-9.202 9.197z" transform="translate(-549 -82) translate(549 82) translate(12.563 26.56) translate(210.188 128.182)"/>
                        <path fill="#0095DA" d="M88.893.279H9.486C4.439.279.284 4.433.284 9.476v.742h97.812v-.742c-.15-5.043-4.158-9.197-9.203-9.197z" transform="translate(-549 -82) translate(549 82) translate(12.563 26.56) translate(210.188 128.182)"/>
                        <g fill="#DAF3FF" transform="translate(-549 -82) translate(549 82) translate(12.563 26.56) translate(210.188 128.182) translate(9.5 2.374)">
                            <ellipse cx="2.509" cy="2.949" rx="2.375" ry="2.374"/>
                            <ellipse cx="10.672" cy="2.949" rx="2.375" ry="2.374"/>
                            <ellipse cx="18.983" cy="2.949" rx="2.375" ry="2.374"/>
                        </g>
                        <path fill="#41C3FF" d="M61.731 18.823H13.197c-1.188 0-2.078-.89-2.078-2.077 0-1.187.89-2.077 2.078-2.077H61.73c1.188 0 2.078.89 2.078 2.077 0 1.186-1.039 2.077-2.078 2.077zM82.658 18.823H71.675c-1.187 0-2.078-.89-2.078-2.077 0-1.187.89-2.077 2.078-2.077h10.983c1.188 0 2.078.89 2.078 2.077-.148 1.186-1.039 2.077-2.078 2.077z" transform="translate(-549 -82) translate(549 82) translate(12.563 26.56) translate(210.188 128.182)"/>
                        <path fill="#FFF" d="M31.897 26.24H13.196c-1.188 0-2.079-.89-2.079-2.078 0-1.187.891-2.077 2.078-2.077h18.702c1.188 0 2.079.89 2.079 2.077 0 1.187-1.04 2.077-2.079 2.077zM71.824 26.24H41.99c-1.188 0-2.078-.89-2.078-2.078 0-1.187.89-2.077 2.078-2.077h29.834c1.187 0 2.078.89 2.078 2.077-.149 1.187-1.04 2.077-2.078 2.077zM43.326 33.806H13.492c-1.187 0-2.078-.89-2.078-2.077 0-1.187.89-2.077 2.078-2.077h29.834c1.187 0 2.078.89 2.078 2.077-.148 1.186-1.039 2.077-2.078 2.077z" transform="translate(-549 -82) translate(549 82) translate(12.563 26.56) translate(210.188 128.182)"/>
                    </g>
                    <path fill="#EA5F01" d="M127.565 123.4s1.611 3.473.898 7.264l6.635 2.456-3.48-3.976 6.84-2.637-7.002-1.317 1.38-4.119-5.271 2.329z" transform="translate(-549 -82) translate(549 82) translate(12.563 26.56)"/>
                </g>
            </g>
        </g>
    </g>
</svg>
