<svg xmlns="http://www.w3.org/2000/svg" width="18" height="18" viewBox="0 0 18 18">
    <g fill="none" fill-rule="evenodd">
        <g fill="#FFF" fill-rule="nonzero">
            <g>
                <path fill-opacity=".01" d="M0 0H18V18H0z" transform="translate(-229 -8) translate(229 8)"/>
                <path d="M12 7.5c-2.486 0-4.5 2.014-4.5 4.5s2.014 4.5 4.5 4.5 4.5-2.014 4.5-4.5-2.014-4.5-4.5-4.5zM4.5 3c0 .829.671 1.5 1.5 1.5h3c.829 0 1.5-.671 1.5-1.5h.75c.829 0 1.5.671 1.5 1.5V6H4.5c-.414 0-.75.336-.75.75s.336.75.75.75h3.54c-.487.429-.903.934-1.23 1.5H4.5c-.414 0-.75.336-.75.75s.336.75.75.75h1.697C6.073 10.98 6 11.481 6 12c0 1.094.298 2.117.81 3H3.75c-.829 0-1.5-.671-1.5-1.5v-9c0-.829.671-1.5 1.5-1.5zm6.704 7.144l.796.796.796-.796c.293-.293.768-.293 1.06 0 .293.293.293.768 0 1.06L13.06 12l.796.796c.293.293.293.768 0 1.06-.293.293-.768.293-1.06 0L12 13.06l-.796.796c-.293.293-.768.293-1.06 0-.293-.293-.293-.768 0-1.06L10.94 12l-.796-.796c-.293-.293-.293-.768 0-1.06.293-.293.768-.293 1.06 0zM8.25 1.5c.38 0 .693.282.743.648L9 2.25c0 .414-.336.75-.75.75h-1.5c-.38 0-.693-.282-.743-.648L6 2.25c0-.414.336-.75.75-.75h1.5z" transform="translate(-229 -8) translate(229 8)"/>
            </g>
        </g>
    </g>
</svg>
