<svg xmlns="http://www.w3.org/2000/svg" xmlns:xlink="http://www.w3.org/1999/xlink" width="18" height="18" viewBox="0 0 18 18">
    <defs>
        <path id="5monaq0i4a" d="M8.248 0C11.97 0 15 3.142 15 7s-3.03 7-6.752 7c-.937 0-1.845-.194-2.7-.583-.57-.257-.833-.95-.578-1.54.248-.591.908-.864 1.486-.6.57.257 1.17.39 1.8.39 2.483 0 4.501-2.093 4.501-4.667s-2.018-4.667-4.501-4.667c-2.483 0-4.5 2.092-4.501 4.666L4.618 7c.487 0 .787.568.532 1.003l-1.995 3.353c-.248.412-.818.412-1.058 0L.102 8.003C-.168 7.568.132 7 .627 7l.869-.001.005-.24C1.624 3.014 4.605 0 8.248 0zM7.8 4c.44 0 .8.375.8.833v2.5h1.6c.44 0 .8.375.8.834 0 .458-.36.833-.8.833H7.8c-.44 0-.8-.375-.8-.833V4.833C7 4.375 7.36 4 7.8 4z"/>
    </defs>
    <g fill="none" fill-rule="evenodd">
        <g>
            <g>
                <g>
                    <g>
                        <path fill="#FFF" fill-opacity=".01" d="M0 0H18V18H0z" transform="translate(-459 -706) translate(435 338) translate(12 356) translate(12 12)"/>
                        <g transform="translate(-459 -706) translate(435 338) translate(12 356) translate(12 12) translate(1 2)">
                            <mask id="dp4qzefepb" fill="#fff">
                                <use xlink:href="#5monaq0i4a"/>
                            </mask>
                            <path fill="#FFF" d="M-1 -2H17V16H-1z" mask="url(#dp4qzefepb)"/>
                        </g>
                    </g>
                </g>
            </g>
        </g>
    </g>
</svg>
