<svg xmlns="http://www.w3.org/2000/svg" width="18" height="18" viewBox="0 0 18 18">
    <g fill="none" fill-rule="evenodd">
        <g fill="#FFF">
            <g>
                <path fill-opacity=".01" d="M0 0H18V18H0z" transform="translate(-67 -8) translate(67 8)"/>
                <path fill-rule="nonzero" d="M14.243 12.074l.007.102v1.036h1.5c.38 0 .693.283.743.649l.007.102-.007.101c-.045.333-.309.597-.641.642l-.102.007h-1.5v1.036c0 .523-.515.874-.99.71l-.095-.04-3.573-1.786c-.518-.258-.55-.968-.097-1.283l.097-.058 3.573-1.786c.467-.234 1.012.07 1.078.568zM7.5 7.5V9h3V7.5h3.75v2.556c-.235-.083-.487-.13-.75-.13l-.207.01c-.276.025-.549.103-.799.228l-3.572 1.787c-.768.383-1.244 1.154-1.244 2.012 0 .097.008.193.02.287H4.5c-.414 0-.75-.336-.75-.75v-6H7.5zM15 2.25c.414 0 .75.336.75.75v3H2.25V3c0-.414.336-.75.75-.75h12z" transform="translate(-67 -8) translate(67 8)"/>
            </g>
        </g>
    </g>
</svg>
