<svg width="360" height="252" viewBox="0 0 360 252" fill="none" xmlns="http://www.w3.org/2000/svg">
    <path d="M359.285 212.088C359.168 214.303 358.819 216.402 358.469 218.501C358.469 218.617 358.469 218.734 358.352 218.85C358.236 219.55 358.119 220.249 358.002 220.949C357.769 222.115 357.419 223.281 357.186 224.33C356.837 225.846 356.254 227.361 355.787 228.76C350.774 243.334 342.38 252.778 342.38 252.778H21.7613C21.6448 252.544 21.5282 252.311 21.4116 252.195C18.2637 246.948 15.5822 242.051 13.1338 237.155C12.6674 236.222 12.2011 235.173 11.7347 234.24C10.802 232.141 9.86932 230.159 9.0532 228.177C8.82003 227.595 8.47026 226.895 8.23708 226.312C6.0219 220.716 4.27308 215.469 2.9906 210.339C2.75743 209.407 2.52425 208.357 2.29107 207.425C1.82472 205.326 1.47495 203.344 1.12519 201.362C1.0086 200.779 0.892012 200.08 0.892012 199.497C0.892012 199.147 0.775423 198.681 0.775423 198.331C0.775423 197.981 0.658835 197.631 0.658835 197.282C0.0758929 191.452 0.0758922 185.972 0.775423 180.843C0.892011 180.143 0.892012 179.56 1.0086 178.861C1.24178 177.695 1.35837 176.529 1.70813 175.363C1.82472 174.78 1.94131 174.08 2.17448 173.497C2.17448 173.264 2.29107 173.148 2.29107 172.915C3.80672 167.085 6.13849 161.722 9.0532 156.942C9.63614 155.893 10.3357 154.96 10.9186 154.027C12.4343 151.929 13.9499 149.83 15.6987 147.965C16.2817 147.265 16.8646 146.682 17.4476 146.099C32.6041 130.476 54.6393 123.131 70.7285 121.849C76.3247 121.382 80.9883 119.634 84.8357 116.836C90.4319 112.872 94.6291 106.925 98.7097 100.047C110.602 80.1101 121.211 52.0123 158.753 40.9364C206.437 26.8292 240.948 40.5867 255.638 82.5585C256.454 84.7737 257.153 86.9889 257.853 89.3206C259.019 93.6344 260.768 97.9482 262.75 102.262C271.61 121.033 287.7 139.92 305.538 151.229C306.82 152.045 308.103 152.861 309.385 153.561C311.717 154.843 314.049 156.009 316.38 157.059C316.963 157.292 317.43 157.525 318.013 157.758C319.178 158.224 320.344 158.691 321.51 159.041C322.443 159.39 323.259 159.623 324.192 159.973C327.223 161.139 330.021 162.305 332.586 163.704C338.882 167.085 344.128 171.049 348.209 175.713C350.424 178.278 352.406 181.076 353.922 183.99C354.388 184.807 354.738 185.623 355.088 186.439C356.254 188.887 357.186 191.569 357.886 194.25C359.285 199.846 359.751 205.909 359.285 212.088Z" fill="#DAF3FF"/>
    <path d="M262.75 252.894H273.009H283.269H305.304H315.564H321.394H331.653H342.38C342.38 252.894 350.774 243.451 355.787 228.877C356.254 227.478 356.72 225.962 357.186 224.447C357.536 223.397 357.769 222.231 358.002 221.066C358.119 220.366 358.236 219.667 358.469 218.967C358.469 218.85 358.469 218.734 358.585 218.617C358.935 216.519 359.168 214.42 359.401 212.205C359.868 205.909 359.401 199.963 357.886 194.367C357.186 191.685 356.254 189.004 355.088 186.555C354.738 185.739 354.272 184.923 353.922 184.224C354.038 184.224 354.038 184.224 354.155 184.107H353.922C352.29 181.192 350.424 178.394 348.209 175.829C344.128 171.166 338.998 167.085 332.586 163.821C330.021 162.422 327.223 161.139 324.192 160.09C323.376 159.74 322.443 159.39 321.51 159.157C320.344 158.807 319.178 158.341 318.013 157.875C317.43 157.641 316.963 157.408 316.38 157.175C314.049 156.126 311.717 154.96 309.502 153.677C308.219 152.978 306.937 152.162 305.654 151.346C287.816 140.037 271.727 121.149 262.866 102.379C260.768 98.0648 259.135 93.6344 257.97 89.4372C257.27 87.1055 256.57 84.7737 255.754 82.6751H249.808V252.894H262.75Z" fill="#CAEEFF"/>
    <path d="M305.421 252.894H283.386H273.126H262.866V102.262C271.727 121.033 287.816 139.92 305.654 151.229C306.937 152.045 308.219 152.861 309.502 153.561C311.833 154.843 314.049 156.009 316.38 157.059C316.963 157.292 317.43 157.525 318.013 157.758C319.178 158.224 320.344 158.691 321.51 159.041C322.443 159.39 323.259 159.623 324.192 159.973C327.223 161.139 330.021 162.305 332.586 163.704C338.882 167.085 344.128 171.166 348.209 175.713C350.541 178.278 352.406 181.076 353.922 183.99H354.155C354.155 183.99 354.038 183.99 353.922 184.107C354.388 184.923 354.738 185.739 355.088 186.439C356.254 189.004 357.186 191.569 357.886 194.25C359.401 199.846 359.868 205.909 359.401 212.088C359.285 214.303 358.935 216.402 358.585 218.501C358.585 218.617 358.469 218.734 358.469 218.85C358.352 219.55 358.236 220.249 358.002 220.949C357.769 222.115 357.419 223.281 357.186 224.33C356.72 225.846 356.254 227.361 355.787 228.76C350.774 243.334 342.38 252.778 342.38 252.778H331.653H321.394H315.564H305.421V252.894Z" fill="#8CDBFF"/>
    <path d="M353.805 183.99H354.038C353.922 183.99 353.805 184.107 353.805 183.99C353.455 184.107 352.989 184.224 352.523 184.224H323.142C323.026 184.224 323.026 184.224 322.909 184.224C322.443 184.224 322.093 184.107 321.627 183.99C319.761 183.407 318.246 181.775 317.896 179.793L317.663 178.511C316.73 172.332 316.73 166.152 317.546 159.973L317.663 159.274L317.896 157.758C319.062 158.224 320.228 158.691 321.394 159.041C322.326 159.39 323.142 159.623 324.075 159.973C327.106 161.139 329.905 162.305 332.469 163.704C338.765 167.085 344.012 171.049 348.092 175.713C350.308 178.278 352.173 181.076 353.805 183.99Z" fill="#3182A7"/>
    <path d="M321.394 159.041C322.326 159.39 323.142 159.623 324.075 159.973H319.878C319.062 159.973 318.362 159.74 317.779 159.274C317.08 158.691 316.613 157.991 316.38 157.059C316.963 157.292 317.43 157.525 318.013 157.758C319.062 158.224 320.228 158.574 321.394 159.041Z" fill="#3182A7"/>
    <path d="M347.976 175.713C347.859 177.112 347.626 178.511 347.393 179.91C347.043 181.892 345.644 183.407 343.779 183.99C343.312 184.107 342.846 184.224 342.263 184.224H312.883C312.416 184.224 311.833 184.107 311.367 183.99C309.502 183.407 307.986 181.775 307.636 179.793L307.403 178.511C306.47 172.332 306.47 166.152 307.286 159.973V159.857L307.636 156.709C307.753 155.543 308.336 154.377 309.152 153.561C311.484 154.843 313.815 156.009 316.147 157.059C316.73 157.292 317.196 157.525 317.779 157.758C318.945 158.224 320.111 158.691 321.277 159.041C322.21 159.39 323.026 159.623 323.959 159.973C326.99 161.139 329.788 162.305 332.353 163.704C338.765 167.085 343.895 171.049 347.976 175.713Z" fill="#CAEEFF"/>
    <path d="M321.394 159.041C322.326 159.39 323.142 159.623 324.075 159.973H308.569C308.219 159.973 307.869 159.973 307.52 159.857C306.121 159.39 305.071 158.108 305.071 156.476V153.328C305.071 152.628 305.304 151.929 305.654 151.346C306.937 152.162 308.219 152.978 309.502 153.677C311.833 154.96 314.165 156.126 316.497 157.175C317.08 157.408 317.546 157.641 318.129 157.875C319.062 158.224 320.228 158.574 321.394 159.041Z" fill="#40A9DA"/>
    <path d="M332.469 163.704H322.326C321.277 163.704 320.461 162.888 320.461 161.839C320.461 160.789 321.277 159.973 322.326 159.973H324.075C326.99 161.023 329.788 162.305 332.469 163.704Z" fill="white"/>
    <path d="M327.456 218.617H298.076C295.511 218.617 293.296 216.752 292.946 214.187L292.713 212.904C291.78 206.725 291.78 200.546 292.596 194.367L293.063 191.102C293.412 188.537 295.628 186.555 298.193 186.555H327.456C330.021 186.555 332.12 188.421 332.586 190.869C333.985 198.681 333.985 206.609 332.586 214.303C332.12 216.752 330.021 218.617 327.456 218.617Z" fill="#3182A7"/>
    <path d="M294.811 194.25H333.052C335.034 194.25 336.667 192.618 336.667 190.636V187.605C336.667 185.623 335.034 183.99 333.052 183.99H294.811C292.829 183.99 291.197 185.623 291.197 187.605V190.753C291.197 192.735 292.829 194.25 294.811 194.25Z" fill="#3182A7"/>
    <path d="M317.196 218.617H287.816C285.251 218.617 283.036 216.752 282.686 214.187L282.453 212.904C281.52 206.725 281.52 200.546 282.336 194.367L282.803 191.102C283.153 188.537 285.368 186.555 287.933 186.555H317.196C319.761 186.555 321.86 188.421 322.326 190.869C323.725 198.681 323.725 206.609 322.326 214.303C321.977 216.752 319.761 218.617 317.196 218.617Z" fill="#CAEEFF"/>
    <path d="M283.502 194.25H321.743C323.725 194.25 325.358 192.618 325.358 190.636V187.605C325.358 185.623 323.725 183.99 321.743 183.99H283.502C281.52 183.99 279.888 185.623 279.888 187.605V190.753C279.888 192.735 281.52 194.25 283.502 194.25Z" fill="#40A9DA"/>
    <path d="M297.26 197.981H307.986C309.035 197.981 309.851 197.165 309.851 196.116C309.851 195.066 309.035 194.25 307.986 194.25H297.26C296.211 194.25 295.394 195.066 295.394 196.116C295.394 197.165 296.211 197.981 297.26 197.981Z" fill="white"/>
    <path d="M359.285 212.088C359.168 214.303 358.818 216.402 358.469 218.501H346.46C343.895 218.501 341.68 216.635 341.33 214.07L341.097 212.788C340.164 206.609 340.164 200.429 340.98 194.25L341.447 190.986C341.797 188.421 344.012 186.439 346.577 186.439H354.971C356.137 188.887 357.07 191.569 357.769 194.25C359.285 199.846 359.751 205.909 359.285 212.088Z" fill="#3182A7"/>
    <path d="M357.769 194.25C359.285 199.846 359.751 205.909 359.285 212.088C359.168 214.303 358.818 216.402 358.469 218.501H336.2C334.335 218.501 332.703 217.568 331.77 216.052C331.42 215.469 331.07 214.77 330.954 213.954L330.721 212.671C329.788 206.492 329.788 200.313 330.604 194.134V194.017L330.954 190.869C331.07 190.053 331.304 189.354 331.653 188.771C332.586 187.255 334.218 186.322 336.084 186.322H354.738C356.137 189.004 357.07 191.569 357.769 194.25Z" fill="#CAEEFF"/>
    <path d="M354.971 186.439C356.137 188.887 357.07 191.569 357.769 194.25H331.77C331.42 194.25 331.07 194.25 330.721 194.134C329.322 193.667 328.272 192.385 328.272 190.753V187.605C328.272 187.255 328.389 186.905 328.389 186.555C328.739 185.506 329.555 184.573 330.604 184.224C330.954 184.107 331.42 183.99 331.77 183.99H353.922C353.805 183.99 353.805 183.99 353.689 183.99C354.155 184.807 354.621 185.623 354.971 186.439Z" fill="#40A9DA"/>
    <path d="M345.644 197.981H356.37C357.419 197.981 358.236 197.165 358.236 196.116C358.236 195.066 357.419 194.25 356.37 194.25H345.644C344.595 194.25 343.779 195.066 343.779 196.116C343.779 197.165 344.595 197.981 345.644 197.981Z" fill="white"/>
    <path d="M315.681 252.894C316.847 252.544 317.896 251.728 318.595 250.679C318.945 250.096 319.295 249.513 319.295 248.814C320.461 242.168 320.577 235.523 319.761 228.877C319.645 227.711 319.412 226.545 319.295 225.379C319.178 224.68 318.945 224.097 318.595 223.514C317.779 222.348 316.613 221.415 315.098 221.182C314.748 221.066 314.515 221.066 314.165 221.066H311.833H303.905H284.901C282.22 221.066 280.005 223.048 279.772 225.613L279.422 228.177L279.305 228.877C278.489 235.056 278.606 241.235 279.422 247.415L279.655 248.697C280.005 250.796 281.404 252.428 283.386 252.894H305.421H315.681Z" fill="#3182A7"/>
    <path d="M281.52 228.877H319.761C321.743 228.877 323.376 227.245 323.376 225.263V222.115C323.376 220.133 321.743 218.501 319.761 218.501H281.52C279.538 218.501 277.906 220.133 277.906 222.115V225.263C277.906 227.245 279.538 228.877 281.52 228.877Z" fill="#3182A7"/>
    <path d="M309.035 248.814C308.685 250.796 307.286 252.311 305.421 252.894H273.126C271.261 252.311 269.745 250.679 269.395 248.697L269.162 247.415C268.229 241.235 268.229 235.056 269.045 228.877V228.76L269.395 225.729C269.745 223.164 271.96 221.182 274.642 221.182H303.905C306.47 221.182 308.569 223.048 309.035 225.496C309.268 226.545 309.385 227.711 309.502 228.76C309.502 228.877 309.502 228.877 309.502 228.994C310.318 235.523 310.201 242.168 309.035 248.814Z" fill="#CAEEFF"/>
    <path d="M270.095 228.877H308.336C310.318 228.877 311.95 227.245 311.95 225.263V222.115C311.95 220.133 310.318 218.501 308.336 218.501H270.095C268.113 218.501 266.48 220.133 266.48 222.115V225.263C266.597 227.245 268.229 228.877 270.095 228.877Z" fill="#40A9DA"/>
    <path d="M283.969 232.608H294.695C295.744 232.608 296.56 231.792 296.56 230.742C296.56 229.693 295.744 228.877 294.695 228.877H283.969C282.919 228.877 282.103 229.693 282.103 230.742C281.987 231.792 282.919 232.608 283.969 232.608Z" fill="white"/>
    <path d="M357.186 224.33C356.837 225.846 356.254 227.361 355.787 228.76C350.774 243.334 342.38 252.778 342.38 252.778H331.653C329.788 252.195 328.272 250.562 327.923 248.58L327.689 247.298C326.757 241.119 326.757 234.94 327.573 228.76L327.689 228.061L328.039 225.496C328.389 222.931 330.604 220.949 333.169 220.949H357.886C357.769 222.115 357.419 223.281 357.186 224.33Z" fill="#3182A7"/>
    <path d="M358.469 218.501C358.469 218.617 358.469 218.734 358.352 218.85C358.236 219.55 358.119 220.249 358.002 220.949C357.769 222.115 357.419 223.281 357.186 224.33C356.836 225.846 356.254 227.361 355.787 228.76H329.905C329.088 228.76 328.389 228.527 327.806 228.061C326.873 227.478 326.407 226.429 326.407 225.146V221.998C326.407 221.649 326.407 221.182 326.64 220.832C327.106 219.433 328.389 218.384 330.021 218.384H358.469V218.501Z" fill="#3182A7"/>
    <path d="M331.653 252.894H342.38C342.38 252.894 350.774 243.451 355.787 228.877C356.254 227.478 356.72 225.962 357.186 224.447C356.487 222.465 354.505 221.066 352.29 221.066H333.286H326.524H323.142H323.026C321.16 221.066 319.528 221.998 318.596 223.514C318.246 224.097 317.896 224.796 317.896 225.613L317.546 228.76V228.877C316.73 235.056 316.847 241.235 317.663 247.415L317.896 248.697C318.013 249.513 318.246 250.213 318.712 250.796C319.412 251.845 320.461 252.661 321.627 253.011H331.653V252.894Z" fill="#CAEEFF"/>
    <path d="M358.352 218.967C358.236 219.667 358.119 220.366 358.002 221.066C357.769 222.231 357.419 223.397 357.186 224.447C356.836 225.962 356.254 227.478 355.787 228.877H318.479C318.129 228.877 317.779 228.877 317.43 228.644C316.031 228.177 314.981 226.895 314.981 225.263V222.115C314.981 221.765 314.981 221.415 315.098 221.066C315.564 219.55 316.847 218.501 318.479 218.501H356.72C357.303 218.501 357.886 218.734 358.352 218.967Z" fill="#40A9DA"/>
    <path d="M332.236 232.608H342.962C344.012 232.608 344.828 231.792 344.828 230.742C344.828 229.693 344.012 228.877 342.962 228.877H332.236C331.187 228.877 330.371 229.693 330.371 230.742C330.371 231.792 331.187 232.608 332.236 232.608Z" fill="white"/>
    <path d="M98.7097 99.9302V252.894H21.7613C21.6448 252.661 21.5282 252.428 21.4116 252.311C18.2637 247.065 15.5822 242.168 13.1338 237.271C12.6675 236.339 12.2011 235.289 11.7347 234.357C10.802 232.258 9.86933 230.276 9.05321 228.294C8.82003 227.711 8.47027 227.012 8.23709 226.429C6.02191 220.832 4.27308 215.586 2.99061 210.456C2.75743 209.523 2.52426 208.474 2.29108 207.541C1.82473 205.443 1.47496 203.461 1.1252 201.479C1.00861 200.896 0.892019 200.196 0.892019 199.613C0.892019 199.264 0.77543 198.797 0.77543 198.447C0.77543 198.098 0.658843 197.748 0.658843 197.398C0.0759005 191.569 0.0758998 186.089 0.77543 180.959C0.892019 180.26 0.89202 179.677 1.00861 178.977C1.24179 177.811 1.35837 176.645 1.70814 175.479C1.82473 174.897 1.94132 174.197 2.17449 173.614C2.17449 173.381 2.29108 173.264 2.29108 173.031C3.80673 167.202 6.1385 161.839 9.05321 157.059C9.63615 156.009 10.3357 155.076 10.9186 154.144C12.4343 152.045 13.9499 149.947 15.6988 148.081C16.2817 147.382 16.8646 146.799 17.4476 146.216C32.6041 130.593 54.6393 123.248 70.7285 121.965C76.3247 121.499 80.9883 119.75 84.8357 116.952C90.4319 112.755 94.6291 106.925 98.7097 99.9302Z" fill="#CAEEFF"/>
    <path d="M84.8357 116.719V252.894H21.7613C21.6448 252.661 21.5282 252.428 21.4116 252.311C18.2637 247.065 15.5822 242.168 13.1338 237.271C12.6675 236.339 12.2011 235.289 11.7347 234.357C10.802 232.258 9.86933 230.276 9.05321 228.294C8.82003 227.711 8.47027 227.012 8.23709 226.429C6.02191 220.832 4.27308 215.586 2.99061 210.456C2.75743 209.523 2.52426 208.474 2.29108 207.541C1.82473 205.443 1.47496 203.461 1.1252 201.479C1.00861 200.896 0.892019 200.196 0.892019 199.613C0.892019 199.264 0.77543 198.797 0.77543 198.447C0.77543 198.098 0.658843 197.748 0.658843 197.398C0.0759005 191.569 0.0758998 186.089 0.77543 180.959C0.892019 180.26 0.89202 179.677 1.00861 178.977C1.24179 177.811 1.35837 176.645 1.70814 175.479C1.82473 174.897 1.94132 174.197 2.17449 173.614C2.17449 173.381 2.29108 173.264 2.29108 173.031C3.80673 167.202 6.1385 161.839 9.05321 157.059C9.63615 156.009 10.3357 155.077 10.9186 154.144C12.4343 152.045 13.9499 149.947 15.6988 148.081C16.2817 147.382 16.8646 146.799 17.4476 146.216C32.6041 130.593 54.6393 123.248 70.7285 121.965C76.3247 121.382 80.8717 119.517 84.8357 116.719Z" fill="#8CDBFF"/>
    <path d="M28.2903 168.368L28.1737 169.417C27.9405 171.399 26.1917 172.915 24.2097 172.915H2.29108C3.80673 167.085 6.1385 161.722 9.05321 156.942C9.63616 155.893 10.3357 154.96 10.9186 154.027C12.4343 151.929 13.9499 149.83 15.6988 147.965H24.0931C26.1917 147.965 27.824 149.48 28.1737 151.462L28.5235 153.911V154.027C29.1064 158.807 28.9898 163.587 28.2903 168.368Z" fill="#CAEEFF"/>
    <path d="M30.3889 148.781V151.229C30.3889 152.512 29.5728 153.561 28.4069 153.911C28.1737 154.027 27.824 154.027 27.5908 154.027H10.9186C12.4343 151.929 13.9499 149.83 15.6988 147.965C16.2817 147.265 16.8646 146.682 17.4476 146.099H27.5908C29.1064 145.983 30.3889 147.265 30.3889 148.781Z" fill="#40A9DA"/>
    <path d="M18.3803 155.426C18.3803 156.242 17.6808 156.942 16.8646 156.942H8.93663C9.51957 155.893 10.2191 154.96 10.802 154.027H16.8646C17.6808 154.027 18.3803 154.61 18.3803 155.426Z" fill="white"/>
    <path d="M30.7387 195.183L30.6221 196.232C30.3889 197.864 29.223 199.03 27.8239 199.497C27.4742 199.613 27.1244 199.613 26.7747 199.73H3.80673C3.45696 199.73 2.99061 199.73 2.64085 199.497C1.94132 199.264 1.35837 198.914 0.77543 198.331C0.77543 197.981 0.658843 197.631 0.658843 197.282C0.0759005 191.452 0.0758998 185.972 0.77543 180.843C0.892019 180.143 0.89202 179.56 1.00861 178.861C1.24179 177.695 1.35837 176.529 1.70814 175.363C2.17449 175.13 2.64085 174.897 3.1072 174.78C3.34038 174.78 3.57355 174.78 3.80673 174.78H26.5415C28.6401 174.78 30.2723 176.296 30.5055 178.278L30.7387 180.26L30.8552 180.843C31.4382 185.623 31.4382 190.403 30.7387 195.183Z" fill="#3182A7"/>
    <path d="M31.9045 175.596V178.044C31.9045 178.977 31.4382 179.793 30.7387 180.26C30.2723 180.609 29.6894 180.843 29.1064 180.843H0.775429C0.892017 180.143 0.892018 179.56 1.00861 178.861C1.24178 177.695 1.35837 176.529 1.70814 175.363C1.82472 174.78 1.94131 174.08 2.17449 173.497C2.17449 173.264 2.29108 173.148 2.29108 172.915H29.223C30.3889 172.915 31.4382 173.731 31.9045 174.78C31.9045 175.013 31.9045 175.363 31.9045 175.596Z" fill="#3182A7"/>
    <path d="M11.7347 199.73H34.4695C36.4515 199.73 38.2003 198.214 38.4335 196.232L38.5501 195.183C39.2496 190.403 39.2496 185.623 38.6667 180.726L38.3169 178.161C38.0837 176.179 36.3349 174.663 34.3529 174.663H11.7347C9.75274 174.663 8.1205 176.062 7.77074 178.044C6.72144 184.107 6.72144 190.286 7.77074 196.232C8.1205 198.214 9.75274 199.73 11.7347 199.73Z" fill="#CAEEFF"/>
    <path d="M37.9671 180.843H8.23709C6.72144 180.843 5.43896 179.56 5.43896 178.044V175.596C5.43896 174.08 6.72144 172.798 8.23709 172.798H37.9671C39.4828 172.798 40.7653 174.08 40.7653 175.596V178.044C40.7653 179.56 39.4828 180.843 37.9671 180.843Z" fill="#40A9DA"/>
    <path d="M27.241 183.757H18.9632C18.1471 183.757 17.4476 183.058 17.4476 182.242C17.4476 181.425 18.1471 180.843 18.9632 180.843H27.241C28.0571 180.843 28.7567 181.542 28.7567 182.242C28.7567 183.058 28.0571 183.757 27.241 183.757Z" fill="white"/>
    <path d="M1.1252 195.183L1.00861 196.232C1.00861 196.582 0.89202 196.932 0.658843 197.282C0.0759005 191.452 0.0758998 185.972 0.77543 180.843C0.892019 180.143 0.89202 179.56 1.00861 178.861L1.24178 180.726V180.843C1.82473 185.623 1.82473 190.403 1.1252 195.183Z" fill="#CAEEFF"/>
    <path d="M3.22379 175.596V178.044C3.22379 179.327 2.40767 180.376 1.35837 180.726C1.24179 180.726 1.00861 180.843 0.892021 180.843C1.00861 180.143 1.00861 179.56 1.1252 178.861C1.35837 177.695 1.47496 176.529 1.82473 175.363C1.94132 174.78 2.05791 174.08 2.29108 173.497C2.75744 173.847 3.1072 174.314 3.22379 174.897C3.1072 175.13 3.22379 175.363 3.22379 175.596Z" fill="#40A9DA"/>
    <path d="M23.277 226.312H46.0117C47.9937 226.312 49.7426 224.796 49.9757 222.814L50.0923 221.765C50.7919 216.985 50.7919 212.205 50.2089 207.425L49.8592 204.86C49.626 202.878 47.8772 201.362 45.8952 201.362H23.277C21.295 201.362 19.6628 202.761 19.313 204.743C18.2637 210.806 18.2637 216.868 19.313 222.931C19.5462 224.913 21.295 226.312 23.277 226.312Z" fill="#3182A7"/>
    <path d="M48.5767 207.425H18.8466C17.331 207.425 16.0485 206.142 16.0485 204.627V202.178C16.0485 200.663 17.331 199.38 18.8466 199.38H48.5767C50.0923 199.38 51.3748 200.663 51.3748 202.178V204.627C51.3748 206.259 50.0923 207.425 48.5767 207.425Z" fill="#3182A7"/>
    <path d="M31.205 226.312H53.9398C55.9218 226.312 57.6706 224.796 57.9038 222.814L58.0204 221.765C58.7199 216.985 58.7199 212.205 58.1369 207.425L57.7872 204.86C57.554 202.878 55.8052 201.362 53.8232 201.362H31.205C29.223 201.362 27.5908 202.761 27.241 204.743C26.1917 210.806 26.1917 216.868 27.241 222.931C27.4742 224.913 29.223 226.312 31.205 226.312Z" fill="#CAEEFF"/>
    <path d="M57.3208 207.425H27.7074C26.1917 207.425 24.9092 206.142 24.9092 204.627V202.178C24.9092 200.663 26.1917 199.38 27.7074 199.38H57.4374C58.9531 199.38 60.2355 200.663 60.2355 202.178V204.627C60.1189 206.259 58.9531 207.425 57.3208 207.425Z" fill="#40A9DA"/>
    <path d="M46.7113 210.456H38.4335C37.6174 210.456 36.9178 209.756 36.9178 208.94C36.9178 208.124 37.6174 207.541 38.4335 207.541H46.7113C47.5274 207.541 48.2269 208.241 48.2269 208.94C48.1103 209.756 47.5274 210.456 46.7113 210.456Z" fill="white"/>
    <path d="M12.6675 221.882L12.5509 222.931C12.2011 224.913 10.5689 226.429 8.58686 226.429H8.35369C6.1385 220.832 4.38968 215.586 3.10721 210.456C2.87403 209.523 2.64085 208.474 2.40768 207.541C1.94132 205.443 1.59156 203.461 1.24179 201.479H8.47027C10.5689 201.479 12.2011 202.994 12.4343 204.976L12.784 207.425C13.367 212.205 13.367 217.102 12.6675 221.882Z" fill="#3182A7"/>
    <path d="M20.5955 221.882L20.4789 222.931C20.3623 223.514 20.1291 224.097 19.8959 224.563C19.1964 225.729 17.9139 226.429 16.5149 226.429H8.35368C6.1385 220.832 4.38968 215.586 3.10721 210.456C2.87403 209.523 2.64085 208.474 2.40768 207.541C1.94132 205.443 1.59156 203.461 1.24179 201.479H16.3983C17.7973 201.479 19.0798 202.178 19.7794 203.344C20.1291 203.81 20.2457 204.393 20.3623 204.976L20.7121 207.425V207.541C21.295 212.205 21.295 217.102 20.5955 221.882Z" fill="#CAEEFF"/>
    <path d="M22.5775 202.295V204.743C22.5775 206.026 21.7613 207.075 20.5955 207.425C20.3623 207.541 20.0125 207.541 19.7793 207.541H2.29108C1.82473 205.443 1.47496 203.461 1.1252 201.479C1.00861 200.896 0.892021 200.196 0.892021 199.613H19.7793C20.1291 199.613 20.4789 199.73 20.7121 199.846C21.5282 200.196 22.2277 200.779 22.4609 201.595C22.5775 201.712 22.5775 201.945 22.5775 202.295Z" fill="#40A9DA"/>
    <path d="M10.5689 208.94C10.5689 209.756 9.86933 210.456 9.05321 210.456H2.99062C2.75744 209.523 2.52426 208.474 2.29108 207.541H9.05321C9.98592 207.425 10.5689 208.124 10.5689 208.94Z" fill="white"/>
    <path d="M60.4687 248.697L60.3521 249.746C60.1189 251.262 59.1862 252.428 57.7872 253.011H32.1377C31.3216 252.661 30.6221 252.195 30.1557 251.379C29.806 250.912 29.6894 250.446 29.5728 249.863C28.6401 244.733 28.5235 239.487 29.223 234.357C29.3396 233.424 29.4562 232.491 29.5728 231.675C29.6894 231.092 29.806 230.626 30.1557 230.159C30.7387 229.227 31.6714 228.527 32.8373 228.294C33.0704 228.294 33.3036 228.294 33.5368 228.294H56.2715C58.3701 228.294 60.0024 229.81 60.2355 231.792L60.4687 233.774L60.5853 234.24C61.2848 239.137 61.1682 243.917 60.4687 248.697Z" fill="#3182A7"/>
    <path d="M58.9531 234.357H29.223C27.7074 234.357 26.4249 233.074 26.4249 231.559V229.11C26.4249 227.595 27.7074 226.312 29.223 226.312H58.9531C60.4687 226.312 61.7512 227.595 61.7512 229.11V231.559C61.7512 233.074 60.4687 234.357 58.9531 234.357Z" fill="#3182A7"/>
    <path d="M68.5133 248.697L68.3967 249.746C68.1635 251.262 67.1142 252.428 65.8318 253.011H40.1823C38.8999 252.544 37.8506 251.379 37.6174 249.863C36.6847 244.733 36.5681 239.487 37.2676 234.357V234.24C37.3842 233.424 37.5008 232.491 37.6174 231.675C37.9671 229.693 39.5994 228.294 41.5814 228.294H64.3161C66.4147 228.294 68.047 229.81 68.3967 231.792L68.7465 234.24V234.357C69.2128 239.02 69.0963 243.917 68.5133 248.697Z" fill="#CAEEFF"/>
    <path d="M67.6972 234.357H38.0837C36.5681 234.357 35.2856 233.074 35.2856 231.559V229.11C35.2856 227.595 36.5681 226.312 38.0837 226.312H67.8138C69.3294 226.312 70.6119 227.595 70.6119 229.11V231.559C70.4953 233.074 69.2128 234.357 67.6972 234.357Z" fill="#40A9DA"/>
    <path d="M56.9711 237.271H48.6933C47.8772 237.271 47.1776 236.572 47.1776 235.756C47.1776 234.94 47.8772 234.357 48.6933 234.357H56.9711C57.7872 234.357 58.4867 235.056 58.4867 235.756C58.4867 236.572 57.7872 237.271 56.9711 237.271Z" fill="white"/>
    <path d="M23.0438 248.697L22.9272 249.746C22.8106 250.796 22.2277 251.728 21.4116 252.311C18.2637 247.065 15.5822 242.168 13.1338 237.271C12.6675 236.339 12.2011 235.289 11.7347 234.357C10.802 232.258 9.86933 230.276 9.05322 228.294H18.7301C20.8286 228.294 22.4609 229.81 22.8106 231.792L23.0438 233.774L23.1604 234.24C23.7434 239.137 23.6268 243.917 23.0438 248.697Z" fill="#3182A7"/>
    <path d="M24.2097 229.11V231.559C24.2097 232.491 23.7434 233.307 23.0438 233.774C22.5775 234.123 21.9945 234.357 21.4116 234.357H11.7347C10.802 232.258 9.86933 230.276 9.05321 228.294C8.82004 227.711 8.47027 227.012 8.23709 226.429H21.4116C22.5775 226.429 23.6268 227.245 24.0931 228.294C24.0931 228.527 24.2097 228.76 24.2097 229.11Z" fill="#3182A7"/>
    <path d="M30.9718 248.697L30.8553 249.746C30.7387 250.329 30.5055 250.912 30.2723 251.379C29.806 252.078 29.1064 252.661 28.2903 253.011H21.8779C21.7614 252.778 21.6448 252.544 21.5282 252.428C18.3803 247.181 15.6988 242.285 13.2504 237.388C12.784 236.455 12.3177 235.406 11.8513 234.473C10.9186 232.375 9.98592 230.393 9.1698 228.411H26.7747C28.1737 228.411 29.4562 229.11 30.2723 230.276C30.6221 230.742 30.7387 231.325 30.8553 231.908L31.205 234.357V234.473C31.6714 239.137 31.5548 243.917 30.9718 248.697Z" fill="#CAEEFF"/>
    <path d="M32.9538 229.11V231.559C32.9538 232.841 32.1377 233.89 30.9718 234.24C30.7387 234.357 30.3889 234.357 30.1557 234.357H11.7347C10.802 232.258 9.86933 230.276 9.05321 228.294C8.82004 227.711 8.47027 227.012 8.23709 226.429H30.1557C31.4382 226.429 32.4875 227.245 32.8373 228.411C32.9538 228.527 32.9538 228.76 32.9538 229.11Z" fill="#40A9DA"/>
    <path d="M20.9452 235.756C20.9452 236.572 20.2457 237.271 19.4296 237.271H13.1338C12.6674 236.339 12.2011 235.289 11.7347 234.357H19.5462C20.3623 234.357 20.9452 234.94 20.9452 235.756Z" fill="white"/>
    <path d="M147.793 130.71C147.793 130.71 189.998 102.145 198.859 95.4998C198.859 95.4998 181.138 52.2455 176.824 43.2682C176.824 43.2682 171.228 42.2189 163.3 33.5914C155.255 25.0804 151.641 23.215 154.089 21.233C156.538 19.251 165.865 26.0131 165.865 26.0131C165.865 26.0131 157.004 12.6055 160.268 6.65944C163.533 0.713434 165.282 -0.335863 173.443 2.34567C181.604 5.0272 186.151 26.4795 191.98 37.9051C197.693 49.3308 228.473 86.1728 226.374 96.4325C222.876 114.154 197.11 142.835 157.237 161.839C157.12 161.955 143.013 138.638 147.793 130.71Z" fill="url(#paint0_linear)"/>
    <path d="M201.657 136.772C201.657 136.772 204.922 136.539 209.119 132.808C213.433 129.077 206.321 113.921 194.895 106.692C183.469 99.5804 181.954 99.9302 180.671 100.397C179.389 100.863 172.743 105.177 174.142 108.558L201.657 136.772Z" fill="#A7E3FF"/>
    <path d="M174.142 108.441C175.891 107.275 178.106 107.159 179.855 108.091C180.205 108.208 180.438 108.441 180.788 108.558C196.061 116.836 200.958 126.512 202.59 131.642C202.59 131.642 202.59 131.642 202.59 131.759C203.29 133.857 202.473 136.189 200.725 137.588C189.765 146.449 178.106 153.794 171.344 157.758C167.847 159.857 165.631 161.023 165.631 161.023C163.649 161.955 161.784 162.771 160.268 163.121C148.959 165.803 142.314 164.287 138.816 162.538C136.601 161.489 136.135 129.31 138.35 128.145C156.538 119.167 165.515 114.62 174.142 108.441Z" fill="#0072A7"/>
    <path d="M100.925 94.6837C101.041 95.0335 100.925 95.2666 100.692 95.4998L98.9429 97.0155V96.8989C98.7097 96.3159 98.5931 95.8496 98.3599 95.2666C98.3599 95.2666 98.3599 95.2666 98.3599 95.15C98.1267 94.6837 98.0102 94.1008 97.777 93.6344C97.777 93.5178 97.6604 93.2846 97.6604 93.168L100.342 93.9842C100.342 93.5178 100.225 92.9349 100.109 92.4685C100.225 93.0515 100.342 93.5178 100.342 93.9842H100.459C100.575 94.1008 100.808 94.3339 100.925 94.6837Z" fill="url(#paint1_linear)"/>
    <path d="M144.296 64.9536C143.363 64.8371 142.547 64.6039 141.847 64.1375C141.731 64.0209 141.498 64.0209 141.381 63.9043C141.264 63.7878 141.148 63.7878 141.031 63.6712C140.915 63.5546 140.682 63.438 140.565 63.3214C140.332 63.0882 140.099 62.9716 139.865 62.7385C139.749 62.6219 139.632 62.5053 139.516 62.3887C139.282 62.1555 139.166 61.9223 138.933 61.6892C138.233 60.7565 137.65 59.8238 137.3 59.1242C137.184 58.891 137.067 58.7745 137.067 58.5413C137.067 58.4247 136.951 58.3081 136.951 58.3081V58.1915C136.951 58.0749 136.834 57.9583 136.834 57.8417V57.7252C136.834 57.7252 136.834 57.6086 136.718 57.492C136.718 57.2588 136.601 57.1422 136.601 57.1422C137.3 60.2901 129.489 68.5679 122.027 67.9849C114.566 67.402 116.315 61.3394 116.315 61.3394C116.315 61.3394 96.7277 64.6039 95.3286 72.9982C94.7457 76.3793 96.1447 80.5765 97.5438 84.6571C97.777 85.24 98.0102 85.823 98.2433 86.4059C98.4765 86.9888 98.5931 87.5718 98.8263 88.0381C97.777 87.805 96.7277 87.5718 95.6784 87.805C93.23 80.8097 90.4319 70.4333 95.5618 65.42C95.9116 65.0702 96.2613 64.7205 96.7277 64.3707C96.8443 64.2541 96.8443 64.2541 96.9609 64.1375C97.194 63.9043 97.5438 63.6712 97.777 63.438C97.8936 63.3214 98.1267 63.2048 98.2433 63.0882C98.5931 62.855 98.8263 62.6219 99.176 62.2721C99.5258 62.0389 99.8756 61.8058 100.225 61.5726C100.575 61.3394 100.925 61.1062 101.275 60.873C101.858 60.5233 102.324 60.1735 102.907 59.8238C103.14 59.5906 103.49 59.474 103.723 59.2408C103.956 59.1242 104.306 58.891 104.539 58.7745C105.239 58.3081 106.055 57.8417 106.871 57.492C107.221 57.2588 107.57 57.1422 107.92 56.909C108.736 56.4427 109.552 56.0929 110.485 55.7432C110.835 55.51 111.301 55.3934 111.651 55.1602C112.001 55.0436 112.467 54.8104 112.817 54.6939C113.283 54.4607 113.75 54.3441 114.216 54.1109C114.799 53.8777 115.382 53.6446 115.965 53.528C116.548 53.2948 117.131 53.0616 117.597 52.945C118.18 52.7119 118.763 52.5953 119.229 52.3621C119.812 52.2455 120.279 52.0123 120.861 51.8957H120.978C122.61 51.4294 124.243 51.0796 125.758 50.8464C126.108 50.8464 126.458 50.7299 126.691 50.7299C127.274 50.6133 127.973 50.6133 128.556 50.4967C128.79 50.4967 129.023 50.4967 129.139 50.4967C131.471 50.3801 133.336 50.6133 134.619 51.3128C134.969 51.4294 135.318 51.6626 135.552 51.8957C135.785 52.0123 136.018 52.2455 136.251 52.3621C136.251 52.3621 136.368 52.4787 136.484 52.4787C136.718 52.5953 136.951 52.8284 137.067 52.945C137.184 52.945 137.184 53.0616 137.3 53.0616C137.534 53.1782 137.65 53.4114 137.883 53.528C138 53.528 138 53.6446 138.117 53.7611C138.35 53.8777 138.466 54.1109 138.583 54.2275C138.7 54.3441 138.816 54.4607 138.933 54.5773C139.166 54.8104 139.282 55.0436 139.516 55.2768C139.749 55.51 139.865 55.7432 140.099 55.9763C140.215 56.0929 140.332 56.3261 140.448 56.4427C140.798 57.0256 141.148 57.492 141.498 58.1915C142.081 59.1242 142.547 60.1735 143.013 61.3394C143.13 61.6892 143.363 62.0389 143.48 62.3887C143.596 62.6219 143.713 62.9716 143.829 63.2048C143.946 63.5546 144.179 64.0209 144.296 64.3707C144.179 64.7205 144.296 64.8371 144.296 64.9536Z" fill="url(#paint2_linear)"/>
    <path d="M150.125 94.1007C149.775 90.6031 149.309 87.222 148.726 83.841C148.61 82.7917 148.376 81.7424 148.143 80.6931C147.327 75.9129 146.278 71.366 144.995 67.2854C144.762 66.4693 144.529 65.7698 144.296 64.9536C144.063 64.9536 143.829 64.837 143.596 64.837C143.48 64.837 143.363 64.837 143.246 64.7204C143.13 64.7204 143.013 64.6039 142.897 64.6039C142.664 64.6039 142.547 64.4873 142.314 64.3707C142.081 64.2541 141.964 64.2541 141.731 64.1375C141.614 64.0209 141.381 64.0209 141.264 63.9043C141.148 63.9043 141.148 63.7877 141.031 63.7877H140.915C140.798 63.6712 140.565 63.5546 140.448 63.438C140.215 63.2048 139.982 63.0882 139.749 62.855C139.632 62.7384 139.516 62.6219 139.399 62.5053C139.166 62.2721 138.933 62.0389 138.816 61.8057C138.117 60.873 137.534 59.9403 137.184 59.2408C137.067 59.0076 136.951 58.891 136.951 58.6579C136.951 58.5413 136.834 58.4247 136.834 58.4247V58.3081C136.834 58.1915 136.718 58.0749 136.718 57.9583V57.8417C136.718 57.7251 136.718 57.7251 136.718 57.6086C136.718 57.3754 136.601 57.2588 136.601 57.2588C137.3 60.4067 129.489 68.6845 122.027 68.1015C114.566 67.5186 116.315 61.456 116.315 61.456C116.315 61.456 96.7277 64.7205 95.3286 73.1148C94.7457 76.4959 96.1447 80.6931 97.5438 84.7737C97.777 85.3566 98.0101 85.9395 98.1267 86.5225C98.3599 87.1054 98.4765 87.6884 98.7097 88.1547C97.6604 87.9215 96.6111 87.805 95.5618 87.9215C95.3286 87.9215 94.9788 88.0381 94.7457 88.0381C93.3466 88.3879 92.0641 89.3206 91.0148 90.9528C90.8983 91.186 90.7817 91.3026 90.6651 91.5358C87.7504 97.3652 95.212 105.41 101.158 102.495C105.588 112.172 111.301 119.983 117.247 120.566C127.507 121.616 152.457 113.221 150.125 94.1007ZM100.692 95.4998L98.9429 97.0154L97.194 98.6477C97.0774 98.7643 96.9609 98.7643 96.8443 98.8809C96.4945 98.9975 96.2613 98.8809 96.0281 98.6477C95.6784 98.2979 95.6784 97.715 96.0281 97.4818L96.3779 97.132L98.2433 95.3832C98.2433 95.3832 98.2433 95.3832 98.2433 95.2666L95.0954 94.3339C94.6291 94.2173 94.3959 93.751 94.5125 93.2846C94.6291 92.8183 95.0954 92.5851 95.5618 92.7017L97.4272 93.2846L100.109 94.1007C100.109 93.9841 100.109 93.8676 100.109 93.8676C100.109 93.9841 100.109 93.9841 100.109 94.1007H100.225C100.575 94.2173 100.692 94.4505 100.808 94.6837C100.925 94.9169 100.925 95.2666 100.692 95.4998Z" fill="url(#paint3_linear)"/>
    <path d="M99.9922 92.4685C100.109 93.0515 100.225 93.5178 100.225 93.9842C100.225 94.2173 100.225 94.4505 100.225 94.6837C100.225 94.8003 100.225 94.9169 100.225 95.1501C100.225 95.2666 100.109 95.3832 100.109 95.4998C99.9922 95.8496 99.8756 96.1994 99.5258 96.4325C99.4092 96.6657 99.176 96.7823 98.9429 96.8989C98.7097 97.0155 98.4765 97.1321 98.1267 97.2487C97.6604 97.3652 97.0774 97.2487 96.4945 97.1321L98.3599 95.3832C98.3599 95.3832 98.3599 95.3832 98.3599 95.2667L95.212 94.3339C94.7457 94.2174 94.5125 93.751 94.6291 93.2846C94.7457 92.8183 95.212 92.5851 95.6784 92.7017L97.6604 93.2846L100.342 94.1008C100.109 93.5178 100.109 92.9349 99.9922 92.4685Z" fill="#0072A7"/>
    <path d="M152.574 62.9716C149.192 64.8371 146.394 65.3034 144.296 65.0702C143.363 64.9536 142.547 64.6039 141.847 64.2541C141.731 64.1375 141.498 64.1375 141.381 64.0209C141.264 63.9044 141.148 63.9044 141.031 63.7878C140.915 63.6712 140.682 63.5546 140.565 63.438C140.332 63.2048 140.099 63.0882 139.865 62.8551C139.749 62.7385 139.632 62.6219 139.516 62.5053C139.282 62.2721 139.166 62.0389 138.933 61.8058C138.233 60.8731 137.65 59.9403 137.3 59.2408C137.184 59.0076 137.067 58.8911 137.067 58.6579C137.067 58.5413 136.951 58.4247 136.951 58.4247V58.3081C136.951 58.1915 136.834 58.0749 136.834 57.9583V57.8417C136.834 57.8417 136.834 57.7252 136.718 57.6086C136.718 57.3754 136.601 57.2588 136.601 57.2588C137.3 60.4067 129.489 68.6845 122.027 68.1015C114.566 67.5186 116.315 61.456 116.315 61.456C116.315 61.456 96.7277 64.7205 95.3286 73.1148C94.7457 76.4959 96.1447 80.6931 97.5438 84.7737C97.777 85.3566 98.0102 85.9396 98.2433 86.5225C98.4765 87.1054 98.5931 87.6884 98.8263 88.1547C97.777 87.9216 96.7277 87.6884 95.6784 87.9216C95.4452 87.9216 95.0954 88.0382 94.8623 88.0382C93.4632 88.3879 92.1807 89.3206 91.1314 90.9529C91.0149 91.186 90.8983 91.3026 90.7817 91.5358C85.5352 83.9576 81.4546 71.1328 87.1674 68.6845C82.8537 64.6039 84.6025 55.9763 89.849 60.5233C86.2347 46.2995 98.9429 37.2056 113.983 34.0577C128.906 30.9098 147.793 41.2862 141.614 48.3981C146.628 44.6673 165.398 55.9763 152.574 62.9716Z" fill="#0072A7"/>
    <path d="M134.852 102.495C125.175 105.06 119.229 100.047 118.996 99.8136C118.53 99.4638 118.53 98.7643 118.879 98.2979C119.229 97.8316 119.929 97.8316 120.395 98.1813C120.745 98.4145 127.74 104.361 139.166 98.5311C139.632 98.2979 140.332 98.5311 140.565 98.9975C140.798 99.4638 140.565 100.163 140.099 100.397C138.233 101.329 136.484 102.029 134.852 102.495Z" fill="#D6580C"/>
    <path d="M97.5438 93.1681L100.225 93.9842C100.225 94.2173 100.225 94.4505 100.225 94.6837C100.225 94.8003 100.225 94.9169 100.225 95.1501C100.225 95.2666 100.109 95.3832 100.109 95.4998C99.9922 95.8496 99.8756 96.1994 99.5258 96.4325C99.4092 96.5491 99.176 96.7823 98.9429 96.8989C98.7097 96.3159 98.5931 95.8496 98.3599 95.2666C98.3599 95.2666 98.3599 95.2666 98.3599 95.1501C98.1267 94.6837 98.0102 94.1008 97.777 93.6344C97.6604 93.5178 97.6604 93.4012 97.5438 93.1681Z" fill="#004F74"/>
    <path d="M144.296 64.9536C143.363 64.8371 142.547 64.4873 141.847 64.1375C141.731 64.0209 141.498 64.0209 141.381 63.9043C141.264 63.7878 141.148 63.7878 141.031 63.6712C140.915 63.5546 140.682 63.438 140.565 63.3214C140.332 63.0882 140.099 62.9716 139.865 62.7385C139.749 62.6219 139.632 62.5053 139.516 62.3887C139.282 62.1555 139.166 61.9223 138.933 61.6892C138.233 60.7565 137.65 59.8238 137.3 59.1242C137.184 58.891 137.067 58.7745 137.067 58.5413C137.067 58.4247 136.951 58.3081 136.951 58.3081V58.1915C136.951 58.0749 136.834 57.9583 136.834 57.8417V57.7252C136.834 57.6086 136.834 57.6086 136.718 57.492C136.718 57.2588 136.601 57.1422 136.601 57.1422C137.3 60.2901 129.489 68.5679 122.027 67.9849C114.566 67.402 116.315 61.3394 116.315 61.3394C116.315 61.3394 96.7277 64.6039 95.3286 72.9982C94.7457 76.3793 96.1447 80.5765 97.5438 84.6571C97.777 85.24 98.0102 85.823 98.2433 86.4059C98.4765 86.9888 98.5931 87.5718 98.8263 88.0381C97.777 87.805 96.7277 87.5718 95.6784 87.805C93.23 80.8097 90.4319 70.4333 95.5618 65.42C95.9116 65.0702 96.2613 64.7205 96.7277 64.3707C96.8443 64.2541 96.8443 64.2541 96.9609 64.1375C97.194 63.9043 97.5438 63.6712 97.777 63.438C97.8936 63.3214 98.1267 63.2048 98.2433 63.0882C98.5931 62.855 98.8263 62.6219 99.176 62.2721C99.5258 62.0389 99.8756 61.8058 100.225 61.5726C100.575 61.3394 100.925 61.1062 101.275 60.873C101.858 60.5233 102.324 60.1735 102.907 59.8238C103.14 59.5906 103.49 59.474 103.723 59.2408C103.956 59.1242 104.306 58.891 104.539 58.7745C105.239 58.3081 106.055 57.8417 106.871 57.492C107.221 57.2588 107.57 57.1422 107.92 56.909C108.736 56.4427 109.552 56.0929 110.485 55.7432C110.835 55.51 111.301 55.3934 111.651 55.1602C112.001 55.0436 112.467 54.8104 112.817 54.6939C113.283 54.4607 113.75 54.3441 114.216 54.1109C114.799 53.8777 115.382 53.6446 115.965 53.528C116.548 53.2948 117.131 53.0616 117.597 52.945C118.18 52.7119 118.763 52.5953 119.229 52.3621C119.812 52.2455 120.279 52.0123 120.861 51.8957H120.978C122.61 51.4294 124.243 51.0796 125.758 50.8464C126.108 50.8464 126.458 50.7299 126.691 50.7299C127.274 50.6133 127.973 50.6133 128.556 50.4967C128.79 50.4967 129.023 50.4967 129.139 50.4967C131.471 50.3801 133.336 50.6133 134.619 51.3128C134.969 51.4294 135.318 51.6626 135.552 51.8957C135.785 52.0123 136.018 52.2455 136.251 52.3621C136.251 52.3621 136.368 52.4787 136.484 52.4787C136.718 52.5953 136.951 52.8284 137.067 52.945C137.184 52.945 137.184 53.0616 137.3 53.0616C137.534 53.1782 137.65 53.4114 137.883 53.528C138 53.528 138 53.6446 138.117 53.7611C138.35 53.8777 138.466 54.1109 138.583 54.2275C138.7 54.3441 138.816 54.4607 138.933 54.5773C139.166 54.8104 139.282 55.0436 139.516 55.2768C139.749 55.51 139.865 55.7432 140.099 55.9763C140.215 56.0929 140.332 56.3261 140.448 56.4427C140.798 57.0256 141.148 57.492 141.498 58.1915C142.081 59.1242 142.547 60.1735 143.013 61.3394C143.13 61.6892 143.363 62.0389 143.48 62.3887C143.596 62.6219 143.713 62.9716 143.829 63.2048C143.946 63.5546 144.179 64.0209 144.296 64.3707C144.179 64.7205 144.296 64.8371 144.296 64.9536Z" fill="#004F74"/>
    <path d="M100.925 94.6837C101.041 95.0335 100.925 95.2666 100.692 95.4998L98.9429 97.0155L97.194 98.6477C97.0774 98.7643 96.9609 98.7643 96.8443 98.8809C96.4945 98.9975 96.2613 98.8809 96.0281 98.6477C95.6784 98.2979 95.6784 97.715 96.0281 97.4818L96.3779 97.1321L98.2433 95.3832C98.2433 95.3832 98.2433 95.3832 98.2433 95.2666L95.0954 94.3339C94.6291 94.2173 94.3959 93.751 94.5125 93.2846C94.6291 92.8183 95.0954 92.5851 95.5618 92.7017L97.5438 93.2846L100.225 94.1008C100.225 93.6344 100.109 93.0515 99.9922 92.5851C100.109 93.168 100.225 93.6344 100.225 94.1008H100.342C100.575 94.1008 100.808 94.3339 100.925 94.6837Z" fill="url(#paint4_linear)"/>
    <path d="M100.925 94.6837C101.041 95.0335 100.925 95.2667 100.692 95.4998L98.9429 97.0155L97.194 98.6477C97.0774 98.7643 96.9609 98.7643 96.8443 98.8809C96.4945 98.9975 96.2613 98.8809 96.0281 98.6477C95.6784 98.2979 95.6784 97.715 96.0281 97.4818L96.3779 97.1321L98.2433 95.3832H98.3599H98.2433L95.0954 94.4505C94.6291 94.3339 94.3959 93.8676 94.5125 93.4012C94.6291 92.9349 95.0954 92.7017 95.5618 92.8183L97.5438 93.4012L100.225 94.2174H100.342C100.575 94.1008 100.808 94.3339 100.925 94.6837Z" fill="#F8A33F"/>
    <path d="M126.924 79.0609C126.574 77.7784 125.991 76.4959 125.292 75.4466C124.825 74.7471 124.243 74.0476 123.543 73.4646C120.745 71.0163 116.781 69.8504 112.933 70.8997C106.871 72.5319 103.257 78.8277 104.889 84.8903C106.521 90.9529 112.817 94.5671 118.879 92.9349C124.942 91.4192 128.556 85.1235 126.924 79.0609ZM118.18 90.6031C113.516 91.8856 108.62 89.0875 107.337 84.4239C106.055 79.7604 108.853 74.8637 113.516 73.5812C118.18 72.2987 123.077 75.0969 124.359 79.877C125.642 84.4239 122.96 89.3206 118.18 90.6031Z" fill="#860050"/>
    <path d="M152.224 72.2987C151.291 69.0343 149.076 66.4693 146.278 65.0703C145.578 64.7205 144.762 64.3707 143.946 64.1375C143.013 63.9044 142.081 63.7878 141.031 63.7878C140.099 63.7878 139.166 63.9044 138.117 64.1375C134.269 65.1868 131.354 68.1015 130.189 71.7158C129.955 72.5319 129.722 73.348 129.722 74.2807C129.606 75.5632 129.722 76.8457 130.072 78.1282C131.704 84.1908 138 87.805 144.063 86.1728C145.811 85.7064 147.327 84.8903 148.61 83.7244C151.874 81.0429 153.39 76.6125 152.224 72.2987ZM148.143 80.6931C146.977 82.2088 145.462 83.258 143.48 83.841C138.816 85.1235 133.919 82.3253 132.637 77.6618C131.354 72.9983 134.153 68.1016 138.933 66.8191C141.031 66.2361 143.246 66.4693 145.112 67.402C147.327 68.4513 149.076 70.4333 149.775 73.1149C150.475 75.6798 149.892 78.5945 148.143 80.6931Z" fill="#860050"/>
    <path d="M130.772 74.6305C126.807 72.9982 124.942 75.7964 124.709 76.1461L122.494 74.8637C123.543 73.1148 126.807 70.2001 131.704 72.2987L130.772 74.6305Z" fill="#860050"/>
    <path d="M177.057 236.222C176.824 242.868 176.824 248.58 177.29 252.894H86.9343C86.5845 250.446 86.1181 247.415 85.6518 244.15C85.6518 243.917 85.5352 243.684 85.5352 243.451C85.1854 240.536 84.7191 237.388 84.2527 233.89C84.1361 232.958 84.0195 231.908 83.9029 230.859C83.5532 227.828 83.2034 224.563 82.8537 221.299C82.7371 220.483 82.7371 219.55 82.6205 218.734C82.5039 217.335 82.3873 215.936 82.2707 214.537C82.2707 214.42 82.2707 214.42 82.2707 214.303C82.2707 214.187 82.2707 214.187 82.2707 214.07C82.0375 211.039 81.6878 207.891 81.5712 204.743C81.5712 204.627 81.5712 204.393 81.5712 204.277C81.4546 202.178 81.338 200.08 81.2214 197.981C81.2214 197.398 81.2214 196.815 81.1048 196.232C80.7551 188.887 80.5219 181.659 80.7551 174.663C81.2214 151.929 85.0688 133.158 96.2613 131.759H96.3779C96.4945 131.759 96.4945 131.759 96.6111 131.759C96.6111 131.759 106.754 129.893 111.651 128.611C113.283 128.261 115.149 127.795 117.131 127.328C124.243 125.813 133.57 124.414 143.713 124.297C144.529 124.297 145.228 124.297 146.045 124.297C146.511 124.297 146.977 124.297 147.444 124.297C149.542 124.297 152.34 124.997 154.789 125.813C156.421 126.279 157.82 126.979 159.102 127.562C167.38 131.526 172.277 140.503 175.192 152.045C175.425 152.978 175.658 154.027 175.891 154.96C177.407 162.422 178.223 170.699 178.573 179.443C178.573 180.726 178.689 182.125 178.689 183.407C178.806 187.605 178.806 191.918 178.689 196.232C178.34 210.689 177.407 224.796 177.057 236.222Z" fill="#DF6013"/>
    <path d="M137.3 137.705C127.857 140.503 119.929 131.526 116.897 127.562C124.009 126.046 133.336 124.647 143.48 124.53C144.646 126.629 147.677 134.674 137.3 137.705Z" fill="url(#paint5_linear)"/>
    <path d="M143.596 124.53C144.646 126.746 147.793 134.674 137.3 137.705C127.857 140.503 119.929 131.526 117.014 127.562C115.032 128.028 113.167 128.378 111.534 128.844C115.032 134.557 123.776 145.866 138.117 142.951C155.138 139.57 148.959 127.212 147.327 124.53H143.596Z" fill="white"/>
    <path d="M117.48 236.222H165.515C169.712 236.222 173.326 233.074 173.909 228.877L174.259 226.778C175.775 216.752 175.775 206.492 174.492 196.465L173.793 191.219C173.21 186.905 169.595 183.757 165.282 183.757H117.364C113.167 183.757 109.669 186.789 108.969 190.869C106.754 203.577 106.754 216.519 108.969 229.227C109.786 233.191 113.283 236.222 117.48 236.222Z" fill="#0072A7"/>
    <path d="M170.878 196.465H108.27C105.005 196.465 102.441 193.9 102.441 190.636V185.506C102.441 182.242 105.005 179.677 108.27 179.677H170.878C174.142 179.677 176.707 182.242 176.707 185.506V190.636C176.707 193.9 174.142 196.465 170.878 196.465Z" fill="#0072A7"/>
    <path d="M134.269 236.222H182.187C186.384 236.222 189.998 233.074 190.581 228.877L190.931 226.778C192.447 216.752 192.447 206.492 191.164 196.465L190.465 191.219C189.882 186.905 186.268 183.757 181.954 183.757H134.036C129.839 183.757 126.341 186.789 125.642 190.869C123.426 203.577 123.426 216.519 125.642 229.227C126.458 233.191 130.072 236.222 134.269 236.222Z" fill="#41C3FF"/>
    <path d="M189.415 196.465H126.807C123.543 196.465 120.978 193.9 120.978 190.636V185.506C120.978 182.242 123.543 179.677 126.807 179.677H189.415C192.68 179.677 195.245 182.242 195.245 185.506V190.636C195.245 193.9 192.68 196.465 189.415 196.465Z" fill="#0095DA"/>
    <path d="M166.914 202.645H149.426C147.677 202.645 146.394 201.246 146.394 199.613C146.394 197.864 147.793 196.582 149.426 196.582H166.914C168.663 196.582 169.945 197.981 169.945 199.613C169.945 201.246 168.546 202.645 166.914 202.645Z" fill="#A7E3FF"/>
    <path d="M149.659 238.787C137.417 239.137 128.09 238.787 128.09 238.787L111.418 241.702C73.8763 247.181 51.025 242.634 47.9937 236.222C46.5947 233.191 49.2762 215.353 54.1729 195.882C58.6033 199.73 68.5133 205.676 87.0508 204.743C82.2707 214.42 78.3067 220.949 78.3067 220.949L116.897 224.563C116.897 224.563 127.157 218.967 135.318 216.402C143.48 213.837 161.318 223.164 164.815 226.079C168.313 228.994 161.901 238.554 149.659 238.787Z" fill="url(#paint6_linear)"/>
    <path d="M52.3075 190.753C52.3075 190.753 49.5094 192.735 47.6439 198.564C45.7785 204.393 60.8184 214.303 75.2754 214.42C89.7324 214.537 90.8982 213.371 91.9475 212.205C92.9968 211.039 96.6111 203.344 93.3466 201.129L52.3075 190.753Z" fill="#A7E3FF"/>
    <path d="M93.3466 201.129C92.4139 203.228 90.5485 204.51 88.3333 204.627C87.9835 204.627 87.6338 204.627 87.284 204.743C68.6299 205.676 58.7198 199.73 54.4061 195.882C54.4061 195.882 54.4061 195.882 54.2895 195.882C52.5407 194.25 51.8411 191.802 52.6573 189.47C57.7871 175.246 64.3161 161.955 68.1635 154.61C70.2621 150.763 71.5446 148.431 71.5446 148.431C72.827 146.449 74.1095 144.7 75.2754 143.534C84.1361 134.674 91.0148 132.458 95.212 132.109C97.777 131.875 100.225 133.391 101.275 135.723C110.485 157.525 97.777 190.753 93.3466 201.129Z" fill="#0072A7"/>
    <path d="M120.628 209.873C120.628 209.873 115.615 199.73 117.597 198.914C119.579 198.098 121.444 202.528 121.444 202.528C121.444 202.528 125.408 198.797 127.74 200.313C130.072 201.828 134.153 208.008 132.52 209.523C130.888 211.039 123.31 214.77 120.628 209.873Z" fill="white"/>
    <path d="M123.66 229.11C121.911 231.792 119.346 233.774 115.965 235.056C108.969 237.738 101.741 234.94 95.3286 226.895C90.6651 221.066 87.9835 214.653 87.8669 214.42C87.5172 213.604 87.8669 212.555 88.7997 212.205C89.6158 211.855 90.6651 212.205 91.0148 213.138C91.1314 213.371 101.275 237.155 114.915 231.908C118.413 230.509 120.745 228.411 122.027 225.379C124.825 218.501 120.628 209.64 120.628 209.523C120.279 208.707 120.628 207.658 121.444 207.308C122.261 206.958 123.31 207.308 123.66 208.124C123.893 208.591 128.44 218.384 125.175 226.545C124.592 227.595 124.243 228.294 123.66 229.11Z" fill="white"/>
    <path d="M88.7997 252.894H84.9522C84.2527 248.464 83.5532 245.782 83.5532 245.782C83.4366 245.199 83.5532 244.616 83.9029 244.15C84.1361 243.8 84.4859 243.567 84.9522 243.451C85.1854 243.451 85.4186 243.334 85.6518 243.451C86.1181 243.451 86.4679 243.8 86.8177 244.033C87.0508 244.267 87.1674 244.5 87.1674 244.85C87.1674 245.199 87.9835 248.114 88.7997 252.894Z" fill="white"/>
    <path d="M62.917 252.894H59.0696C58.4867 250.213 58.1369 248.58 58.0203 248.58C58.0203 248.464 58.0203 248.347 58.0203 248.231C57.9037 247.298 58.4867 246.482 59.4194 246.249C60.3521 246.015 61.2848 246.482 61.6345 247.415C61.6345 247.415 61.6346 247.531 61.7511 247.648C61.8677 247.764 62.3341 249.746 62.917 252.894Z" fill="white"/>
    <path d="M35.0524 152.628C34.9358 151.695 35.5187 150.763 36.4515 150.53C37.3842 150.18 38.3169 150.53 38.8998 151.229C38.8998 151.229 41.115 148.314 41.2316 150.296C41.3482 151.695 40.8818 153.444 40.6486 154.377C40.6486 154.377 37.0344 156.126 35.8685 156.242C35.0524 155.659 33.6533 154.494 32.8372 153.561C31.5547 151.929 34.8192 152.512 35.0524 152.628Z" fill="#90BC3F"/>
    <path d="M48.2269 194.717L56.2715 191.802C58.4867 190.986 59.6526 188.537 58.8364 186.322L49.5094 161.139C49.043 159.857 47.9937 158.807 46.5947 158.458L41.5813 157.175C39.8325 156.709 37.9671 157.408 37.0344 158.807L34.0031 163.121C33.187 164.287 33.0704 165.686 33.5367 167.085L42.8638 192.268C43.5634 194.367 46.0117 195.533 48.2269 194.717Z" fill="#90BC3F"/>
    <path d="M39.9491 154.377C39.2496 154.027 38.3169 154.027 37.6173 154.377C37.0344 154.727 36.568 155.193 36.3349 155.893L29.8059 155.659C29.8059 155.659 30.1557 157.991 30.9718 159.74C31.6713 161.605 32.9538 163.471 32.9538 163.471L37.3842 159.041C38.2003 159.623 39.2496 159.74 40.1823 159.274C40.8818 158.924 41.4648 158.224 41.5813 157.525L47.6439 157.758C47.6439 157.758 47.5274 155.543 46.7112 153.794C46.0117 151.929 44.4961 149.947 44.4961 149.947L39.9491 154.377Z" fill="url(#paint7_linear)"/>
    <path d="M38.55 168.134L16.6314 184.224C16.1651 184.573 16.0485 185.273 16.3982 185.739L32.4874 207.658C32.8372 208.124 33.5367 208.241 34.0031 207.891L55.9217 191.802C56.3881 191.452 56.5047 190.753 56.1549 190.286L40.0657 168.368C39.8325 168.018 39.4827 167.901 39.133 167.901C38.8998 167.901 38.7832 168.018 38.55 168.134Z" fill="url(#paint8_linear)"/>
    <path d="M48.1103 197.515L46.2449 194.95L41.4648 188.537L36.2183 181.426L30.8552 174.08C31.205 173.847 31.4381 173.497 31.7879 173.148C32.8372 172.098 33.8865 170.816 34.586 169.533C35.0524 168.601 35.2856 167.785 35.0524 167.085C34.9358 166.502 34.4694 165.803 33.3036 165.453C33.187 165.453 33.0704 165.336 32.8372 165.336C32.4874 165.22 32.1377 165.22 31.7879 165.22C31.6713 165.22 31.5547 165.22 31.4381 165.22C27.8239 165.803 27.7073 171.282 27.8239 173.614C27.3576 173.614 26.7746 173.731 26.3083 174.08C25.8419 174.43 25.6087 175.013 25.4921 175.48C23.5101 174.78 17.7973 173.148 16.2817 176.645C16.0485 176.995 15.9319 177.461 15.9319 177.928C15.8153 179.443 16.3982 180.143 16.9812 180.493C18.4968 181.425 21.1784 180.376 23.277 179.21C23.7433 178.977 24.2097 178.744 24.5594 178.511L27.5907 182.591L41.8145 201.945L48.1103 197.515ZM31.6713 167.318C31.9045 167.318 32.2543 167.318 32.3709 167.435C32.7206 167.551 32.9538 168.018 32.7206 168.368C32.2543 169.3 31.205 170.699 29.5727 172.332C29.8059 170.116 30.2723 167.551 31.6713 167.318ZM18.6134 178.977C18.3802 178.977 18.1471 178.977 17.9139 178.861C17.6807 178.744 17.5641 178.161 18.0305 177.578C18.6134 176.179 21.295 176.529 23.3935 176.995C21.4115 178.161 19.6627 178.977 18.6134 178.977Z" fill="url(#paint9_linear)"/>
    <path d="M72.7105 161.722L44.8458 166.619C44.2629 166.735 43.7965 167.318 43.9131 167.901L48.6932 195.766C48.8098 196.349 49.3928 196.815 49.9757 196.699L77.8403 191.918C78.4233 191.802 78.8896 191.219 78.7731 190.636L73.9929 162.771C73.8763 162.188 73.41 161.839 72.827 161.839C72.827 161.722 72.7105 161.722 72.7105 161.722Z" fill="url(#paint10_linear)"/>
    <path d="M68.5133 156.592C68.1635 156.242 67.6972 156.126 67.3474 156.009C67.3474 156.009 67.3474 156.009 67.2308 156.009C66.7644 155.893 66.4147 155.776 65.9483 155.893C62.917 156.009 60.8184 160.206 59.8857 162.072C59.4194 161.722 58.8364 161.722 58.2535 161.839C57.6705 161.955 57.2042 162.305 56.8544 162.771C55.3388 161.256 51.025 157.292 47.9937 159.39C47.8771 159.507 47.7605 159.507 47.7605 159.623C47.4108 159.973 47.061 160.206 46.8278 160.673C46.0117 161.955 46.2449 162.888 46.5946 163.471C47.2942 164.52 48.9264 164.987 50.6752 165.103C51.4914 165.22 52.3075 165.22 53.1236 165.22C53.59 165.22 54.1729 165.22 54.6392 165.22L56.8544 177.928V178.161L58.1369 185.39L58.7198 188.654L59.4194 192.735L59.7691 195.066L64.899 194.134L67.5806 193.667L64.6658 176.879L62.5673 164.987L62.3341 163.704C62.6839 163.587 62.917 163.471 63.2668 163.354C63.3834 163.354 63.3834 163.354 63.5 163.238C66.0649 162.422 68.9796 161.023 69.3294 159.157C69.9123 158.574 69.7957 157.525 68.5133 156.592ZM50.2089 163.005C49.3928 162.888 48.8098 162.655 48.5767 162.305C48.4601 162.072 48.5766 161.489 49.2762 161.139L49.3928 161.023C50.6752 160.323 52.7738 161.722 54.5227 163.121H54.4061C52.7738 163.121 51.2582 163.121 50.2089 163.005ZM67.2308 159.39C66.7644 159.74 65.9483 160.206 65.0156 160.673C64.3161 161.023 63.5 161.372 62.4507 161.605C63.5 159.74 65.0156 157.641 66.4147 157.875C66.5313 157.875 66.6479 157.875 66.6479 157.875C66.881 157.875 67.1142 158.108 67.2308 158.341C67.5806 158.574 67.5806 159.157 67.2308 159.39Z" fill="url(#paint11_linear)"/>
    <path d="M101.858 245.666C101.974 249.047 99.759 251.961 96.7277 252.894H39.7159L35.7519 243.334C34.2363 239.72 32.7206 235.989 30.9718 232.491C30.2723 231.092 29.5727 229.577 28.8732 228.177C26.0751 222.348 23.0438 216.635 19.7793 211.039L16.8646 206.026C15.8153 204.277 15.5821 202.062 16.2817 200.08L19.6627 190.403L20.5954 187.838C21.4115 185.273 23.6267 183.524 26.3083 183.058L27.5907 182.825L36.1017 181.425L38.55 181.076L46.0117 179.91L48.2269 179.56L55.8051 178.394L56.971 178.161H57.0876L64.899 176.995L76.0915 175.246L77.8403 175.013C78.0735 175.013 78.3067 175.013 78.5399 174.897C79.2394 174.897 79.8224 174.897 80.5219 175.013C82.3873 175.363 84.0195 176.529 85.0688 178.161L85.7684 179.327C89.0328 184.457 91.7144 191.802 93.813 199.73C95.9116 207.308 97.4272 215.586 98.7097 222.931C98.9429 224.213 99.176 225.496 99.2926 226.662C99.5258 228.527 99.8756 230.276 100.109 232.025C100.692 236.805 101.158 240.652 101.391 243.101C101.741 244.733 101.858 245.666 101.858 245.666Z" fill="url(#paint12_linear)"/>
    <g style="mix-blend-mode:multiply" opacity="0.3">
        <path d="M51.4914 252.894H39.7159L35.7519 243.334C31.205 232.258 25.8419 221.415 19.8959 211.039L16.9812 206.026C15.9319 204.277 15.6987 202.062 16.3982 200.08L20.5954 187.838C21.4115 185.273 23.6267 183.524 26.3083 183.058C23.0438 183.99 23.6267 186.789 25.3755 189.237C27.1244 191.685 35.2856 204.86 40.0657 216.985C44.9624 228.994 50.7918 251.145 51.4914 252.894Z" fill="url(#paint13_linear)"/>
    </g>
    <path d="M85.7684 213.604C77.6072 216.285 69.2128 218.151 60.7018 219.317L56.971 219.783C56.971 219.783 54.989 230.509 61.1682 234.24C67.3474 237.971 82.3873 236.922 88.3333 231.325C94.2793 225.729 89.266 212.321 89.266 212.321L85.7684 213.604Z" fill="url(#paint14_linear)"/>
    <path d="M57.7871 230.043C58.4867 231.675 59.536 233.191 61.1682 234.123C64.6659 236.222 71.1948 236.805 77.1408 235.872C77.2574 230.509 72.5939 225.962 66.7644 225.846C66.4147 225.846 66.0649 225.846 65.8317 225.846C62.5673 226.079 59.6526 227.711 57.7871 230.043Z" fill="url(#paint15_linear)"/>
    <path d="M87.7504 213.138C87.7504 213.021 87.6338 213.021 87.5172 213.021L85.7684 213.604C77.6072 216.285 69.2128 218.151 60.7018 219.317L56.971 219.783C56.971 219.783 56.971 219.9 56.8544 220.249C57.0876 220.366 57.2042 220.366 57.554 220.483C66.0649 223.048 79.0062 219.783 82.8537 218.734C86.7011 217.684 89.6158 216.985 87.7504 213.138Z" fill="white"/>
    <path d="M88.3333 231.325C88.6831 231.092 88.9162 230.742 89.1494 230.393V230.276C89.1494 228.411 86.7011 226.778 85.7684 227.128C84.4859 227.595 86.3513 228.061 86.9343 228.527C87.5172 228.994 84.9522 231.209 76.6745 232.724C68.6299 234.24 62.6839 231.908 58.4867 231.442C59.1862 232.491 60.0023 233.424 61.1682 234.123C67.3474 237.971 82.5039 236.922 88.3333 231.325Z" fill="white"/>
    <path d="M77.9569 200.896C78.3067 203.111 80.1721 204.627 82.1541 204.277C84.1361 203.927 85.4186 201.945 85.0688 199.73C84.7191 197.515 82.8536 195.999 80.8716 196.349C78.8896 196.699 77.6072 198.797 77.9569 200.896Z" fill="#004F74"/>
    <path d="M78.6565 201.012C78.7731 201.945 79.4726 202.645 80.1721 202.645C80.8716 202.528 81.338 201.712 81.2214 200.779C81.1048 199.846 80.4053 199.147 79.7058 199.147C79.0062 199.147 78.5399 199.963 78.6565 201.012Z" fill="white"/>
    <path opacity="0.3" d="M44.7292 201.012H44.6126C44.0297 201.012 43.6799 200.546 43.7965 199.963C44.3795 193.551 48.2269 190.17 54.5227 190.403C55.1056 190.403 55.4554 190.869 55.4554 191.452C55.4554 192.035 54.989 192.385 54.4061 192.385C49.1596 192.152 46.2449 194.717 45.6619 200.196C45.6619 200.546 45.1956 200.896 44.7292 201.012Z" fill="#004F74"/>
    <path opacity="0.3" d="M74.5759 193.318C74.3427 193.318 74.1095 193.201 73.8763 193.084C73.5266 192.735 73.41 192.152 73.7597 191.685C76.9076 187.838 79.7058 187.138 81.4546 187.138C83.2034 187.138 84.7191 187.954 85.8849 189.354C86.2347 189.82 86.1181 190.403 85.7684 190.753C85.302 191.102 84.7191 190.986 84.3693 190.636C83.7864 189.936 82.8536 189.237 81.4546 189.12C79.5892 189.12 77.374 190.519 75.2754 192.968C75.0422 193.201 74.809 193.318 74.5759 193.318Z" fill="#004F74"/>
    <path d="M56.0383 209.99C56.2715 209.99 56.5047 209.873 56.6213 209.756C58.1369 208.241 62.8004 207.774 64.4327 207.774C64.6659 207.774 65.0156 207.658 65.1322 207.308C65.2488 207.075 65.2488 206.725 65.1322 206.492C65.1322 206.375 61.2848 199.264 52.1909 201.828C51.7245 201.945 51.4914 202.411 51.608 202.878C51.7245 203.344 52.1909 203.577 52.6572 203.461C58.3701 201.945 61.518 204.51 62.8004 206.142C60.7018 206.375 56.971 206.958 55.3388 208.591C54.989 208.94 54.989 209.523 55.3388 209.756C55.572 209.873 55.8051 209.99 56.0383 209.99Z" fill="#004F74"/>
    <path d="M54.6392 246.482C54.6392 246.482 47.9937 237.388 49.7425 236.222C51.608 235.056 54.1729 239.02 54.1729 239.02C54.1729 239.02 57.4374 234.706 60.0023 235.756C62.5673 236.805 67.6972 242.285 66.2981 243.917C64.899 245.782 58.1369 250.796 54.6392 246.482Z" fill="white"/>
    <path d="M37.5007 252.894H31.0884C26.1917 248.58 24.9092 241.702 27.3576 232.724C27.8239 231.092 28.2903 229.46 28.8732 228.061C30.7386 223.164 32.9538 219.55 33.0704 219.317C33.5367 218.501 34.586 218.267 35.4022 218.734C36.2183 219.2 36.4514 220.249 35.9851 221.066C35.8685 221.182 32.8372 226.195 30.9718 232.375C28.8732 239.137 28.2903 247.298 34.7026 251.495C35.7519 252.078 36.6846 252.544 37.5007 252.894Z" fill="white"/>
    <path d="M59.1862 244.616C59.0696 244.733 58.2535 246.132 56.8544 247.997C55.6885 249.513 54.0563 251.262 52.1909 252.894H45.7785C49.5094 251.495 52.4241 248.347 54.2895 246.016C55.572 244.383 56.2715 243.101 56.2715 243.101C56.7378 242.285 57.7871 242.051 58.6033 242.401C59.3028 242.751 59.6526 243.8 59.1862 244.616Z" fill="white"/>
    <path d="M290.148 107.508C288.982 107.858 287.816 108.441 286.417 109.257C281.287 104.477 278.955 93.751 278.955 93.751L246.311 93.1681L243.979 85.3566L240.598 92.9349L233.253 92.4685C234.652 82.4419 240.015 74.0476 251.79 73.2314C253.306 73.1149 254.938 73.1149 256.57 73.2314C288.749 76.0296 291.78 95.8496 290.148 107.508Z" fill="url(#paint16_linear)"/>
    <path d="M295.744 108.091C294.811 107.392 293.646 107.042 292.13 107.159C291.547 107.159 290.847 107.392 290.031 107.508C288.865 107.858 287.7 108.441 286.3 109.257C281.171 104.477 278.839 93.751 278.839 93.751L246.194 93.1681L243.862 85.3566L240.481 92.9349L233.136 92.4685L226.491 92.0022C226.491 92.0022 228.356 62.7385 265.897 65.0703C271.727 65.42 276.507 66.8191 280.471 68.8011C289.798 73.4646 294.578 81.7424 296.56 89.787C298.309 97.0155 297.726 104.011 295.744 108.091Z" fill="#F25B61"/>
    <path d="M256.57 73.2314C241.297 71.9489 234.768 81.1594 233.136 92.4685L240.481 92.9349L243.862 85.3566L246.194 93.168L278.839 93.751C278.839 93.751 282.103 108.558 289.332 111.123C289.448 110.54 289.565 109.957 289.682 109.374C292.013 98.0647 290.498 76.2627 256.57 73.2314Z" fill="#C61017"/>
    <path d="M292.013 122.782C289.215 123.131 287.233 122.432 285.834 121.149C282.22 127.911 276.39 133.274 267.18 133.741C267.18 133.741 252.723 135.256 242.347 127.328C236.634 122.898 231.387 106.109 233.253 92.4685L240.598 92.9349L243.979 85.3566L246.311 93.1681L278.955 93.751C278.955 93.751 281.287 104.477 286.417 109.257C287.816 108.441 288.982 107.858 290.148 107.508C290.847 107.275 291.547 107.159 292.246 107.159C293.762 107.042 294.928 107.392 295.861 108.091C300.291 111.239 298.426 121.965 292.013 122.782Z" fill="url(#paint17_linear)"/>
    <path d="M309.502 64.4873C301.457 57.6086 287.35 55.3934 281.754 65.1868C276.157 74.9803 291.197 93.751 305.421 90.0202C319.528 86.4059 317.196 71.1328 309.502 64.4873Z" fill="#F25B61"/>
    <path d="M296.677 89.787C294.811 81.7424 289.915 73.4646 280.704 68.8011C279.772 76.6125 287.35 86.8723 296.677 89.787Z" fill="#EF3B42"/>
    <path d="M292.246 119.051C292.013 119.051 291.78 118.934 291.547 118.818L288.049 115.203C287.816 114.97 287.7 114.62 287.816 114.387C287.933 114.037 288.166 113.804 288.516 113.804L293.529 112.638C293.995 112.522 294.462 112.872 294.578 113.338C294.695 113.804 294.345 114.271 293.879 114.387L290.381 115.203L292.713 117.768C293.063 118.118 293.063 118.701 292.713 119.051C292.713 118.934 292.48 119.051 292.246 119.051Z" fill="#F8A33F"/>
    <path d="M247.943 102.961C247.826 101.562 247.477 100.163 247.01 98.9975C246.66 98.1813 246.194 97.3652 245.611 96.6657C244.329 94.9169 242.58 93.6344 240.598 92.8183C238.966 92.1187 237.217 91.8856 235.351 92.0022C234.652 92.0022 233.952 92.1188 233.253 92.3519C233.136 92.3519 233.02 92.3519 232.903 92.4685C229.872 93.2846 227.423 95.3832 225.908 97.9482C225.092 99.3472 224.625 100.863 224.392 102.495C224.275 103.195 224.275 104.011 224.275 104.71C224.742 110.773 229.522 115.436 235.468 115.67C235.934 115.67 236.401 115.67 236.984 115.67C243.513 115.087 248.409 109.49 247.943 102.961ZM236.867 112.988C236.167 112.988 235.468 112.988 234.768 112.871C230.688 112.289 227.423 108.791 227.074 104.477C226.724 100.397 229.289 96.6657 233.02 95.2666C233.836 94.9169 234.652 94.8003 235.584 94.6837C240.598 94.3339 245.028 98.1814 245.378 103.195C245.728 108.208 241.88 112.522 236.867 112.988Z" fill="#860050"/>
    <path d="M275.108 101.096C274.875 98.1814 273.709 95.6164 271.727 93.6344C269.395 91.1861 266.014 89.787 262.4 90.1368C259.485 90.3699 256.92 91.5358 255.055 93.4012C254.122 94.2174 253.423 95.1501 252.84 96.3159C252.373 97.1321 252.023 97.9482 251.79 98.7643C251.441 100.047 251.324 101.446 251.324 102.845C251.79 109.374 257.503 114.271 263.916 113.804C270.561 113.221 275.574 107.508 275.108 101.096ZM263.916 111.006C258.902 111.356 254.472 107.508 254.122 102.495C253.772 98.4145 256.221 94.9169 259.718 93.4012C260.651 93.0515 261.584 92.8183 262.633 92.7017C264.265 92.5851 265.664 92.9349 267.063 93.5178H267.18C270.095 94.9169 272.193 97.715 272.543 101.213C272.776 106.226 268.929 110.656 263.916 111.006Z" fill="#860050"/>
    <path d="M252.723 99.2306C248.992 96.7823 246.544 99.2306 246.311 99.5804L244.329 97.8316C245.728 96.1993 249.692 93.9842 254.239 97.0155L252.723 99.2306Z" fill="#860050"/>
    <path d="M247.943 120.217L267.413 116.719C267.413 116.719 269.162 125.696 259.835 126.746C250.391 127.795 247.943 120.217 247.943 120.217Z" fill="#D6580C"/>
    <path d="M279.888 141.785C277.09 145.633 268.812 155.077 259.135 152.162C247.477 148.664 252.956 138.987 253.306 138.404C264.382 138.055 275.108 140.503 279.888 141.785Z" fill="url(#paint18_linear)"/>
    <path d="M282.103 142.485L279.772 141.902C280.937 142.019 281.754 142.252 282.103 142.485Z" fill="#0095DA"/>
    <path d="M240.131 140.27C240.131 140.27 201.657 155.193 200.841 195.882C200.025 236.572 224.392 218.967 224.392 218.967C224.392 218.967 258.786 150.763 240.131 140.27Z" fill="#F37021"/>
    <path d="M311.717 252.894C310.784 248.347 309.152 239.72 307.52 230.159C307.17 227.828 306.82 225.496 306.47 223.048C304.955 212.671 303.672 201.945 303.905 194.6C303.905 193.201 304.022 191.918 304.139 190.403C304.488 184.573 305.304 178.394 305.304 172.448C305.421 162.771 303.439 153.794 294.695 147.731C293.646 147.032 292.48 146.332 291.314 145.749C289.565 144.817 287.583 144.001 285.368 143.301C285.368 143.301 285.368 143.301 285.368 143.418C284.785 144.35 284.085 145.516 283.153 146.682C282.57 147.498 281.87 148.314 281.171 149.13C280.937 149.364 280.704 149.597 280.471 149.83C280.354 149.947 280.238 150.063 280.121 150.18C279.772 150.53 279.305 150.996 278.839 151.346C278.606 151.579 278.256 151.812 278.023 152.045C277.79 152.278 277.44 152.512 277.207 152.745C276.857 152.978 276.624 153.211 276.274 153.444C276.041 153.677 275.808 153.794 275.574 153.911C275.225 154.144 274.875 154.377 274.642 154.61C274.175 154.843 273.826 155.077 273.359 155.31C273.126 155.426 273.009 155.543 272.776 155.659C272.426 155.776 272.077 156.009 271.727 156.126C271.61 156.126 271.61 156.242 271.494 156.242C271.144 156.476 270.678 156.592 270.328 156.709C270.095 156.825 269.861 156.942 269.512 156.942C269.162 157.059 268.812 157.175 268.462 157.292C268.113 157.408 267.763 157.525 267.413 157.525H267.297C266.947 157.641 266.714 157.641 266.364 157.641C266.014 157.758 265.781 157.758 265.431 157.758C265.198 157.758 264.965 157.758 264.615 157.758C264.382 157.758 264.265 157.758 264.032 157.758C262.283 157.875 260.418 157.641 258.436 157.292C240.831 153.677 248.293 140.386 249.459 138.521C247.71 138.638 246.077 138.871 244.329 139.22C242.93 139.454 241.531 139.803 240.131 140.153C240.131 140.153 230.221 148.548 225.092 158.224C224.742 158.807 224.509 159.39 224.159 159.973C223.926 160.323 223.809 160.673 223.692 161.023C223.576 161.372 223.459 161.722 223.226 162.072C222.876 162.888 222.643 163.821 222.41 164.753C221.361 168.601 220.778 173.381 220.545 178.394C220.428 180.26 220.428 182.125 220.311 183.99C220.311 184.224 220.311 184.457 220.311 184.69C220.311 185.39 220.311 186.206 220.311 186.905C220.311 189.004 220.428 191.102 220.428 193.084C220.661 198.214 221.128 202.994 221.827 206.725C222.76 212.205 221.128 223.048 219.262 233.191C217.746 241.002 215.998 248.464 214.948 252.661H311.717V252.894Z" fill="#0095DA"/>
    <path d="M285.135 143.301C281.637 149.014 272.776 160.323 258.319 157.408C240.714 153.794 248.176 140.503 249.342 138.638C250.624 138.521 251.907 138.404 253.189 138.404C252.84 138.987 247.36 148.664 259.019 152.162C268.696 155.077 276.857 145.633 279.772 141.785L280.121 141.902L281.987 142.485L282.336 142.602L285.135 143.301Z" fill="white"/>
    <path d="M253.306 138.404C252.023 138.404 250.741 138.521 249.459 138.638L253.306 138.404Z" fill="#0095DA"/>
    <path d="M319.761 230.159C314.865 229.926 310.085 226.895 305.654 222.348C292.13 208.357 285.484 179.444 286.65 168.601C288.166 154.144 294.578 147.731 294.578 147.731C309.968 153.211 316.613 166.735 320.111 180.26C326.174 203.577 319.761 230.159 319.761 230.159Z" fill="#F37021"/>
    <path d="M310.784 215.819C310.784 215.819 295.278 185.04 310.551 159.157C310.551 159.157 327.456 179.327 324.192 196.582C320.811 213.837 310.784 215.819 310.784 215.819Z" fill="#C46036"/>
    <path d="M318.246 160.789C318.246 160.789 303.439 207.192 312.3 223.747C321.16 240.419 348.908 226.895 331.887 152.628C332.003 152.628 326.757 157.525 318.246 160.789Z" fill="#F37021"/>
    <path d="M318.246 160.09C318.246 160.09 316.264 160.323 315.797 163.821C315.331 167.318 315.797 167.435 319.062 167.785C322.326 168.134 332.469 170.816 334.335 160.09C334.335 160.09 335.034 153.444 332.003 151.929C328.972 150.413 332.12 157.641 318.246 160.09Z" fill="white"/>
    <path d="M332.003 153.561C332.003 153.561 327.34 133.624 329.322 126.512C331.42 119.4 321.977 124.997 321.977 130.476C321.977 136.073 321.977 136.073 321.977 136.073C321.977 136.073 309.152 133.274 309.385 138.404C309.618 143.534 308.802 141.436 309.385 145.866C309.968 150.296 307.636 151.462 310.551 153.561C313.466 155.659 313.466 161.722 320.461 161.722C327.456 161.722 330.837 162.771 332.003 153.561Z" fill="url(#paint19_linear)"/>
    <path d="M311.717 252.894L307.52 230.159C307.52 230.159 285.484 211.505 279.888 175.946C279.888 175.946 280.588 158.691 291.197 145.749C291.197 145.633 291.314 145.633 291.314 145.516C291.314 145.516 288.166 144.234 285.135 143.301C285.135 143.301 285.135 143.301 285.135 143.418C284.901 143.651 284.085 144.933 282.919 146.682C278.372 153.328 268.812 168.134 267.763 173.031C267.763 173.031 258.319 173.031 249.808 172.098C248.876 171.982 247.943 171.865 247.127 171.749C241.88 171.049 237.45 170 236.284 168.251C236.284 168.251 236.634 165.803 237.566 162.305C237.8 161.605 237.916 160.789 238.266 159.973C240.131 153.561 243.629 144.817 249.575 138.521L244.445 139.22C244.445 139.22 236.167 147.848 229.405 158.458C229.056 158.924 228.706 159.507 228.356 159.973C227.89 160.673 227.54 161.372 227.074 162.072C226.607 163.005 226.024 163.937 225.558 164.753C223.11 169.3 221.244 174.08 220.545 178.394C220.428 180.26 220.428 182.125 220.311 183.99C220.311 184.224 220.311 184.457 220.311 184.69C220.311 185.39 220.311 186.206 220.311 186.905C220.311 189.004 220.428 191.102 220.428 193.084C220.661 198.214 221.128 202.994 221.827 206.725C222.76 212.205 221.128 223.048 219.262 233.191C217.746 241.002 215.998 248.464 214.948 252.661H311.717V252.894Z" fill="#E56417"/>
    <path d="M226.724 180.26C229.299 180.26 231.387 178.172 231.387 175.596C231.387 173.02 229.299 170.933 226.724 170.933C224.148 170.933 222.06 173.02 222.06 175.596C222.06 178.172 224.148 180.26 226.724 180.26Z" fill="#0072A7"/>
    <path d="M271.61 184.923C274.186 184.923 276.274 182.835 276.274 180.26C276.274 177.684 274.186 175.596 271.61 175.596C269.035 175.596 266.947 177.684 266.947 180.26C266.947 182.835 269.035 184.923 271.61 184.923Z" fill="#0072A7"/>
    <path d="M214.365 233.541L245.961 233.307C251.907 233.307 256.221 228.527 255.521 222.581L249.575 170.466C248.876 164.637 243.513 159.973 237.567 159.973L205.971 160.206C200.025 160.206 195.711 164.987 196.411 170.933L202.357 223.048C203.056 228.877 208.419 233.541 214.365 233.541Z" fill="#8CC640"/>
    <path d="M253.073 224.68L247.127 172.565C246.427 166.735 241.064 162.072 235.118 162.072L203.523 162.305C201.541 162.305 199.792 162.888 198.276 163.821C200.025 161.605 202.707 160.206 205.854 160.206L237.45 159.973C243.396 159.973 248.759 164.637 249.459 170.466L255.405 222.581C255.871 226.545 254.122 229.926 251.091 231.792C252.606 229.926 253.423 227.361 253.073 224.68Z" fill="#A9DD57"/>
    <path d="M231.154 162.888L231.038 162.188L230.688 160.323C230.688 160.206 230.688 160.206 230.688 160.09C230.455 159.39 229.988 158.807 229.289 158.574C229.056 158.458 228.706 158.341 228.356 158.341H224.275C224.858 157.408 225.208 156.126 224.975 154.843C224.509 151.812 221.594 149.364 218.563 149.364C215.531 149.364 213.549 151.812 214.016 154.843C214.249 156.126 214.948 157.408 215.881 158.341H211.8C210.751 158.341 210.052 159.157 210.168 160.206V160.323L210.518 162.422L210.635 163.005C210.868 164.054 211.8 164.987 212.966 164.987H229.522C230.571 164.987 231.387 164.054 231.154 162.888ZM219.146 152.278C220.545 152.278 221.944 153.444 222.177 154.843C222.41 156.242 221.477 157.408 220.078 157.408C218.679 157.408 217.397 156.242 217.047 154.843C216.814 153.444 217.746 152.278 219.146 152.278Z" fill="#005075"/>
    <path d="M186.268 222.814C183.003 213.138 186.617 202.411 190.581 194.483C194.079 192.385 198.276 191.336 198.276 191.336L199.792 193.084C200.841 196.815 202.473 194.25 206.904 206.958C213.316 225.613 192.447 241.235 186.268 222.814Z" fill="#F37021"/>
    <path d="M199.442 193.784L198.276 191.452C198.276 191.452 194.079 192.385 190.581 194.6C194.196 187.488 197.81 182.941 197.81 182.941C198.509 189.354 198.976 192.152 199.442 193.784Z" fill="#C46036"/>
    <path d="M198.276 191.452C198.276 191.452 190.348 197.864 190.581 205.443C190.815 213.021 194.662 221.765 205.505 213.021C205.505 213.021 208.769 207.658 205.505 204.044C202.357 200.429 198.276 191.452 198.276 191.452Z" fill="white"/>
    <path d="M195.012 200.779C195.012 200.779 196.178 188.654 206.088 184.923C215.998 181.192 220.778 182.242 220.311 184.923C219.845 187.605 221.944 191.685 219.495 195.882C217.047 200.08 207.487 205.676 205.505 208.591C203.523 211.505 191.98 216.519 195.012 200.779Z" fill="url(#paint20_linear)"/>
    <path d="M346.693 206.492C346.693 206.492 347.626 213.604 353.689 215.12C349.608 216.285 347.393 218.384 346.46 222.465C346.46 222.465 345.527 216.285 339.931 214.653C339.931 214.537 345.994 213.837 346.693 206.492Z" fill="white"/>
    <path d="M60.7018 132.575C60.7018 132.575 61.6346 139.687 67.6972 141.202C63.6166 142.368 61.4014 144.467 60.4687 148.548C60.4687 148.548 59.536 142.368 53.9397 140.736C53.9397 140.736 60.0023 140.037 60.7018 132.575Z" fill="white"/>
    <path d="M173.326 74.5139C173.326 74.5139 173.793 78.7111 177.523 79.6438C175.075 80.3433 173.793 81.6258 173.21 83.9576C173.21 83.9576 172.743 80.2267 169.362 79.294C169.246 79.4106 172.86 78.9443 173.326 74.5139Z" fill="white"/>
    <path d="M221.944 126.279C221.944 126.279 222.41 130.476 226.141 131.409C223.693 132.109 222.41 133.391 221.827 135.723C221.827 135.723 221.361 131.992 217.98 131.059C217.863 131.176 221.477 130.71 221.944 126.279Z" fill="white"/>
    <path d="M222.06 48.7479C222.06 48.7479 222.876 55.6266 228.822 57.1422C224.858 58.3081 222.643 60.2901 221.711 64.2541C221.711 64.2541 220.894 58.3081 215.415 56.6759C215.415 56.6759 221.361 55.9763 222.06 48.7479Z" fill="white"/>
    <path d="M340.864 98.9975C340.864 98.9975 341.913 110.307 349.725 112.755C344.595 114.737 341.797 118.001 340.514 124.414C340.514 124.414 339.465 114.62 332.353 111.939C332.353 111.939 339.931 110.773 340.864 98.9975Z" fill="#F7CA50"/>
    <path d="M74.6925 63.7878C74.6925 63.7878 57.554 43.9677 51.8411 46.8824C48.2269 48.7479 46.8278 54.4607 46.2449 58.4247C45.8951 60.8731 47.5274 63.0882 49.8591 63.6712C53.7065 64.3707 60.935 64.9537 74.6925 63.7878Z" fill="#F7CA50"/>
    <path d="M78.6565 58.4247C78.6565 58.4247 80.6385 39.1876 76.0915 37.672C73.1768 36.5061 69.0962 39.071 66.7644 40.7033C65.5986 41.636 65.2488 43.2682 65.9483 44.5507C67.3474 46.8824 70.6119 51.1962 78.6565 58.4247Z" fill="#F7CA50"/>
    <path d="M75.5086 67.6352C75.5086 67.6352 56.3881 70.2001 55.9217 74.8637C55.572 78.0116 58.953 81.5092 61.1682 83.258C62.3341 84.1907 63.9663 84.1907 65.0156 83.1414C66.881 81.276 70.2621 77.0788 75.5086 67.6352Z" fill="#F7CA50"/>
    <defs>
        <linearGradient id="paint0_linear" x1="128.463" y1="25.5916" x2="201.406" y2="134.834" gradientUnits="userSpaceOnUse">
            <stop stop-color="#FDE2C2"/>
            <stop offset="0.00186858" stop-color="#FDE2C2"/>
            <stop offset="1" stop-color="#F9B260"/>
        </linearGradient>
        <linearGradient id="paint1_linear" x1="99.2396" y1="92.42" x2="99.2396" y2="97.0253" gradientUnits="userSpaceOnUse">
            <stop stop-color="#FDE2C2"/>
            <stop offset="0.00186858" stop-color="#FDE2C2"/>
            <stop offset="1" stop-color="#F9B260"/>
        </linearGradient>
        <linearGradient id="paint2_linear" x1="118.467" y1="50.5229" x2="118.467" y2="88.2345" gradientUnits="userSpaceOnUse">
            <stop stop-color="#FDE2C2"/>
            <stop offset="0.00186858" stop-color="#FDE2C2"/>
            <stop offset="1" stop-color="#F9B260"/>
        </linearGradient>
        <linearGradient id="paint3_linear" x1="120.177" y1="57.3987" x2="120.177" y2="120.698" gradientUnits="userSpaceOnUse">
            <stop stop-color="#FDE2C2"/>
            <stop offset="0.00186858" stop-color="#FDE2C2"/>
            <stop offset="1" stop-color="#F9B260"/>
        </linearGradient>
        <linearGradient id="paint4_linear" x1="94.5207" y1="95.6407" x2="100.929" y2="95.6407" gradientUnits="userSpaceOnUse">
            <stop stop-color="#FDE2C2"/>
            <stop offset="0.00186858" stop-color="#FDE2C2"/>
            <stop offset="1" stop-color="#F9B260"/>
        </linearGradient>
        <linearGradient id="paint5_linear" x1="130.907" y1="138.221" x2="130.907" y2="124.507" gradientUnits="userSpaceOnUse">
            <stop stop-color="#FDE2C2"/>
            <stop offset="0.00186858" stop-color="#FDE2C2"/>
            <stop offset="1" stop-color="#F9B260"/>
        </linearGradient>
        <linearGradient id="paint6_linear" x1="165.752" y1="220.039" x2="47.6996" y2="220.039" gradientUnits="userSpaceOnUse">
            <stop stop-color="#FDE2C2"/>
            <stop offset="0.00186858" stop-color="#FDE2C2"/>
            <stop offset="1" stop-color="#F9B260"/>
        </linearGradient>
        <linearGradient id="paint7_linear" x1="29.7832" y1="156.69" x2="47.6143" y2="156.69" gradientUnits="userSpaceOnUse">
            <stop stop-color="#04AE59"/>
            <stop offset="1" stop-color="#047B35"/>
        </linearGradient>
        <linearGradient id="paint8_linear" x1="16.2032" y1="187.987" x2="56.407" y2="187.987" gradientUnits="userSpaceOnUse">
            <stop stop-color="#E90089"/>
            <stop offset="1" stop-color="#C4007C"/>
        </linearGradient>
        <linearGradient id="paint9_linear" x1="15.9237" y1="183.703" x2="48.0637" y2="183.703" gradientUnits="userSpaceOnUse">
            <stop stop-color="#F4901E"/>
            <stop offset="1" stop-color="#EA5F01"/>
        </linearGradient>
        <linearGradient id="paint10_linear" x1="43.9444" y1="179.205" x2="78.8459" y2="179.205" gradientUnits="userSpaceOnUse">
            <stop stop-color="#F4901E"/>
            <stop offset="1" stop-color="#EA5F01"/>
        </linearGradient>
        <linearGradient id="paint11_linear" x1="46.5332" y1="175.331" x2="69.82" y2="175.331" gradientUnits="userSpaceOnUse">
            <stop stop-color="#EA1D25"/>
            <stop offset="1" stop-color="#A80000"/>
        </linearGradient>
        <linearGradient id="paint12_linear" x1="16.0325" y1="213.785" x2="101.839" y2="213.785" gradientUnits="userSpaceOnUse">
            <stop stop-color="#74D3FF"/>
            <stop offset="1" stop-color="#0EB3FF"/>
        </linearGradient>
        <linearGradient id="paint13_linear" x1="15.9814" y1="188.348" x2="52.8112" y2="252.139" gradientUnits="userSpaceOnUse">
            <stop stop-color="#74D3FF"/>
            <stop offset="1" stop-color="#0CA1E7"/>
        </linearGradient>
        <linearGradient id="paint14_linear" x1="56.6765" y1="224.416" x2="91.2407" y2="224.416" gradientUnits="userSpaceOnUse">
            <stop stop-color="#0095DA"/>
            <stop offset="0.000232322" stop-color="#0095DA"/>
            <stop offset="1" stop-color="#0072A7"/>
        </linearGradient>
        <linearGradient id="paint15_linear" x1="57.7878" y1="231.189" x2="77.1845" y2="231.189" gradientUnits="userSpaceOnUse">
            <stop stop-color="#EA1D25"/>
            <stop offset="1" stop-color="#A80000"/>
        </linearGradient>
        <linearGradient id="paint16_linear" x1="261.852" y1="73.1276" x2="261.852" y2="109.281" gradientUnits="userSpaceOnUse">
            <stop stop-color="#FDE2C2"/>
            <stop offset="0.00186858" stop-color="#FDE2C2"/>
            <stop offset="1" stop-color="#F9B260"/>
        </linearGradient>
        <linearGradient id="paint17_linear" x1="265.537" y1="85.3683" x2="265.537" y2="133.909" gradientUnits="userSpaceOnUse">
            <stop stop-color="#FDE2C2"/>
            <stop offset="0.00186858" stop-color="#FDE2C2"/>
            <stop offset="1" stop-color="#F9B260"/>
        </linearGradient>
        <linearGradient id="paint18_linear" x1="265.774" y1="152.683" x2="265.774" y2="138.343" gradientUnits="userSpaceOnUse">
            <stop stop-color="#FDE2C2"/>
            <stop offset="0.00186858" stop-color="#FDE2C2"/>
            <stop offset="1" stop-color="#F9B260"/>
        </linearGradient>
        <linearGradient id="paint19_linear" x1="311.946" y1="156.416" x2="337.05" y2="131.313" gradientUnits="userSpaceOnUse">
            <stop stop-color="#FDE2C2"/>
            <stop offset="0.00186858" stop-color="#FDE2C2"/>
            <stop offset="1" stop-color="#F9B260"/>
        </linearGradient>
        <linearGradient id="paint20_linear" x1="194.505" y1="197.094" x2="220.686" y2="197.094" gradientUnits="userSpaceOnUse">
            <stop stop-color="#FDE2C2"/>
            <stop offset="0.00186858" stop-color="#FDE2C2"/>
            <stop offset="1" stop-color="#F9B260"/>
        </linearGradient>
    </defs>
</svg>
