<svg xmlns="http://www.w3.org/2000/svg" width="18" height="18" viewBox="0 0 18 18">
    <g fill="none" fill-rule="evenodd">
        <g fill="#FFF">
            <g>
                <path fill-opacity=".01" d="M0 0H18V18H0z" transform="translate(-121 -8) translate(121 8)"/>
                <path fill-rule="nonzero" d="M7.5 7.5V9h3V7.5h3.75v3.197l-1.067-.533c-.312-.156-.66-.239-1.006-.239l-.17.007c-1.005.075-1.829.815-2.032 1.78h-.048c-1.24 0-2.25 1.01-2.25 2.25 0 .099.017.193.03.288H4.5c-.414 0-.75-.336-.75-.75v-6H7.5zM15 2.25c.414 0 .75.336.75.75v3H2.25V3c0-.414.336-.75.75-.75h12zm-2.488 9.256l3.573 1.786c.553.276.553 1.065 0 1.341l-3.573 1.787c-.498.249-1.085-.114-1.085-.67l-.001-1.038H9.927c-.38 0-.693-.282-.743-.648l-.007-.101c0-.414.336-.75.75-.75h1.499l.001-1.037c0-.557.587-.92 1.085-.67z" transform="translate(-121 -8) translate(121 8)"/>
            </g>
        </g>
    </g>
</svg>
