<svg width="16" height="16" viewBox="0 0 16 16" fill="none" xmlns="http://www.w3.org/2000/svg">
<path d="M15.5 4.25H0.5V1.2905C0.5 0.854 0.854 0.5 1.2905 0.5H14.7095C15.146 0.5 15.5 0.854 15.5 1.2905V4.25Z" fill="white"/>
<path d="M13.2223 8H11.7223C11.3083 8 10.9723 7.664 10.9723 7.25C10.9723 6.836 11.3083 6.5 11.7223 6.5H13.2223C13.6363 6.5 13.9723 6.836 13.9723 7.25C13.9723 7.664 13.637 8 13.2223 8Z" fill="white"/>
<path d="M7.97224 9.023C7.97224 8.39225 8.22349 7.6835 8.62399 7.24775H5.72149L5.72599 5.75H1.97299V13.25C1.97299 13.664 2.30899 14 2.72299 14H7.97224V9.023Z" fill="white"/>
<path d="M14.7223 8H14.6533C14.498 8.43575 14.0855 8.75 13.5973 8.75H11.3473C10.859 8.75 10.4465 8.43575 10.2913 8H10.2223C9.80826 8 9.47226 8.336 9.47226 8.75V14.75C9.47226 15.164 9.80826 15.5 10.2223 15.5H14.7223C15.1363 15.5 15.4723 15.164 15.4723 14.75V8.75C15.4723 8.336 15.137 8 14.7223 8ZM14.4208 11.1875L12.9868 13.391C12.8945 13.5328 12.743 13.625 12.5743 13.6437C12.5548 13.646 12.5345 13.6467 12.515 13.6467C12.3673 13.6467 12.224 13.589 12.119 13.4833L10.9753 12.347C10.7548 12.128 10.7533 11.7718 10.9723 11.5513C11.1913 11.3308 11.5475 11.3293 11.768 11.5483L12.4213 12.197L13.478 10.5725C13.6475 10.3123 13.9963 10.238 14.2565 10.4075C14.5168 10.577 14.5903 10.9265 14.4208 11.1875Z" fill="white"/>
</svg>
