<svg xmlns="http://www.w3.org/2000/svg" width="18" height="18" viewBox="0 0 18 18">
    <g fill="none" fill-rule="evenodd">
        <g>
            <g>
                <path fill="#D8D8D8" fill-opacity=".005" d="M0 0H18V18H0z" transform="translate(-175 -8) translate(175 8)"/>
                <path fill="#FFF" fill-rule="nonzero" d="M4.178 3.322V1.5H3c-.829 0-1.5.671-1.5 1.5v6c0 .829.671 1.5 1.5 1.5h3.75c.829 0 1.5-.671 1.5-1.5V5.572H6.428c-1.24 0-2.25-1.01-2.25-2.25zM6.375 9h-3C3.168 9 3 8.832 3 8.625s.168-.375.375-.375h3c.207 0 .375.168.375.375S6.582 9 6.375 9zm6.053-1.5v1.822c0 1.24 1.01 2.25 2.25 2.25H16.5V15c0 .829-.671 1.5-1.5 1.5h-3.75c-.829 0-1.5-.671-1.5-1.5V9c0-.829.671-1.5 1.5-1.5h1.178zm2.197 6.75h-3c-.207 0-.375.168-.375.375s.168.375.375.375h3c.207 0 .375-.168.375-.375s-.168-.375-.375-.375zm0-1.5h-3c-.207 0-.375.168-.375.375s.168.375.375.375h3c.207 0 .375-.168.375-.375s-.168-.375-.375-.375zm-.697-5.25l2.572 2.572h-1.822c-.38 0-.693-.283-.743-.649l-.007-.101V7.5zm-7.553-.75c.207 0 .375.168.375.375s-.168.375-.375.375h-3C3.168 7.5 3 7.332 3 7.125s.168-.375.375-.375h3zM5.678 1.5L8.25 4.072H6.428c-.414 0-.75-.336-.75-.75V1.5zm8.259.75v.698l1.107.001c.379 0 .693.282.743.648l.006.102c0 .414-.335.75-.75.75h-1.107v.698c0 .558-.586.92-1.085.67L9.955 4.37c-.553-.277-.553-1.066 0-1.341L12.85 1.58c.499-.249 1.085.113 1.085.67zm-8.745 9.932L8.09 13.63c.553.276.553 1.065 0 1.341L5.192 16.42c-.498.249-1.085-.114-1.085-.67l-.001-.7L3 15.052c-.38 0-.693-.282-.743-.648L2.25 14.3c0-.414.336-.75.75-.75h1.106l.001-.698c0-.557.587-.92 1.085-.67z" transform="translate(-175 -8) translate(175 8)"/>
            </g>
        </g>
    </g>
</svg>
