<svg xmlns="http://www.w3.org/2000/svg" width="18" height="18" viewBox="0 0 18 18">
    <g fill="none" fill-rule="evenodd">
        <g>
            <g>
                <path fill="#D8D8D8" fill-opacity=".01" d="M0 0H18V18H0z" transform="translate(-283 -8) translate(283 8)"/>
                <path fill="#FFF" fill-rule="nonzero" d="M11.296 10.625c.39 0 .708.336.708.75s-.338.682-.708.75l-2.626.438s-.317.073-.387.318c-.146.518.142.75.683.75.104 0 .481-.041.58-.067 0 0 3.934-1.25 5.356-1.439.45-.06.823.391.823.872 0 .376-.228.709-.564.827l-5.046 2.426c-.53.255-1.11.387-1.699.387l-.26-.008c-.26-.018-.517-.061-.77-.13L5.1 15.875H2.915c-.39 0-.708-.336-.708-.75v-2.25c0-.414.317-.75.708-.75l2.29-.005s1.454-1.307 3.321-1.307zM7.5 6.75v1.5h3v-1.5h3.75v3.967c-.244.046-.507.102-.798.171-.22-1.007-1.103-1.763-2.156-1.763h-.052l-.05.004-2.724.184c-1.7.017-3.08.809-3.782 1.308l-.939.003V6.75H7.5zM15 2.25c.414 0 .75.336.75.75v2.25H2.25V3c0-.414.336-.75.75-.75h12z" transform="translate(-283 -8) translate(283 8)"/>
            </g>
        </g>
    </g>
</svg>
